<?xml version="1.0" encoding="UTF-8" standalone="no"?>
<svg
   version="1.1"
   viewBox="0 0 279.06607 287.10467"
   x="0px"
   y="0px"
   id="svg37859"
   sodipodi:docname="d10-tea.svg"
   inkscape:version="1.2 (dc2aedaf03, 2022-05-15)"
   width="279.06607"
   height="287.10468"
   xmlns:inkscape="http://www.inkscape.org/namespaces/inkscape"
   xmlns:sodipodi="http://sodipodi.sourceforge.net/DTD/sodipodi-0.dtd"
   xmlns="http://www.w3.org/2000/svg"
   xmlns:svg="http://www.w3.org/2000/svg">
  <defs
     id="defs37863" />
  <sodipodi:namedview
     id="namedview37861"
     pagecolor="#505050"
     bordercolor="#ffffff"
     borderopacity="1"
     inkscape:showpageshadow="0"
     inkscape:pageopacity="0"
     inkscape:pagecheckerboard="1"
     inkscape:deskcolor="#505050"
     showgrid="false"
     inkscape:zoom="2.8616739"
     inkscape:cx="114.96768"
     inkscape:cy="179.78988"
     inkscape:window-width="1350"
     inkscape:window-height="1230"
     inkscape:window-x="2069"
     inkscape:window-y="97"
     inkscape:window-maximized="0"
     inkscape:current-layer="svg37859" />
  <g
     transform="translate(-518,-356.06707)"
     id="g37853">
    <path
       d="M 648.33753,634.83587 C 643.52366,630.25114 635.07456,622.225 629.56176,617 c -13.50003,-12.79524 -28.58021,-27.12014 -43.16175,-41 -6.64476,-6.325 -19.45828,-18.475 -28.4745,-27 -9.01622,-8.525 -20.67542,-19.62902 -25.90932,-24.67559 -5.23391,-5.04658 -10.52869,-10.04936 -11.76619,-11.1173 -1.2375,-1.06793 -2.25,-2.3007 -2.25,-2.73947 0,-0.43878 2.5875,-3.54019 5.75,-6.89202 3.1625,-3.35183 9.35,-10.10394 13.75,-15.00469 4.4,-4.90075 8.45,-9.40501 9,-10.00946 0.55,-0.60446 2.98465,-3.34057 5.41033,-6.08024 2.42568,-2.73968 6.93194,-7.68123 10.0139,-10.98123 3.08197,-3.3 7.1266,-7.8 8.98808,-10 1.86147,-2.2 5.68021,-6.51341 8.48609,-9.58535 5.30635,-5.8095 6.32459,-6.94286 21.0365,-23.41465 4.91237,-5.5 9.19438,-10.225 9.51558,-10.5 0.3212,-0.275 6.86849,-7.475 14.54952,-16 7.68103,-8.525 14.19827,-15.725 14.48276,-16 0.28448,-0.275 3.89224,-4.32276 8.01724,-8.99502 4.125,-4.67225 8.03036,-9.05975 8.67857,-9.75 1.2965,-1.38055 1.89768,-1.64952 3.06875,-0.3183 0.49036,0.56184 1.92898,2.36332 3.95658,4.56332 5.58734,6.06239 12.44612,13.67063 15.80901,17.53648 1.65711,1.90494 9.30711,10.4072 17,18.89393 7.6929,8.48672 15.99184,17.71172 18.44208,20.5 2.45025,2.78827 6.72525,7.5515 9.5,10.58495 7.39496,8.08441 22.43774,24.74857 27.04501,29.96006 2.2,2.48852 4.23596,4.74958 4.52435,5.02458 0.28839,0.275 8.82343,9.725 18.96675,21 10.14332,11.275 19.48473,21.625 20.75869,23 l 2.31629,2.5 -10.28304,9.84872 c -5.65567,5.4168 -17.70804,16.86227 -26.78304,25.43437 -9.075,8.57211 -21.68934,20.56518 -28.03186,26.65128 -6.34252,6.0861 -18.46931,17.59063 -26.94843,25.56563 -8.47911,7.975 -20.61477,19.48375 -26.96814,25.575 -6.35336,6.09124 -13.66881,12.99239 -16.25656,15.33586 l -4.70498,4.26088 z M 651,571.44468 v -48.55533 l -5.25,-2.30126 c -5.49624,-2.4092 -9.50329,-4.0722 -37.09889,-15.39673 -16.82668,-6.90524 -16.85502,-6.91264 -21.5,-5.6169 -17.69647,4.93656 -47.63451,13.57561 -47.87349,13.81458 -0.159,0.15901 3.42599,3.80709 7.96664,8.10685 4.54066,4.29976 12.08074,11.47348 16.75574,15.94161 11.44209,10.93576 25.89231,24.64873 47.48521,45.0625 9.89007,9.35 22.71434,21.60373 28.49837,27.23051 5.78403,5.62677 10.62892,10.23927 10.76642,10.25 0.1375,0.0107 0.25,-21.83041 0.25,-48.53583 z m 17.3788,43.88855 c 2.26666,-2.01673 11.72911,-10.90423 21.02767,-19.75 19.64948,-18.69268 22.62322,-21.51466 33.21794,-31.52273 4.33158,-4.09173 15.75059,-14.91133 25.37559,-24.04356 9.625,-9.13223 19.91134,-18.85798 22.85853,-21.61278 l 5.35854,-5.00872 -9.35854,-2.69198 c -5.14719,-1.48059 -16.98256,-4.90554 -26.30082,-7.611 l -16.94229,-4.91901 -7.55771,2.94344 c -4.15674,1.61888 -8.45771,3.36696 -9.55771,3.88462 -1.66173,0.782 -30.30388,12.422 -39.73138,16.1466 l -2.73137,1.0791 -0.26863,48.38665 c -0.14774,26.61265 -0.0982,48.38653 0.11018,48.38639 0.20834,-1.4e-4 2.23334,-1.6503 4.5,-3.66702 z m 2.189,-109.20122 c 30.1277,-12.29122 40.05782,-16.40516 41.66719,-17.26229 1.55179,-0.82645 1.00904,-2.32024 -5.14011,-14.14687 -11.90327,-22.8935 -18.99647,-36.60897 -29.59381,-57.22285 -16.81415,-32.70679 -19.90154,-38.50377 -20.46489,-38.42552 -0.2949,0.041 -2.77634,4.65347 -5.51431,10.25 -2.73797,5.59654 -9.07463,18.05052 -14.08146,27.67552 -5.00684,9.625 -13.96731,26.95 -19.91217,38.5 -5.94486,11.55 -12.0957,23.33818 -13.66854,26.19595 -1.57283,2.85777 -2.8597,5.6154 -2.8597,6.12807 0,0.51267 2.8125,1.94801 6.25,3.18963 3.4375,1.24163 8.5,3.26878 11.25,4.50478 4.93196,2.21668 11.84185,5.10934 28.5,11.93082 4.675,1.9144 9.20551,3.49649 10.0678,3.51574 0.86229,0.0193 6.93729,-2.15558 13.5,-4.83298 z M 565.67467,492.50432 c 9.25393,-2.53894 17.95033,-5.04968 19.32533,-5.57943 2.63475,-1.01508 2.88687,-1.45735 22.18919,-38.92489 5.52524,-10.725 12.51013,-24.14537 15.52197,-29.82305 3.01184,-5.67768 5.32144,-10.4639 5.13245,-10.63605 -0.18898,-0.17215 -7.99361,8.19594 -17.34361,18.59575 -9.35,10.39981 -18.50882,20.58603 -20.35294,22.63605 -1.84411,2.05001 -10.83691,12.0523 -19.98399,22.2273 -9.14708,10.175 -16.86325,18.73435 -17.14706,19.02077 -4.15116,4.18948 -7.16406,8.15579 -5.84134,7.6898 0.92107,-0.3245 9.24607,-2.66731 18.5,-5.20625 z M 767.97038,497.25 c -0.0269,-0.68124 -2.0411,-2.94411 -15.35438,-17.25 -2.30327,-2.475 -10.21344,-11.25 -17.57814,-19.5 -7.36471,-8.25 -17.30188,-19.275 -22.0826,-24.5 -4.78072,-5.225 -12.42121,-13.775 -16.97886,-19 -4.55766,-5.225 -8.72201,-9.66839 -9.25412,-9.8742 -0.53211,-0.20581 0.59768,2.49419 2.51065,6 1.91297,3.50581 8.78107,16.7242 15.26243,29.3742 16.73836,32.66908 21.57963,41.85963 22.65093,43 0.51669,0.55 9.58265,3.53225 20.14657,6.62722 21.81725,6.39191 20.71687,6.1193 20.67752,5.12278 z"
       fill="#000000"
       id="path37851" />
  </g>
  <path
     style="fill:#0abfbe;stroke:#7a7a7a;stroke-width:0;stroke-opacity:0"
     d="M 107.45459,256.78041 C 90.157022,240.33108 65.784665,217.18313 53.293797,205.34052 40.802926,193.49791 25.15649,178.63198 18.523937,172.30512 11.891383,165.97827 5.0888048,159.49106 3.4070968,157.88912 c -1.6817081,-1.60194 -3.05765098,-3.13301 -3.05765098,-3.40237 0,-0.67246 1.24182568,-2.11285 11.17443518,-12.96119 4.751233,-5.18927 12.862103,-14.15256 18.024157,-19.91841 5.162052,-5.76586 11.419638,-12.68489 13.905742,-15.37562 2.486105,-2.69073 6.653994,-7.329625 9.261978,-10.308651 2.607984,-2.979025 6.879816,-7.775169 9.492961,-10.658097 2.613142,-2.882928 9.605106,-10.666834 15.537693,-17.297569 5.93259,-6.630734 12.535425,-13.942888 14.672968,-16.24923 5.834333,-6.295061 25.75549,-28.361151 35.96449,-39.836824 9.17178,-10.3097642 10.49018,-11.70643554 11.05042,-11.70643554 0.17373,0 0.84806,0.58968983 1.49851,1.31042184 0.65045,0.7207321 3.36936,3.7316352 6.04202,6.6908962 2.67267,2.9592615 8.39753,9.3379035 12.72192,14.1747605 8.54543,9.558112 34.32583,38.212179 45.73959,50.838058 3.91921,4.335414 16.19901,17.946611 27.28846,30.2471 11.08945,12.3005 25.97909,28.80844 33.08809,36.68432 l 12.92546,14.31978 -4.74517,4.57424 c -2.60984,2.51583 -14.25883,13.59891 -25.88664,24.62906 -11.62781,11.03016 -27.58874,26.19728 -35.46875,33.70471 -7.88,7.50744 -20.06692,19.06975 -27.08205,25.69404 -7.01512,6.62428 -17.78732,16.84236 -23.93821,22.70684 -12.08851,11.52563 -22.25796,20.98097 -22.53796,20.95534 -0.0962,-0.009 -14.3274,-13.47455 -31.62497,-29.92388 z m 25.66413,-42.77567 0.0201,-47.38073 -7.42573,-3.17673 c -9.18768,-3.93049 -41.992799,-17.40251 -46.639467,-19.15335 -6.107628,-2.30132 -4.792615,-2.50429 -29.277633,4.51912 -23.966358,6.87464 -28.07132,8.0873 -28.362686,8.37866 -0.111919,0.11192 -0.116345,0.43058 -0.0098,0.70815 0.190294,0.49589 27.647491,26.75012 60.346814,57.70285 17.987483,17.02671 27.234782,25.84896 41.575922,39.66495 l 9.25219,8.91338 0.25007,-1.39778 c 0.13755,-0.76878 0.25914,-22.71911 0.27022,-48.77852 z m 16.36338,46.26508 c 3.44296,-3.03351 8.41321,-7.68446 23.82797,-22.29722 41.05951,-38.92323 65.10899,-61.69712 73.39891,-69.5058 5.28524,-4.97843 10.07322,-9.49435 10.63995,-10.03537 0.56673,-0.54103 0.94957,-1.06454 0.85075,-1.16336 -0.22654,-0.22653 -51.99862,-15.21834 -52.5544,-15.21834 -0.51972,0 -11.47109,4.33462 -24.10818,9.54217 -5.38146,2.21762 -15.60275,6.37679 -22.71397,9.2426 l -12.9295,5.21057 -0.25162,38.75933 c -0.25361,39.06481 -0.0969,58.15358 0.47734,58.15358 0.17146,0 1.6847,-1.20967 3.36275,-2.68816 z m -3.39535,-107.4924 c 5.11849,-1.92797 36.35234,-14.68288 44.36122,-18.11572 4.17266,-1.78853 4.37284,-1.9213 4.47458,-2.96781 0.0586,-0.60255 -0.28093,-2.04901 -0.75445,-3.21437 -0.47353,-1.16536 -5.57374,-11.20817 -11.33381,-22.31734 C 177.07422,95.053 167.05387,75.663758 160.56683,63.074972 141.45297,25.982481 139.70576,22.741166 138.95632,22.984532 c -0.22058,0.07163 -3.51873,6.251458 -7.32922,13.732951 -7.24702,14.228766 -36.94712,71.729137 -44.208206,85.588557 -2.315935,4.42049 -4.307898,8.43954 -4.426581,8.93122 -0.191395,0.79294 -0.02104,0.99997 1.507202,1.83175 0.947645,0.51577 3.748324,1.70456 6.223732,2.64176 2.475407,0.93719 8.196129,3.28475 12.712713,5.2168 10.89475,4.66041 23.49255,9.86025 29.52818,12.18796 5.95702,2.29741 6.13802,2.29274 13.12261,-0.33811 z m 103.81547,-12.20966 c -0.23466,-0.43845 -2.89688,-3.48414 -5.91605,-6.76819 -12.01128,-13.06506 -16.30394,-17.78144 -23.66011,-25.99553 -4.21697,-4.70879 -13.41633,-14.930076 -20.44302,-22.713981 -7.02669,-7.783906 -15.91608,-17.690695 -19.75421,-22.015087 -8.80004,-9.914942 -11.22048,-12.467829 -11.53017,-12.161082 -0.43137,0.427289 0.43875,2.332093 5.39557,11.811636 2.6632,5.093173 8.96616,17.280096 14.00657,27.082051 12.59418,24.491553 17.63025,34.123143 19.50499,37.303703 l 1.59653,2.70857 6.8347,2.2473 c 3.75908,1.23601 11.47358,3.61277 17.14334,5.28169 16.8323,4.95466 17.85559,5.15047 16.82186,3.21892 z M 34.491729,140.31689 c 2.65151,-0.76086 10.79645,-3.05461 18.099867,-5.09723 7.303418,-2.04261 13.943689,-4.0043 14.756154,-4.35931 2.40021,-1.04877 3.294959,-2.61436 20.366482,-35.636362 5.812559,-11.24342 12.180755,-23.508968 14.151548,-27.256775 4.52683,-8.608548 7.69261,-14.949072 8.02589,-16.074507 0.57192,-1.931241 -4.16512,3.182375 -47.690314,51.481404 -28.87243,32.03916 -33.546799,37.33392 -33.546799,37.99922 0,0.53571 0.7819,0.3942 5.837172,-1.05644 z"
     id="path38345" />
  <path
     style="fill:#0abfbe;stroke:#7a7a7a;stroke-width:0;stroke-opacity:0"
     d="m 29.353449,141.04308 c 0,-0.44584 2.7295,-3.73588 6.041676,-7.28243 1.396352,-1.49515 15.976426,-17.65728 32.400164,-35.915819 28.456568,-31.635641 40.836601,-45.253234 41.140631,-45.253234 0.39903,0 -0.93394,2.731576 -7.24733,14.851448 -3.804444,7.303417 -11.352809,21.8491 -16.774146,32.323738 -11.720588,22.645507 -14.436704,27.612607 -16.0692,29.386547 -1.373539,1.49255 -2.422103,1.85835 -16.952539,5.91413 -12.327007,3.44076 -21.268719,5.94692 -21.927726,6.14586 -0.336341,0.10154 -0.61153,0.0249 -0.61153,-0.17024 z"
     id="path38347" />
  <path
     style="fill:#84f1ef;fill-opacity:1;stroke:#7a7a7a;stroke-width:0;stroke-opacity:0"
     d="m 30.014875,140.38986 c 0.546979,-0.99384 2.44161,-3.11927 30.945764,-34.71555 35.919658,-39.816219 47.088071,-52.08091 47.264751,-51.904225 0.20615,0.206152 -1.67351,3.89802 -17.636324,34.639709 -22.947132,44.192306 -21.023635,41.053116 -26.260574,42.857856 -1.913408,0.65939 -34.017409,9.73374 -34.436852,9.73374 -0.117334,0 -0.06188,-0.27519 0.123235,-0.61153 z"
     id="path39801" />
  <path
     style="fill:#84f1ef;fill-opacity:1;stroke:#7a7a7a;stroke-width:0;stroke-opacity:0"
     d="m 134.53664,153.27254 c -4.27882,-1.54064 -22.09922,-8.85899 -31.57491,-12.96695 -3.612563,-1.56614 -8.561179,-3.60641 -10.996924,-4.53394 -5.220643,-1.98802 -7.34143,-2.91054 -8.205756,-3.56943 -0.608796,-0.4641 -0.607329,-0.5395 0.03978,-2.04402 0.369542,-0.85917 1.850587,-3.76365 3.291212,-6.45438 4.818835,-9.0004 33.822748,-65.142 42.583288,-82.42661 4.76132,-9.394134 8.84051,-17.256665 9.06485,-17.472291 0.7375,-0.708847 0.98937,-0.246176 21.37777,39.270053 8.28013,16.048299 18.12319,35.075624 21.87349,42.282948 12.1574,23.36408 13.43601,26.20749 12.21508,27.16393 -0.59997,0.46999 -8.22439,3.67122 -28.5672,11.99439 -17.77083,7.27084 -25.31411,10.12709 -26.66191,10.09549 -0.42327,-0.01 -2.42072,-0.61256 -4.43877,-1.33919 z"
     id="path39803" />
  <path
     style="fill:#84f1ef;fill-opacity:1;stroke:#7a7a7a;stroke-width:0;stroke-opacity:0"
     d="m 242.5154,139.74678 c -17.88621,-5.20057 -30.6915,-9.18799 -32.54998,-10.13568 -1.3132,-0.66963 -3.85028,-5.36225 -21.61439,-39.978246 -3.89588,-7.59171 -9.71524,-18.835129 -12.9319,-24.985376 -3.21666,-6.150246 -5.9659,-11.575393 -6.10941,-12.055881 -0.25918,-0.867702 -0.25325,-0.86652 0.87618,0.174723 0.62542,0.576586 4.21731,4.507851 7.98199,8.736146 3.76467,4.228294 12.59174,14.056458 19.61571,21.840364 7.02397,7.783905 17.564,19.49457 23.42228,26.0237 5.85828,6.52913 13.56071,15.02066 17.11652,18.87007 12.44137,13.4687 12.16236,13.12333 10.58268,13.09965 -0.5353,-0.008 -3.41065,-0.72329 -6.38968,-1.58947 z"
     id="path39805" />
  <path
     style="fill:#84f1ef;fill-opacity:1;stroke:#7a7a7a;stroke-width:0;stroke-opacity:0"
     d="m 145.95615,256.97745 c -0.12137,-3.08294 -0.12009,-24.73856 0.003,-48.12359 l 0.22353,-42.51824 7.71808,-3.11189 c 4.24495,-1.71154 13.85086,-5.61728 21.34647,-8.67943 19.31097,-7.889 29.94804,-12.14513 30.35355,-12.14513 0.19225,0 9.63816,2.68975 20.99092,5.97722 11.35275,3.28746 22.84288,6.60658 25.53361,7.37581 2.69073,0.76923 5.01297,1.51033 5.16052,1.6469 0.14756,0.13657 -3.4682,3.77579 -8.035,8.08716 -7.28329,6.87592 -48.15221,45.58887 -78.36772,74.23357 -13.96638,13.24032 -20.8191,19.63158 -22.93513,21.39069 l -1.771,1.47228 z"
     id="path39807" />
  <path
     style="fill:#84f1ef;fill-opacity:1;stroke:#7a7a7a;stroke-width:0;stroke-opacity:0"
     d="M 120.19776,251.6633 C 113.56629,245.28659 99.101546,231.50118 88.053879,221.02906 59.979943,194.41767 25.693969,161.7176 23.466042,159.42874 c -1.027829,-1.05594 -1.735457,-1.99896 -1.572506,-2.0956 0.16295,-0.0966 4.935167,-1.52304 10.604925,-3.16977 23.834232,-6.92247 37.678144,-10.77505 39.390952,-10.96198 2.318364,-0.25302 3.741132,0.13903 11.10397,3.05973 12.566131,4.98476 44.269377,18.14017 48.835057,20.26435 l 0.96097,0.44709 -0.005,47.73063 c -0.003,26.25184 -0.1232,47.91591 -0.26723,48.14237 -0.16996,0.26724 -4.49367,-3.65747 -12.31908,-11.18226 z"
     id="path39809" />
</svg>
