<?xml version="1.0" encoding="UTF-8" standalone="no"?>
<svg
   version="1.1"
   viewBox="0 0 237.0275 269.98319"
   x="0px"
   y="0px"
   id="svg13657"
   sodipodi:docname="d20-teal.svg"
   inkscape:version="1.2 (dc2aedaf03, 2022-05-15)"
   width="237.0275"
   height="269.98318"
   xmlns:inkscape="http://www.inkscape.org/namespaces/inkscape"
   xmlns:sodipodi="http://sodipodi.sourceforge.net/DTD/sodipodi-0.dtd"
   xmlns="http://www.w3.org/2000/svg"
   xmlns:svg="http://www.w3.org/2000/svg">
  <defs
     id="defs13661" />
  <sodipodi:namedview
     id="namedview13659"
     pagecolor="#505050"
     bordercolor="#ffffff"
     borderopacity="1"
     inkscape:showpageshadow="0"
     inkscape:pageopacity="0"
     inkscape:pagecheckerboard="1"
     inkscape:deskcolor="#505050"
     showgrid="false"
     inkscape:zoom="3.0431526"
     inkscape:cx="91.352632"
     inkscape:cy="169.06809"
     inkscape:window-width="1350"
     inkscape:window-height="1230"
     inkscape:window-x="2074"
     inkscape:window-y="63"
     inkscape:window-maximized="0"
     inkscape:current-layer="svg13657" />
  <g
     transform="translate(-215.98626,-29)"
     id="g13651">
    <path
       d="m 330.5,297.11182 c -1.65,-1.01996 -20.325,-11.87438 -41.5,-24.12091 -21.175,-12.24654 -40.975,-23.71619 -44,-25.48811 -3.025,-1.77192 -10.79059,-6.31323 -17.25687,-10.09179 L 215.98626,230.5409 216.24313,162.58255 216.5,94.624197 228,88.244073 c 6.325,-3.509067 15.325,-8.559434 20,-11.223037 4.675,-2.663602 11.2,-6.317108 14.5,-8.118902 3.3,-1.801794 20.58922,-11.516871 38.42049,-21.589061 C 318.75177,37.240883 333.74005,29 334.22778,29 c 0.48774,0 11.09852,5.707174 23.57951,12.682608 12.48099,6.975435 30.11771,16.823769 39.19271,21.885188 9.075,5.061419 25.275,14.17489 36,20.252158 l 19.5,11.049578 0.25687,67.850998 0.25688,67.851 -8.75688,5.04071 c -4.81628,2.77238 -17.30687,10.01453 -27.75687,16.09365 -22.43696,13.05236 -59.19973,34.39807 -72.24132,41.94578 -5.08272,2.94158 -9.58272,5.34075 -10,5.33148 -0.41727,-0.009 -2.10868,-0.85136 -3.75868,-1.87133 z m -2.5,-30.6432 c 0,-10.76293 0.45988,-14.62646 -0.46595,-14.89798 -0.6875,-0.20163 -6.30905,-1.10429 -11.53405,-2.00592 -5.225,-0.90163 -20.75,-3.59909 -34.5,-5.99436 -13.75,-2.39527 -25.07925,-4.28674 -25.1761,-4.20326 -0.0969,0.0835 4.62814,2.91393 10.5,6.2899 5.87185,3.37598 16.3011,9.41247 23.1761,13.41443 25.55516,14.87575 37.50689,21.79732 37.75,21.86203 0.1375,0.0366 0.25,-6.47258 0.25,-14.46484 z m 19,11.01069 c 1.925,-1.18882 5.525,-3.30372 8,-4.69978 2.475,-1.39607 12.825,-7.39222 23,-13.32478 10.175,-5.93257 22.19413,-12.83022 26.70918,-15.32811 4.51504,-2.49789 8.08134,-4.66945 7.9251,-4.82569 -0.15623,-0.15624 -6.10036,0.79817 -13.20917,2.12091 -23.58904,4.38922 -55.07713,9.80215 -57.27068,9.80215 -2.12092,0 -1.15443,0.0655 -1.15443,14.83501 0,11.77447 0.27264,14.89791 1.25,14.32039 0.6875,-0.40624 2.825,-1.71128 4.75,-2.9001 z m -25,-39.94889 c 0,-0.25827 -0.85317,-1.94577 -1.89594,-3.75 C 302.46318,203.25763 297,193.70089 297,193.36447 c 0,-0.22232 -1.04933,-2.08277 -2.33185,-4.13434 -1.28251,-2.05157 -3.70523,-6.20513 -5.38382,-9.23013 -1.6786,-3.025 -4.8402,-8.65 -7.0258,-12.5 -2.18559,-3.85 -6.00814,-10.6 -8.49454,-15 -7.46339,-13.20742 -8.24104,-14.48709 -8.80783,-14.49368 -0.29911,-0.003 -4.51491,10.00618 -9.36844,22.24368 -4.85353,12.2375 -12.3713,31.17923 -16.70616,42.09274 -4.33486,10.9135 -7.88156,20.026 -7.88156,20.25 0,0.22399 1.2713,0.40726 2.82511,0.40726 1.55381,0 7.74131,0.88412 13.75,1.9647 6.00869,1.08059 22.84989,3.9992 37.42489,6.48581 14.575,2.48662 28.525,4.9282 31,5.42574 5.92799,1.19168 6,1.19953 6,0.65417 z m 55.5,-5.05964 c 14.85,-2.54371 34.425,-5.86672 43.5,-7.38446 9.075,-1.51774 16.38985,-3.17056 16.25522,-3.67293 C 436.86338,219.95124 418.00433,172.1488 414.99897,165 c -1.50294,-3.575 -4.48004,-11.10687 -6.61579,-16.73748 -2.13575,-5.63062 -4.1264,-10.24312 -4.42367,-10.25 -0.50122,-0.0116 -56.01003,96.84251 -56.82782,99.1556 -0.2112,0.59737 0.42866,0.80412 1.5,0.48468 1.02757,-0.3064 14.01831,-2.63831 28.86831,-5.18202 z M 337.80939,227.75 c 1.6259,-2.8875 14.93392,-26.2492 29.57339,-51.91489 C 382.02225,150.16942 394,129.01942 394,128.83511 394,128.6508 367.225,128.5 334.5,128.5 c -32.725,0 -59.5,0.30083 -59.5,0.66852 0,0.36768 2.7,5.24185 6,10.83148 3.3,5.58963 6,10.36024 6,10.60135 0,0.24112 1.04933,2.11695 2.33185,4.16852 1.28251,2.05157 3.69287,6.20513 5.35635,9.23013 2.96652,5.39456 11.89867,21.13367 19.29545,34 2.05524,3.575 5.89728,10.325 8.53787,15 6.82895,12.09027 11.56589,20 11.97749,20 0.19482,0 1.68449,-2.3625 3.31038,-5.25 z M 238.27844,170 c 14.90588,-37.58205 17.20391,-43.48382 17.21284,-44.20578 0.008,-0.64862 -22.39434,-14.43605 -25.21491,-15.51841 -0.96234,-0.36928 -1.29252,8.64446 -1.50463,41.0762 -0.14946,22.85211 0.01,41.234 0.35379,40.84864 0.34404,-0.38536 4.46285,-10.37565 9.15291,-22.20065 z M 439.5649,110.23157 c -0.86006,-0.86007 -26.66595,15.06297 -26.20146,16.16711 1.20495,2.86427 20.16272,51.07763 22.96294,58.3993 l 3.17362,8.29798 0.26122,-41.20342 c 0.14367,-22.66189 0.0553,-41.40933 -0.19632,-41.66097 z m -48.85906,4.62256 C 390.04263,113.9489 384.57394,107.1989 378.55321,99.854129 372.53247,92.509358 364.00629,82 359.60613,76.5 355.20598,71 351.34541,66.275 351.02709,66 c -0.31832,-0.275 -2.13986,-2.525 -4.04786,-5 -1.908,-2.475 -4.66796,-5.85 -6.13325,-7.5 -1.46529,-1.65 -3.56633,-4.125 -4.66899,-5.5 -1.10266,-1.375 -2.17351,-2.275 -2.37967,-2 -1.95543,2.608321 -12.58471,15.803611 -13.56245,16.836559 -0.69582,0.735108 -2.49326,2.985108 -3.99431,5 -1.50105,2.014893 -2.98213,3.888441 -3.29129,4.163441 -0.7921,0.704576 -35.94925,44.00632 -35.94936,44.27748 -5e-5,0.12239 25.85508,0.22252 57.45584,0.22252 53.1569,0 57.3657,-0.12315 56.25009,-1.64587 z M 275.79391,97.75 c 7.21932,-8.9375 17.44397,-21.5375 22.72145,-28 5.27749,-6.4625 9.39175,-11.75 9.14281,-11.75 -0.24894,0 -8.93637,4.773682 -19.3054,10.608182 -10.36902,5.8345 -26.61292,14.911849 -36.09755,20.171885 -9.48463,5.260037 -17.03414,9.774343 -16.77669,10.031792 0.7652,0.765207 25.97002,15.125271 26.60541,15.158031 0.32116,0.0166 6.49065,-7.28239 13.70997,-16.21989 z m 142.06843,10.09013 c 5.85071,-3.38793 11.91359,-6.81506 13.47305,-7.61584 l 2.83539,-1.455972 -4.83539,-2.701619 C 411.58863,86.151267 369.10006,62.18913 363,58.655749 c -3.35145,-1.941286 -3.43237,-1.945171 -1.90661,-0.09154 0.87636,1.064684 4.69357,5.76079 8.48269,10.43579 3.78911,4.675 7.13372,8.725 7.43245,9 0.29873,0.275 2.09489,2.525 3.99147,5 1.89658,2.475 3.72384,4.725 4.06059,5 0.33675,0.275 4.39116,5.225 9.00979,11 C 403.85306,111.23197 406.20077,114 406.79268,114 c 0.2376,0 5.21895,-2.77194 11.06966,-6.15987 z"
       fill="#000000"
       id="path13649" />
  </g>
  <path
     style="fill:#000000;fill-opacity:0;stroke:#7a7a7a;stroke-width:0;stroke-opacity:0"
     d="M 39.261931,81.071322 C 30.187811,75.960605 21.133236,70.727266 20.36394,70.148715 19.728395,69.670753 19.934408,69.504721 24.717863,66.639791 31.582885,62.528157 90.27251,29.738897 90.766915,29.738897 c 0.385255,0 -2.324257,3.406155 -21.30396,26.781437 C 50.7563,79.559331 46.511696,84.621969 45.917246,84.603843 c -0.222878,-0.0068 -3.217769,-1.59643 -6.655315,-3.532521 z"
     id="path14143" />
  <path
     style="fill:#52e6e0;fill-opacity:0;stroke:#7a7a7a;stroke-width:0;stroke-opacity:0"
     d="M 111.2271,265.96774 C 107.79659,263.95806 86.43175,251.55589 63.749679,238.40735 41.067609,225.25883 17.505682,211.56129 11.389841,207.96839 l -11.11971143,-6.53255 0.026324,-29.57459 C 0.31093173,155.59522 0.42156483,125.054 0.54230489,103.99186 L 0.76183226,65.697058 7.199503,62.12796 C 14.281093,58.20187 36.798336,45.57596 71.143328,26.273263 97.408906,11.511387 109.13455,4.9810477 114.41628,2.1733557 l 3.84016,-2.04137535 1.74615,0.88039405 c 5.81199,2.9303497 58.65866,32.3450926 93.09879,51.8192946 9.57888,5.416387 18.69228,10.568731 20.252,11.449653 l 2.83585,1.601678 0.19649,20.457072 c 0.10807,11.251391 0.26696,41.750778 0.35308,67.776418 l 0.15658,47.31935 -9.92536,5.73562 c -5.45895,3.15459 -30.40577,17.63024 -55.43738,32.16811 -46.04474,26.74189 -52.29173,30.28214 -53.43462,30.28214 -0.3485,0 -3.44041,-1.64428 -6.87092,-3.65397 z m 0.87387,-42.50655 c -0.30045,-1.18525 3.55373,-0.40189 -33.071084,-6.72176 -33.399459,-5.76331 -38.676799,-6.63953 -38.863648,-6.45267 -0.183918,0.18391 1.098663,0.97675 9.453358,5.84363 10.950105,6.3788 53.567854,31.10025 58.163364,33.73906 l 4.10759,2.35863 0.22905,-13.89489 c 0.12598,-7.64219 0.1176,-14.33459 -0.0186,-14.872 z m 16.72792,26.56573 c 2.84446,-1.76678 50.69642,-29.49186 60.01616,-34.77292 3.46725,-1.96473 6.72046,-3.92624 7.22935,-4.35892 l 0.92525,-0.78668 -1.97164,0.21072 c -1.0844,0.1159 -9.21741,1.51899 -18.07336,3.11798 -30.02223,5.42067 -48.43112,8.53108 -50.5117,8.53459 -0.82813,0.001 -1.31687,0.187 -1.5197,0.57713 -0.33974,0.65345 0.08,27.08704 0.44872,28.26016 0.12782,0.40665 0.40679,0.73937 0.61995,0.73937 0.21314,0 1.48979,-0.68464 2.83697,-1.52143 z M 106.0181,208.673 c 0.21861,-0.5697 0.0167,-0.93547 -13.24957,-23.99609 -5.614467,-9.75962 -10.662137,-18.64961 -11.217042,-19.75555 -0.554904,-1.10593 -2.026244,-3.69528 -3.269642,-5.75411 -1.243401,-2.05882 -5.63627,-9.7306 -9.761936,-17.04839 -10.188191,-18.07103 -17.878719,-31.53008 -18.527362,-32.42439 -0.29549,-0.4074 -0.703494,-0.74538 -0.906672,-0.75106 -0.599542,-0.0168 -3.21649,6.21204 -14.422905,34.32907 -18.898574,47.41674 -20.050105,50.41003 -19.461006,50.58685 0.223766,0.0672 2.181324,0.29664 4.350127,0.50994 2.168804,0.2133 9.044897,1.26871 15.280207,2.34536 48.248252,8.33099 57.492984,9.94242 63.585376,11.08346 3.795405,0.71085 7.016285,1.30764 7.157505,1.32622 0.14123,0.0186 0.34054,-0.18451 0.44292,-0.45131 z m 28.21769,-0.16208 c 2.27055,-0.52254 22.701,-4.08975 48.96239,-8.54896 25.4278,-4.31766 33.35115,-5.77925 36.57403,-6.74666 1.55644,-0.4672 1.71768,-0.59959 1.51572,-1.24454 -0.49193,-1.57092 -10.18695,-26.21643 -18.70443,-47.54816 -4.94327,-12.38025 -9.79727,-24.57977 -10.78665,-27.11005 -2.2534,-5.76285 -3.42461,-8.37946 -3.75069,-8.37946 -0.13954,0 -0.46399,0.33271 -0.72102,0.73936 -3.43762,5.4389 -41.70133,72.06398 -52.71305,91.78439 -1.92393,3.44549 -3.49806,6.51385 -3.49806,6.81858 0,0.63703 1.0371,0.71527 3.12176,0.2355 z m -14.68099,-5.6785 c 0.52767,-0.76812 10.93517,-18.91952 23.12778,-40.33646 33.09004,-58.12432 35.52111,-62.44587 35.26996,-62.697108 -0.12703,-0.127079 -21.91904,-0.269461 -48.42669,-0.316403 -46.101028,-0.08164 -70.048244,0.139422 -70.559569,0.651351 -0.13041,0.13056 1.955292,4.0492 4.634891,8.70807 2.679603,4.65888 5.625223,9.87548 6.545821,11.59245 0.920601,1.71697 2.723872,4.89624 4.007268,7.06504 1.2834,2.1688 4.918012,8.52734 8.076917,14.13008 7.698112,13.65364 28.016842,49.29607 30.909322,54.22009 2.7289,4.64557 5.09248,8.37947 5.30424,8.37947 0.0829,0 0.5824,-0.62846 1.11006,-1.39658 z m 104.3418,-73.1301 c 0.22574,-34.765841 0.0684,-48.700794 -0.54999,-48.700794 -0.47656,0 -6.47619,3.212839 -10.45219,5.597215 -4.80591,2.882061 -14.46874,9.307217 -15.1576,10.078815 -0.557,0.623915 -0.39745,1.100917 4.54865,13.598254 6.69962,16.92798 19.60367,49.93637 20.38243,52.138 0.33563,0.94885 0.69908,1.72518 0.80767,1.72518 0.10858,0 0.29805,-15.4965 0.42103,-34.43667 z M 15.457592,158.30623 c 3.402459,-8.06354 21.016363,-52.48594 23.177316,-58.453369 L 39.721643,96.851858 39.002156,96.182 C 37.538815,94.819607 19.912965,83.920863 15.813028,81.843268 l -1.693054,-0.857936 -0.336051,0.883883 c -1.180324,3.104488 -1.78844,81.283955 -0.632264,81.283955 0.143403,0 1.181073,-2.18112 2.305933,-4.84694 z M 169.67858,87.263913 c 3.13819,-0.191226 4.69579,-0.419509 5.01063,-0.734357 0.3901,-0.390092 -0.0847,-1.127699 -3.24794,-5.04624 -4.93699,-6.115724 -25.70788,-31.677164 -31.74122,-39.06193 -2.64387,-3.236081 -6.41696,-7.89408 -8.38464,-10.351107 -5.80502,-7.248697 -12.67466,-15.147039 -13.17424,-15.147039 -0.25523,0 -2.19946,2.181126 -4.32052,4.846947 -2.12105,2.665821 -5.56922,6.917169 -7.66258,9.44744 -2.09337,2.53027 -4.83391,5.931349 -6.09009,7.557951 -1.256184,1.626603 -3.706025,4.657999 -5.444094,6.736435 -7.412067,8.863585 -33.831666,41.552268 -33.831666,41.859555 0,0.31031 103.70998,0.207771 108.88636,-0.107655 z M 204.229,77.708829 c 5.96421,-3.391352 11.54641,-6.507236 12.4049,-6.924185 0.85848,-0.416953 1.56088,-0.859333 1.56088,-0.983069 0,-0.123737 -7.57849,-4.48205 -16.84109,-9.685141 -21.94444,-12.326881 -37.45738,-21.076916 -48.1493,-27.158484 -4.7489,-2.701175 -8.79657,-4.857162 -8.99481,-4.791081 -0.33194,0.110648 6.01557,8.132764 15.02443,18.988177 2.02487,2.439904 5.06589,6.173214 6.75783,8.296242 2.97697,3.735472 11.98142,14.816004 18.89379,23.249992 1.85159,2.25917 3.90618,4.658363 4.56576,5.33154 l 1.19923,1.223954 1.36718,-0.690928 c 0.75195,-0.380007 6.24699,-3.465666 12.2112,-6.857017 z M 47.377684,84.006564 c 0.419749,-0.516034 2.618985,-3.140779 4.887185,-5.832767 4.811543,-5.710525 33.998762,-41.665999 37.252599,-45.891142 1.219117,-1.583038 2.167729,-3.023833 2.108024,-3.201767 -0.101204,-0.30161 -6.074605,2.975823 -43.977536,24.129208 -21.633864,12.07372 -28.260958,15.951192 -28.259579,16.534498 7.88e-4,0.326806 1.488511,1.242662 9.3647,5.764936 11.175569,6.416675 16.709422,9.435275 17.297247,9.435275 0.3103,0 0.907611,-0.42221 1.32736,-0.938241 z"
     id="path22751" />
  <path
     style="fill:#52e6e0;fill-opacity:0;stroke:#7a7a7a;stroke-width:0;stroke-opacity:0"
     d="M 111.2271,265.96774 C 107.79659,263.95806 86.43175,251.55589 63.749679,238.40735 41.067609,225.25883 17.505682,211.56129 11.389841,207.96839 l -11.11971143,-6.53255 0.026324,-29.57459 C 0.31093173,155.59522 0.42156483,125.054 0.54230489,103.99186 L 0.76183226,65.697058 7.199503,62.12796 C 14.281093,58.20187 36.798336,45.57596 71.143328,26.273263 97.408906,11.511387 109.13455,4.9810477 114.41628,2.1733557 l 3.84016,-2.04137535 1.74615,0.88039405 c 5.81199,2.9303497 58.65866,32.3450926 93.09879,51.8192946 9.57888,5.416387 18.69228,10.568731 20.252,11.449653 l 2.83585,1.601678 0.19649,20.457072 c 0.10807,11.251391 0.26696,41.750778 0.35308,67.776418 l 0.15658,47.31935 -9.92536,5.73562 c -5.45895,3.15459 -30.40577,17.63024 -55.43738,32.16811 -46.04474,26.74189 -52.29173,30.28214 -53.43462,30.28214 -0.3485,0 -3.44041,-1.64428 -6.87092,-3.65397 z m 0.87387,-42.50655 c -0.30045,-1.18525 3.55373,-0.40189 -33.071084,-6.72176 -33.399459,-5.76331 -38.676799,-6.63953 -38.863648,-6.45267 -0.183918,0.18391 1.098663,0.97675 9.453358,5.84363 10.950105,6.3788 53.567854,31.10025 58.163364,33.73906 l 4.10759,2.35863 0.22905,-13.89489 c 0.12598,-7.64219 0.1176,-14.33459 -0.0186,-14.872 z m 16.72792,26.56573 c 2.84446,-1.76678 50.69642,-29.49186 60.01616,-34.77292 3.46725,-1.96473 6.72046,-3.92624 7.22935,-4.35892 l 0.92525,-0.78668 -1.97164,0.21072 c -1.0844,0.1159 -9.21741,1.51899 -18.07336,3.11798 -30.02223,5.42067 -48.43112,8.53108 -50.5117,8.53459 -0.82813,0.001 -1.31687,0.187 -1.5197,0.57713 -0.33974,0.65345 0.08,27.08704 0.44872,28.26016 0.12782,0.40665 0.40679,0.73937 0.61995,0.73937 0.21314,0 1.48979,-0.68464 2.83697,-1.52143 z M 106.0181,208.673 c 0.21861,-0.5697 0.0167,-0.93547 -13.24957,-23.99609 -5.614467,-9.75962 -10.662137,-18.64961 -11.217042,-19.75555 -0.554904,-1.10593 -2.026244,-3.69528 -3.269642,-5.75411 -1.243401,-2.05882 -5.63627,-9.7306 -9.761936,-17.04839 -10.188191,-18.07103 -17.878719,-31.53008 -18.527362,-32.42439 -0.29549,-0.4074 -0.703494,-0.74538 -0.906672,-0.75106 -0.599542,-0.0168 -3.21649,6.21204 -14.422905,34.32907 -18.898574,47.41674 -20.050105,50.41003 -19.461006,50.58685 0.223766,0.0672 2.181324,0.29664 4.350127,0.50994 2.168804,0.2133 9.044897,1.26871 15.280207,2.34536 48.248252,8.33099 57.492984,9.94242 63.585376,11.08346 3.795405,0.71085 7.016285,1.30764 7.157505,1.32622 0.14123,0.0186 0.34054,-0.18451 0.44292,-0.45131 z m 28.21769,-0.16208 c 2.27055,-0.52254 22.701,-4.08975 48.96239,-8.54896 25.4278,-4.31766 33.35115,-5.77925 36.57403,-6.74666 1.55644,-0.4672 1.71768,-0.59959 1.51572,-1.24454 -0.49193,-1.57092 -10.18695,-26.21643 -18.70443,-47.54816 -4.94327,-12.38025 -9.79727,-24.57977 -10.78665,-27.11005 -2.2534,-5.76285 -3.42461,-8.37946 -3.75069,-8.37946 -0.13954,0 -0.46399,0.33271 -0.72102,0.73936 -3.43762,5.4389 -41.70133,72.06398 -52.71305,91.78439 -1.92393,3.44549 -3.49806,6.51385 -3.49806,6.81858 0,0.63703 1.0371,0.71527 3.12176,0.2355 z m -14.68099,-5.6785 c 0.52767,-0.76812 10.93517,-18.91952 23.12778,-40.33646 33.09004,-58.12432 35.52111,-62.44587 35.26996,-62.697108 -0.12703,-0.127079 -21.91904,-0.269461 -48.42669,-0.316403 -46.101028,-0.08164 -70.048244,0.139422 -70.559569,0.651351 -0.13041,0.13056 1.955292,4.0492 4.634891,8.70807 2.679603,4.65888 5.625223,9.87548 6.545821,11.59245 0.920601,1.71697 2.723872,4.89624 4.007268,7.06504 1.2834,2.1688 4.918012,8.52734 8.076917,14.13008 7.698112,13.65364 28.016842,49.29607 30.909322,54.22009 2.7289,4.64557 5.09248,8.37947 5.30424,8.37947 0.0829,0 0.5824,-0.62846 1.11006,-1.39658 z m 104.3418,-73.1301 c 0.22574,-34.765841 0.0684,-48.700794 -0.54999,-48.700794 -0.47656,0 -6.47619,3.212839 -10.45219,5.597215 -4.80591,2.882061 -14.46874,9.307217 -15.1576,10.078815 -0.557,0.623915 -0.39745,1.100917 4.54865,13.598254 6.69962,16.92798 19.60367,49.93637 20.38243,52.138 0.33563,0.94885 0.69908,1.72518 0.80767,1.72518 0.10858,0 0.29805,-15.4965 0.42103,-34.43667 z M 15.457592,158.30623 c 3.402459,-8.06354 21.016363,-52.48594 23.177316,-58.453369 L 39.721643,96.851858 39.002156,96.182 C 37.538815,94.819607 19.912965,83.920863 15.813028,81.843268 l -1.693054,-0.857936 -0.336051,0.883883 c -1.180324,3.104488 -1.78844,81.283955 -0.632264,81.283955 0.143403,0 1.181073,-2.18112 2.305933,-4.84694 z M 169.67858,87.263913 c 3.13819,-0.191226 4.69579,-0.419509 5.01063,-0.734357 0.3901,-0.390092 -0.0847,-1.127699 -3.24794,-5.04624 -4.93699,-6.115724 -25.70788,-31.677164 -31.74122,-39.06193 -2.64387,-3.236081 -6.41696,-7.89408 -8.38464,-10.351107 -5.80502,-7.248697 -12.67466,-15.147039 -13.17424,-15.147039 -0.25523,0 -2.19946,2.181126 -4.32052,4.846947 -2.12105,2.665821 -5.56922,6.917169 -7.66258,9.44744 -2.09337,2.53027 -4.83391,5.931349 -6.09009,7.557951 -1.256184,1.626603 -3.706025,4.657999 -5.444094,6.736435 -7.412067,8.863585 -33.831666,41.552268 -33.831666,41.859555 0,0.31031 103.70998,0.207771 108.88636,-0.107655 z M 204.229,77.708829 c 5.96421,-3.391352 11.54641,-6.507236 12.4049,-6.924185 0.85848,-0.416953 1.56088,-0.859333 1.56088,-0.983069 0,-0.123737 -7.57849,-4.48205 -16.84109,-9.685141 -21.94444,-12.326881 -37.45738,-21.076916 -48.1493,-27.158484 -4.7489,-2.701175 -8.79657,-4.857162 -8.99481,-4.791081 -0.33194,0.110648 6.01557,8.132764 15.02443,18.988177 2.02487,2.439904 5.06589,6.173214 6.75783,8.296242 2.97697,3.735472 11.98142,14.816004 18.89379,23.249992 1.85159,2.25917 3.90618,4.658363 4.56576,5.33154 l 1.19923,1.223954 1.36718,-0.690928 c 0.75195,-0.380007 6.24699,-3.465666 12.2112,-6.857017 z M 47.377684,84.006564 c 0.419749,-0.516034 2.618985,-3.140779 4.887185,-5.832767 4.811543,-5.710525 33.998762,-41.665999 37.252599,-45.891142 1.219117,-1.583038 2.167729,-3.023833 2.108024,-3.201767 -0.101204,-0.30161 -6.074605,2.975823 -43.977536,24.129208 -21.633864,12.07372 -28.260958,15.951192 -28.259579,16.534498 7.88e-4,0.326806 1.488511,1.242662 9.3647,5.764936 11.175569,6.416675 16.709422,9.435275 17.297247,9.435275 0.3103,0 0.907611,-0.42221 1.32736,-0.938241 z"
     id="path24340" />
  <path
     style="fill:#52e6e0;fill-opacity:0;stroke:#7a7a7a;stroke-width:0;stroke-opacity:0"
     d="M 111.2271,265.96774 C 107.79659,263.95806 86.43175,251.55589 63.749679,238.40735 41.067609,225.25883 17.505682,211.56129 11.389841,207.96839 l -11.11971143,-6.53255 0.026324,-29.57459 C 0.31093173,155.59522 0.42156483,125.054 0.54230489,103.99186 L 0.76183226,65.697058 7.199503,62.12796 C 14.281093,58.20187 36.798336,45.57596 71.143328,26.273263 97.408906,11.511387 109.13455,4.9810477 114.41628,2.1733557 l 3.84016,-2.04137535 1.74615,0.88039405 c 5.81199,2.9303497 58.65866,32.3450926 93.09879,51.8192946 9.57888,5.416387 18.69228,10.568731 20.252,11.449653 l 2.83585,1.601678 0.19649,20.457072 c 0.10807,11.251391 0.26696,41.750778 0.35308,67.776418 l 0.15658,47.31935 -9.92536,5.73562 c -5.45895,3.15459 -30.40577,17.63024 -55.43738,32.16811 -46.04474,26.74189 -52.29173,30.28214 -53.43462,30.28214 -0.3485,0 -3.44041,-1.64428 -6.87092,-3.65397 z m 0.87387,-42.50655 c -0.30045,-1.18525 3.55373,-0.40189 -33.071084,-6.72176 -33.399459,-5.76331 -38.676799,-6.63953 -38.863648,-6.45267 -0.183918,0.18391 1.098663,0.97675 9.453358,5.84363 10.950105,6.3788 53.567854,31.10025 58.163364,33.73906 l 4.10759,2.35863 0.22905,-13.89489 c 0.12598,-7.64219 0.1176,-14.33459 -0.0186,-14.872 z m 16.72792,26.56573 c 2.84446,-1.76678 50.69642,-29.49186 60.01616,-34.77292 3.46725,-1.96473 6.72046,-3.92624 7.22935,-4.35892 l 0.92525,-0.78668 -1.97164,0.21072 c -1.0844,0.1159 -9.21741,1.51899 -18.07336,3.11798 -30.02223,5.42067 -48.43112,8.53108 -50.5117,8.53459 -0.82813,0.001 -1.31687,0.187 -1.5197,0.57713 -0.33974,0.65345 0.08,27.08704 0.44872,28.26016 0.12782,0.40665 0.40679,0.73937 0.61995,0.73937 0.21314,0 1.48979,-0.68464 2.83697,-1.52143 z M 106.0181,208.673 c 0.21861,-0.5697 0.0167,-0.93547 -13.24957,-23.99609 -5.614467,-9.75962 -10.662137,-18.64961 -11.217042,-19.75555 -0.554904,-1.10593 -2.026244,-3.69528 -3.269642,-5.75411 -1.243401,-2.05882 -5.63627,-9.7306 -9.761936,-17.04839 -10.188191,-18.07103 -17.878719,-31.53008 -18.527362,-32.42439 -0.29549,-0.4074 -0.703494,-0.74538 -0.906672,-0.75106 -0.599542,-0.0168 -3.21649,6.21204 -14.422905,34.32907 -18.898574,47.41674 -20.050105,50.41003 -19.461006,50.58685 0.223766,0.0672 2.181324,0.29664 4.350127,0.50994 2.168804,0.2133 9.044897,1.26871 15.280207,2.34536 48.248252,8.33099 57.492984,9.94242 63.585376,11.08346 3.795405,0.71085 7.016285,1.30764 7.157505,1.32622 0.14123,0.0186 0.34054,-0.18451 0.44292,-0.45131 z m 28.21769,-0.16208 c 2.27055,-0.52254 22.701,-4.08975 48.96239,-8.54896 25.4278,-4.31766 33.35115,-5.77925 36.57403,-6.74666 1.55644,-0.4672 1.71768,-0.59959 1.51572,-1.24454 -0.49193,-1.57092 -10.18695,-26.21643 -18.70443,-47.54816 -4.94327,-12.38025 -9.79727,-24.57977 -10.78665,-27.11005 -2.2534,-5.76285 -3.42461,-8.37946 -3.75069,-8.37946 -0.13954,0 -0.46399,0.33271 -0.72102,0.73936 -3.43762,5.4389 -41.70133,72.06398 -52.71305,91.78439 -1.92393,3.44549 -3.49806,6.51385 -3.49806,6.81858 0,0.63703 1.0371,0.71527 3.12176,0.2355 z m -14.68099,-5.6785 c 0.52767,-0.76812 10.93517,-18.91952 23.12778,-40.33646 33.09004,-58.12432 35.52111,-62.44587 35.26996,-62.697108 -0.12703,-0.127079 -21.91904,-0.269461 -48.42669,-0.316403 -46.101028,-0.08164 -70.048244,0.139422 -70.559569,0.651351 -0.13041,0.13056 1.955292,4.0492 4.634891,8.70807 2.679603,4.65888 5.625223,9.87548 6.545821,11.59245 0.920601,1.71697 2.723872,4.89624 4.007268,7.06504 1.2834,2.1688 4.918012,8.52734 8.076917,14.13008 7.698112,13.65364 28.016842,49.29607 30.909322,54.22009 2.7289,4.64557 5.09248,8.37947 5.30424,8.37947 0.0829,0 0.5824,-0.62846 1.11006,-1.39658 z m 104.3418,-73.1301 c 0.22574,-34.765841 0.0684,-48.700794 -0.54999,-48.700794 -0.47656,0 -6.47619,3.212839 -10.45219,5.597215 -4.80591,2.882061 -14.46874,9.307217 -15.1576,10.078815 -0.557,0.623915 -0.39745,1.100917 4.54865,13.598254 6.69962,16.92798 19.60367,49.93637 20.38243,52.138 0.33563,0.94885 0.69908,1.72518 0.80767,1.72518 0.10858,0 0.29805,-15.4965 0.42103,-34.43667 z M 15.457592,158.30623 c 3.402459,-8.06354 21.016363,-52.48594 23.177316,-58.453369 L 39.721643,96.851858 39.002156,96.182 C 37.538815,94.819607 19.912965,83.920863 15.813028,81.843268 l -1.693054,-0.857936 -0.336051,0.883883 c -1.180324,3.104488 -1.78844,81.283955 -0.632264,81.283955 0.143403,0 1.181073,-2.18112 2.305933,-4.84694 z M 169.67858,87.263913 c 3.13819,-0.191226 4.69579,-0.419509 5.01063,-0.734357 0.3901,-0.390092 -0.0847,-1.127699 -3.24794,-5.04624 -4.93699,-6.115724 -25.70788,-31.677164 -31.74122,-39.06193 -2.64387,-3.236081 -6.41696,-7.89408 -8.38464,-10.351107 -5.80502,-7.248697 -12.67466,-15.147039 -13.17424,-15.147039 -0.25523,0 -2.19946,2.181126 -4.32052,4.846947 -2.12105,2.665821 -5.56922,6.917169 -7.66258,9.44744 -2.09337,2.53027 -4.83391,5.931349 -6.09009,7.557951 -1.256184,1.626603 -3.706025,4.657999 -5.444094,6.736435 -7.412067,8.863585 -33.831666,41.552268 -33.831666,41.859555 0,0.31031 103.70998,0.207771 108.88636,-0.107655 z M 204.229,77.708829 c 5.96421,-3.391352 11.54641,-6.507236 12.4049,-6.924185 0.85848,-0.416953 1.56088,-0.859333 1.56088,-0.983069 0,-0.123737 -7.57849,-4.48205 -16.84109,-9.685141 -21.94444,-12.326881 -37.45738,-21.076916 -48.1493,-27.158484 -4.7489,-2.701175 -8.79657,-4.857162 -8.99481,-4.791081 -0.33194,0.110648 6.01557,8.132764 15.02443,18.988177 2.02487,2.439904 5.06589,6.173214 6.75783,8.296242 2.97697,3.735472 11.98142,14.816004 18.89379,23.249992 1.85159,2.25917 3.90618,4.658363 4.56576,5.33154 l 1.19923,1.223954 1.36718,-0.690928 c 0.75195,-0.380007 6.24699,-3.465666 12.2112,-6.857017 z M 47.377684,84.006564 c 0.419749,-0.516034 2.618985,-3.140779 4.887185,-5.832767 4.811543,-5.710525 33.998762,-41.665999 37.252599,-45.891142 1.219117,-1.583038 2.167729,-3.023833 2.108024,-3.201767 -0.101204,-0.30161 -6.074605,2.975823 -43.977536,24.129208 -21.633864,12.07372 -28.260958,15.951192 -28.259579,16.534498 7.88e-4,0.326806 1.488511,1.242662 9.3647,5.764936 11.175569,6.416675 16.709422,9.435275 17.297247,9.435275 0.3103,0 0.907611,-0.42221 1.32736,-0.938241 z"
     id="path24342" />
  <path
     style="fill:#56efe8;fill-opacity:0;stroke:#7a7a7a;stroke-width:0;stroke-opacity:0"
     d="m 115.9707,268.66608 c -1.27591,-0.69232 -5.04491,-2.85683 -8.37555,-4.81001 C 104.26451,261.90289 83.646809,249.93425 61.77804,237.25909 39.909271,224.58393 17.099375,211.33841 11.089381,207.8246 L 0.16212063,201.43584 0.33777886,137.19325 C 0.43439084,101.85983 0.59625663,71.30447 0.69748058,69.292458 L 0.88152413,65.634248 9.6417467,60.771156 C 14.459869,58.096456 22.320603,53.697338 27.110044,50.99534 31.899485,48.293343 41.437292,42.942908 48.30517,39.105486 55.173047,35.268068 70.140867,26.866007 81.566995,20.434245 92.99312,14.002483 105.89373,6.8003301 110.23503,4.4294602 l 7.89325,-4.31067204 3.37111,1.71214804 c 7.51288,3.8156999 56.34262,31.0611548 107.40302,59.9274798 l 7.42156,4.195681 0.21841,48.024473 c 0.12014,26.41347 0.21848,56.9119 0.21855,67.77431 l 1.2e-4,19.74982 -12.4049,7.1761 c -6.82269,3.94685 -31.95953,18.53067 -55.85964,32.40848 -23.90011,13.8778 -44.97377,26.04354 -46.83036,27.03498 l -3.3756,1.8026 z m -3.78908,-32.72654 c 0.0151,-7.04862 -0.0812,-12.97849 -0.21395,-13.17749 -0.33057,-0.49543 -71.311552,-12.80087 -71.684941,-12.42748 -0.09553,0.0955 0.04384,0.3162 0.309702,0.49038 0.751142,0.4921 17.124659,10.02371 45.338194,26.393 l 25.795615,14.96644 0.21396,-1.7146 c 0.11768,-0.94303 0.22632,-7.48164 0.24142,-14.53025 z m 20.95099,11.54155 c 8.07319,-4.79089 40.4332,-23.53039 53.35163,-30.89562 4.97018,-2.83366 9.32164,-5.36678 9.66991,-5.62913 1.66187,-1.25192 0.89729,-1.14919 -21.17114,2.84467 -20.45968,3.70272 -46.92063,8.17275 -48.37973,8.17275 -0.60964,0 -1.28587,0.17744 -1.50275,0.39432 -0.45216,0.45216 -0.50122,10.08059 -0.10936,21.46272 0.2257,6.55606 0.37826,7.71755 1.01364,7.71755 0.1507,0 3.35821,-1.83027 7.1278,-4.06726 z m -27.09246,-39.15642 c -0.0549,-0.35492 -2.85623,-5.45117 -6.225216,-11.32502 -7.390192,-12.88482 -17.490954,-30.61207 -19.323077,-33.91279 -0.732152,-1.31903 -2.669902,-4.69027 -4.306113,-7.49164 -1.636212,-2.80137 -7.603651,-13.30035 -13.260979,-23.33107 -11.697277,-20.73984 -13.143468,-23.16676 -13.80497,-23.16676 -0.289801,0 -1.159465,1.53587 -2.232823,3.94328 -3.192616,7.16065 -31.935372,79.61427 -31.935372,80.50144 0,0.36328 0.354979,0.50008 1.297597,0.50008 2.419634,0 9.008889,0.99958 25.97675,3.9406 41.664724,7.22172 56.900201,9.89358 59.806403,10.48831 3.65379,0.74772 4.14329,0.72984 4.0078,-0.14643 z m 37.12696,-1.45655 c 6.02216,-1.07876 23.51859,-4.10279 38.88094,-6.72008 33.32657,-5.67786 39.26849,-6.84576 39.26849,-7.71833 0,-0.73666 -7.45423,-19.83433 -18.7382,-48.00711 -3.94519,-9.84998 -8.14964,-20.4229 -9.34321,-23.49537 -3.30189,-8.49963 -4.85546,-12.02303 -5.24615,-11.89794 -0.60406,0.19342 -15.81677,26.37269 -39.85315,68.58257 -14.19225,24.92277 -17.1861,30.28996 -17.1861,30.81015 0,0.22412 0.2853,0.40748 0.634,0.40748 0.34869,0 5.56122,-0.88262 11.58338,-1.96137 z m -23.45447,-4.2 c 1.23413,-1.94606 45.36819,-79.41872 56.01906,-98.33553 l 2.49774,-4.436185 -2.85549,-0.263395 c -3.53538,-0.326106 -114.627547,-0.07537 -115.649701,0.261022 -0.406651,0.133828 -0.738202,0.410918 -0.736782,0.615758 0.0013,0.20484 1.925506,3.69958 4.27575,7.76608 2.350244,4.06651 4.973829,8.7002 5.830187,10.29709 0.856356,1.59689 2.573177,4.62829 3.815153,6.73644 1.241978,2.10815 4.552367,7.8995 7.35642,12.86967 11.843616,20.99276 34.304743,60.20139 36.095503,63.00909 1.06584,1.67111 2.03338,3.03894 2.15009,3.03961 0.11671,6.6e-4 0.65764,-0.70117 1.20207,-1.55965 z m 104.18151,-89.29884 c 0.0228,-17.437234 -0.0868,-31.748364 -0.24508,-31.998167 -0.23487,-0.3708 -0.60267,-0.306133 -2.04876,0.360202 -4.82771,2.224535 -23.75106,14.159615 -24.16636,15.241891 -0.10466,0.272734 2.06652,6.217574 4.82486,13.210774 4.26281,10.80751 15.62171,39.80141 19.91487,50.83325 l 1.2788,3.28607 0.20024,-9.6939 c 0.11013,-5.33164 0.21877,-23.8897 0.24143,-41.24012 z M 15.994851,157.03437 c 5.864773,-14.07407 23.602244,-59.255512 23.602244,-60.120379 0,-0.966376 -24.934359,-16.390348 -25.531411,-15.793299 -0.508343,0.508344 -0.80535,4.340794 -1.085819,14.010917 -0.346153,11.934801 -0.436794,64.857951 -0.114423,66.808841 0.12752,0.77171 0.324062,1.13462 0.512451,0.94623 0.168077,-0.16807 1.345709,-2.80162 2.616958,-5.85231 z M 169.3967,87.261084 c 4.61275,-0.291474 5.58919,-0.487238 5.5821,-1.119162 -0.002,-0.206579 -4.52796,-5.920837 -10.05699,-12.698348 -5.52903,-6.777511 -13.68862,-16.832873 -18.13243,-22.345248 -4.44381,-5.512376 -9.13727,-11.279422 -10.42991,-12.815658 -1.29264,-1.536235 -3.82571,-4.641568 -5.62904,-6.900738 -5.28948,-6.62653 -11.59407,-13.941751 -12.29616,-14.267235 -0.39445,-0.182869 -0.75546,-0.182869 -0.91771,0 -0.34989,0.394366 -11.49466,14.238868 -15.41611,19.150549 -1.67952,2.103618 -4.571902,5.673173 -6.427527,7.932343 -16.616288,20.229873 -34.7164,42.686398 -34.7164,43.07209 0,0.387476 102.300417,0.37937 108.440177,-0.0086 z m 33.35357,-8.687097 c 6.14494,-3.483683 12.18193,-6.88995 13.41553,-7.569486 1.2336,-0.679532 2.19477,-1.279252 2.13594,-1.332706 -0.0588,-0.05345 -13.11978,-7.417098 -29.02434,-16.363649 -15.90456,-8.946551 -32.46,-18.279268 -36.78988,-20.73937 -4.32987,-2.460102 -7.98973,-4.472912 -8.13301,-4.472912 -0.14328,0 -0.26052,0.115542 -0.26052,0.25676 0,0.141217 3.56164,4.614376 7.91475,9.940349 4.35311,5.325974 9.63198,11.827748 11.73083,14.448386 2.09884,2.620637 4.94317,6.095652 6.32072,7.722255 1.37756,1.626602 5.85083,7.110563 9.9406,12.186576 9.18657,11.401899 10.35546,12.719986 11.04784,12.457946 0.2909,-0.110097 5.5566,-3.050465 11.70154,-6.534149 z M 48.555699,82.562407 C 51.321709,79.449563 57.234893,72.248136 73.279271,52.452576 87.475329,34.93747 91.845543,29.411058 91.845543,28.974342 c 0,-0.38369 -4.218622,1.897296 -24.809798,13.414522 -9.759615,5.458829 -22.328818,12.483262 -27.93156,15.609852 -9.476889,5.288542 -17.867047,10.174928 -19.371756,11.282014 -0.608765,0.447897 -0.550622,0.529461 1.150124,1.613419 1.640081,1.045294 13.19723,7.692289 21.179091,12.18097 1.807336,1.016377 3.531552,1.852845 3.831586,1.858819 0.300038,0.006 1.49815,-1.061212 2.662469,-2.371531 z"
     id="path24344" />
  <path
     style="fill:#0abfbe;fill-opacity:1;stroke:#7a7a7a;stroke-width:0;stroke-opacity:0"
     d="m 115.9707,268.66608 c -1.27591,-0.69232 -5.04491,-2.85683 -8.37555,-4.81001 C 104.26451,261.90289 83.646809,249.93425 61.77804,237.25909 39.909271,224.58393 17.099375,211.33841 11.089381,207.8246 L 0.16212063,201.43584 0.33777886,137.19325 C 0.43439084,101.85983 0.59625663,71.30447 0.69748058,69.292458 L 0.88152413,65.634248 9.6417467,60.771156 C 14.459869,58.096456 22.320603,53.697338 27.110044,50.99534 31.899485,48.293343 41.437292,42.942908 48.30517,39.105486 55.173047,35.268068 70.140867,26.866007 81.566995,20.434245 92.99312,14.002483 105.89373,6.8003301 110.23503,4.4294602 l 7.89325,-4.31067204 3.37111,1.71214804 c 7.51288,3.8156999 56.34262,31.0611548 107.40302,59.9274798 l 7.42156,4.195681 0.21841,48.024473 c 0.12014,26.41347 0.21848,56.9119 0.21855,67.77431 l 1.2e-4,19.74982 -12.4049,7.1761 c -6.82269,3.94685 -31.95953,18.53067 -55.85964,32.40848 -23.90011,13.8778 -44.97377,26.04354 -46.83036,27.03498 l -3.3756,1.8026 z m -3.78908,-32.72654 c 0.0151,-7.04862 -0.0812,-12.97849 -0.21395,-13.17749 -0.33057,-0.49543 -71.311552,-12.80087 -71.684941,-12.42748 -0.09553,0.0955 0.04384,0.3162 0.309702,0.49038 0.751142,0.4921 17.124659,10.02371 45.338194,26.393 l 25.795615,14.96644 0.21396,-1.7146 c 0.11768,-0.94303 0.22632,-7.48164 0.24142,-14.53025 z m 20.95099,11.54155 c 8.07319,-4.79089 40.4332,-23.53039 53.35163,-30.89562 4.97018,-2.83366 9.32164,-5.36678 9.66991,-5.62913 1.66187,-1.25192 0.89729,-1.14919 -21.17114,2.84467 -20.45968,3.70272 -46.92063,8.17275 -48.37973,8.17275 -0.60964,0 -1.28587,0.17744 -1.50275,0.39432 -0.45216,0.45216 -0.50122,10.08059 -0.10936,21.46272 0.2257,6.55606 0.37826,7.71755 1.01364,7.71755 0.1507,0 3.35821,-1.83027 7.1278,-4.06726 z m -27.09246,-39.15642 c -0.0549,-0.35492 -2.85623,-5.45117 -6.225216,-11.32502 -7.390192,-12.88482 -17.490954,-30.61207 -19.323077,-33.91279 -0.732152,-1.31903 -2.669902,-4.69027 -4.306113,-7.49164 -1.636212,-2.80137 -7.603651,-13.30035 -13.260979,-23.33107 -11.697277,-20.73984 -13.143468,-23.16676 -13.80497,-23.16676 -0.289801,0 -1.159465,1.53587 -2.232823,3.94328 -3.192616,7.16065 -31.935372,79.61427 -31.935372,80.50144 0,0.36328 0.354979,0.50008 1.297597,0.50008 2.419634,0 9.008889,0.99958 25.97675,3.9406 41.664724,7.22172 56.900201,9.89358 59.806403,10.48831 3.65379,0.74772 4.14329,0.72984 4.0078,-0.14643 z m 37.12696,-1.45655 c 6.02216,-1.07876 23.51859,-4.10279 38.88094,-6.72008 33.32657,-5.67786 39.26849,-6.84576 39.26849,-7.71833 0,-0.73666 -7.45423,-19.83433 -18.7382,-48.00711 -3.94519,-9.84998 -8.14964,-20.4229 -9.34321,-23.49537 -3.30189,-8.49963 -4.85546,-12.02303 -5.24615,-11.89794 -0.60406,0.19342 -15.81677,26.37269 -39.85315,68.58257 -14.19225,24.92277 -17.1861,30.28996 -17.1861,30.81015 0,0.22412 0.2853,0.40748 0.634,0.40748 0.34869,0 5.56122,-0.88262 11.58338,-1.96137 z m -23.45447,-4.2 c 1.23413,-1.94606 45.36819,-79.41872 56.01906,-98.33553 l 2.49774,-4.436185 -2.85549,-0.263395 c -3.53538,-0.326106 -114.627547,-0.07537 -115.649701,0.261022 -0.406651,0.133828 -0.738202,0.410918 -0.736782,0.615758 0.0013,0.20484 1.925506,3.69958 4.27575,7.76608 2.350244,4.06651 4.973829,8.7002 5.830187,10.29709 0.856356,1.59689 2.573177,4.62829 3.815153,6.73644 1.241978,2.10815 4.552367,7.8995 7.35642,12.86967 11.843616,20.99276 34.304743,60.20139 36.095503,63.00909 1.06584,1.67111 2.03338,3.03894 2.15009,3.03961 0.11671,6.6e-4 0.65764,-0.70117 1.20207,-1.55965 z m 104.18151,-89.29884 c 0.0228,-17.437234 -0.0868,-31.748364 -0.24508,-31.998167 -0.23487,-0.3708 -0.60267,-0.306133 -2.04876,0.360202 -4.82771,2.224535 -23.75106,14.159615 -24.16636,15.241891 -0.10466,0.272734 2.06652,6.217574 4.82486,13.210774 4.26281,10.80751 15.62171,39.80141 19.91487,50.83325 l 1.2788,3.28607 0.20024,-9.6939 c 0.11013,-5.33164 0.21877,-23.8897 0.24143,-41.24012 z M 15.994851,157.03437 c 5.864773,-14.07407 23.602244,-59.255512 23.602244,-60.120379 0,-0.966376 -24.934359,-16.390348 -25.531411,-15.793299 -0.508343,0.508344 -0.80535,4.340794 -1.085819,14.010917 -0.346153,11.934801 -0.436794,64.857951 -0.114423,66.808841 0.12752,0.77171 0.324062,1.13462 0.512451,0.94623 0.168077,-0.16807 1.345709,-2.80162 2.616958,-5.85231 z M 169.3967,87.261084 c 4.61275,-0.291474 5.58919,-0.487238 5.5821,-1.119162 -0.002,-0.206579 -4.52796,-5.920837 -10.05699,-12.698348 -5.52903,-6.777511 -13.68862,-16.832873 -18.13243,-22.345248 -4.44381,-5.512376 -9.13727,-11.279422 -10.42991,-12.815658 -1.29264,-1.536235 -3.82571,-4.641568 -5.62904,-6.900738 -5.28948,-6.62653 -11.59407,-13.941751 -12.29616,-14.267235 -0.39445,-0.182869 -0.75546,-0.182869 -0.91771,0 -0.34989,0.394366 -11.49466,14.238868 -15.41611,19.150549 -1.67952,2.103618 -4.571902,5.673173 -6.427527,7.932343 -16.616288,20.229873 -34.7164,42.686398 -34.7164,43.07209 0,0.387476 102.300417,0.37937 108.440177,-0.0086 z m 33.35357,-8.687097 c 6.14494,-3.483683 12.18193,-6.88995 13.41553,-7.569486 1.2336,-0.679532 2.19477,-1.279252 2.13594,-1.332706 -0.0588,-0.05345 -13.11978,-7.417098 -29.02434,-16.363649 -15.90456,-8.946551 -32.46,-18.279268 -36.78988,-20.73937 -4.32987,-2.460102 -7.98973,-4.472912 -8.13301,-4.472912 -0.14328,0 -0.26052,0.115542 -0.26052,0.25676 0,0.141217 3.56164,4.614376 7.91475,9.940349 4.35311,5.325974 9.63198,11.827748 11.73083,14.448386 2.09884,2.620637 4.94317,6.095652 6.32072,7.722255 1.37756,1.626602 5.85083,7.110563 9.9406,12.186576 9.18657,11.401899 10.35546,12.719986 11.04784,12.457946 0.2909,-0.110097 5.5566,-3.050465 11.70154,-6.534149 z M 48.555699,82.562407 C 51.321709,79.449563 57.234893,72.248136 73.279271,52.452576 87.475329,34.93747 91.845543,29.411058 91.845543,28.974342 c 0,-0.38369 -4.218622,1.897296 -24.809798,13.414522 -9.759615,5.458829 -22.328818,12.483262 -27.93156,15.609852 -9.476889,5.288542 -17.867047,10.174928 -19.371756,11.282014 -0.608765,0.447897 -0.550622,0.529461 1.150124,1.613419 1.640081,1.045294 13.19723,7.692289 21.179091,12.18097 1.807336,1.016377 3.531552,1.852845 3.831586,1.858819 0.300038,0.006 1.49815,-1.061212 2.662469,-2.371531 z"
     id="path25519" />
  <path
     style="fill:#84f1ef;fill-opacity:1;stroke:#7a7a7a;stroke-width:0;stroke-opacity:0"
     d="m 116.27991,200.34422 c -2.13347,-3.4133 -19.178725,-33.16457 -32.415451,-56.57883 -4.342381,-7.68118 -8.814247,-15.51845 -9.937479,-17.41615 -1.123233,-1.89771 -2.415855,-4.19216 -2.872493,-5.09879 -0.456637,-0.90663 -2.9305,-5.26646 -5.497471,-9.68851 -5.899522,-10.16294 -6.35795,-11.05956 -5.829499,-11.40171 0.539902,-0.349555 113.931263,-0.547304 116.172113,-0.202595 l 1.73813,0.267375 -6.69423,11.82984 c -8.07448,14.26896 -29.31044,51.58651 -42.43319,74.56701 -5.25511,9.20274 -9.70283,16.7813 -9.88381,16.84124 -0.18098,0.0599 -1.23696,-1.34355 -2.34662,-3.11888 z"
     id="path29151" />
  <path
     style="fill:#84f1ef;fill-opacity:1;stroke:#7a7a7a;stroke-width:0;stroke-opacity:0"
     d="m 131.27833,208.32714 c 0,-0.60136 39.7207,-70.18127 52.85344,-92.58492 l 3.80989,-6.49944 0.71198,1.40603 c 0.39159,0.77332 1.6403,3.77201 2.77492,6.66374 1.13462,2.89174 5.86973,14.79552 10.52247,26.45284 10.2502,25.68162 19.03691,48.07508 19.03691,48.51673 0,0.6981 -8.10442,2.29125 -34.17509,6.7181 -26.69843,4.53344 -44.01185,7.53718 -50.10237,8.69235 -4.31546,0.8185 -5.43215,0.94895 -5.43215,0.63457 z"
     id="path29153" />
  <path
     style="fill:#84f1ef;fill-opacity:1;stroke:#7a7a7a;stroke-width:0;stroke-opacity:0"
     d="m 222.83705,161.83875 c -0.29728,-0.85147 -16.01981,-41.05923 -21.88524,-55.96787 -2.82828,-7.188871 -3.27236,-8.563194 -2.90863,-9.001462 0.5309,-0.639697 10.39932,-7.173764 15.01554,-9.942072 4.87864,-2.925681 10.084,-5.633139 10.33934,-5.377796 0.26865,0.268643 0.20743,62.30023 -0.0723,73.22416 -0.1316,5.14013 -0.30181,7.60047 -0.48875,7.06504 z"
     id="path29155" />
  <path
     style="fill:#84f1ef;fill-opacity:1;stroke:#7a7a7a;stroke-width:0;stroke-opacity:0"
     d="m 188.85775,82.826456 c -0.89965,-0.984358 -5.0026,-5.975071 -9.11767,-11.090473 -4.11507,-5.115402 -8.3185,-10.261904 -9.34097,-11.436673 -1.02246,-1.174768 -3.8742,-4.649783 -6.33721,-7.722255 -2.463,-3.072471 -7.80236,-9.652818 -11.86525,-14.622993 -4.06289,-4.970175 -7.33973,-9.084826 -7.28188,-9.14367 0.0579,-0.05884 2.1519,1.068228 4.65345,2.504604 7.00035,4.019559 62.46344,35.265928 67.61819,38.094212 0.57006,0.312781 0.46936,0.431983 -0.9895,1.171243 -0.89329,0.452662 -6.34614,3.511763 -12.11746,6.798 -11.10302,6.322157 -12.78262,7.237747 -13.27726,7.237747 -0.16979,0 -1.0448,-0.805385 -1.94444,-1.789742 z"
     id="path29157" />
  <path
     style="fill:#84f1ef;fill-opacity:1;stroke:#7a7a7a;stroke-width:0;stroke-opacity:0"
     d="M 62.330865,85.848473 C 75.443247,69.569345 93.920053,46.851872 96.607687,43.704677 c 0.926056,-1.084402 2.708215,-3.302496 3.960353,-4.929099 1.25213,-1.626602 4.34909,-5.4713 6.88211,-8.543771 2.53303,-3.072472 5.90882,-7.249883 7.50177,-9.283137 1.59295,-2.033253 3.02175,-3.696824 3.17512,-3.696824 0.3429,0 8.08575,9.039289 12.98699,15.16151 1.98807,2.483329 9.52959,11.786971 16.75894,20.674761 25.3002,31.104172 26.78587,32.969521 26.4925,33.262888 -0.70776,0.707756 -11.94827,0.870377 -60.95363,0.881838 l -52.205879,0.01221 z"
     id="path29159" />
  <path
     style="fill:#84f1ef;fill-opacity:1;stroke:#7a7a7a;stroke-width:0;stroke-opacity:0"
     d="M 40.569981,81.785321 C 34.451774,78.376209 23.076267,71.83793 21.174863,70.637629 c -0.753498,-0.475665 -1.241825,-0.988354 -1.08547,-1.139624 0.569455,-0.550946 8.042463,-4.929198 16.385939,-9.600123 47.006424,-26.315579 54.086529,-30.237777 54.263635,-30.060671 0.07607,0.07607 -1.371791,2.044385 -3.217466,4.374034 -5.791353,7.309965 -31.434868,38.839822 -35.75044,43.956772 -2.267707,2.68881 -4.394216,5.239619 -4.725574,5.668464 -0.331358,0.428844 -0.780797,0.779717 -0.998753,0.779717 -0.217956,0 -2.682495,-1.273896 -5.476753,-2.830877 z"
     id="path29161" />
  <path
     style="fill:#84f1ef;fill-opacity:1;stroke:#7a7a7a;stroke-width:0;stroke-opacity:0"
     d="m 13.199032,161.94828 c -0.32938,-0.32938 -0.246494,-55.26387 0.101311,-67.145965 0.320354,-10.944281 0.510594,-13.143576 1.136927,-13.143576 0.896842,0 21.557946,12.50553 23.931275,14.484864 l 1.016427,0.84769 -2.071812,5.395837 c -5.48948,14.29682 -23.437242,59.27727 -23.820278,59.69807 -0.04113,0.0452 -0.173361,-0.0164 -0.29385,-0.13692 z"
     id="path29163" />
  <path
     style="fill:#84f1ef;fill-opacity:1;stroke:#7a7a7a;stroke-width:0;stroke-opacity:0"
     d="m 97.596159,207.3316 c -6.68447,-1.2557 -57.257601,-10.07154 -69.828902,-12.17247 -2.620637,-0.43797 -6.504299,-0.96749 -8.630359,-1.17671 -3.68541,-0.36269 -3.855827,-0.41227 -3.65662,-1.06399 0.602475,-1.97103 24.54648,-62.41893 28.971997,-73.14133 3.739943,-9.06135 4.302662,-10.2553 4.763506,-10.10695 0.571644,0.18401 2.426789,3.34557 14.043726,23.93346 5.652171,10.01695 11.785689,20.80041 13.63004,23.96325 1.84435,3.16284 4.28548,7.45116 5.424729,9.52959 1.139246,2.07844 6.540054,11.54231 12.001791,21.03083 11.633723,20.21092 11.949873,20.80028 11.084503,20.66316 -0.13555,-0.0215 -3.64754,-0.67796 -7.804411,-1.45884 z"
     id="path29165" />
  <path
     style="fill:#84f1ef;fill-opacity:1;stroke:#7a7a7a;stroke-width:0;stroke-opacity:0"
     d="M 86.423535,237.07411 C 44.599717,212.807 41.501925,210.9877 41.822892,210.88072 c 0.461881,-0.15397 68.501168,11.47482 69.656898,11.90525 0.32027,0.11928 0.40219,3.10509 0.37188,13.55401 -0.0214,7.37057 -0.13229,13.81135 -0.24646,14.31285 l -0.20757,0.91181 z"
     id="path29167" />
  <path
     style="fill:#84f1ef;fill-opacity:1;stroke:#7a7a7a;stroke-width:0;stroke-opacity:0"
     d="m 125.80871,250.8141 c -0.37594,-0.60829 -0.79772,-13.57736 -0.69749,-21.4467 l 0.0879,-6.90073 2.24448,-0.24787 c 3.18627,-0.35187 21.65056,-3.45673 37.84553,-6.3639 19.18984,-3.44478 27.68254,-4.94138 29.41029,-5.18272 l 1.47873,-0.20656 -1.60029,1.0144 c -0.88016,0.55792 -5.32784,3.13298 -9.88375,5.72235 -11.06544,6.28909 -53.47475,30.86922 -55.56229,32.2035 -2.70797,1.73084 -3.03743,1.87045 -3.3231,1.40823 z"
     id="path29169" />
</svg>
