<?xml version="1.0" encoding="UTF-8" standalone="no"?>
<svg
   version="1.1"
   viewBox="0 0 273.25137 286.90815"
   x="0px"
   y="0px"
   id="svg34808"
   sodipodi:docname="d4-teal.svg"
   inkscape:version="1.2 (dc2aedaf03, 2022-05-15)"
   width="273.25137"
   height="286.90814"
   xmlns:inkscape="http://www.inkscape.org/namespaces/inkscape"
   xmlns:sodipodi="http://sodipodi.sourceforge.net/DTD/sodipodi-0.dtd"
   xmlns="http://www.w3.org/2000/svg"
   xmlns:svg="http://www.w3.org/2000/svg">
  <defs
     id="defs34812" />
  <sodipodi:namedview
     id="namedview34810"
     pagecolor="#505050"
     bordercolor="#ffffff"
     borderopacity="1"
     inkscape:showpageshadow="0"
     inkscape:pageopacity="0"
     inkscape:pagecheckerboard="1"
     inkscape:deskcolor="#505050"
     showgrid="false"
     inkscape:zoom="2.8636344"
     inkscape:cx="112.09531"
     inkscape:cy="179.66679"
     inkscape:window-width="1350"
     inkscape:window-height="1230"
     inkscape:window-x="1698"
     inkscape:window-y="61"
     inkscape:window-maximized="0"
     inkscape:current-layer="svg34808" />
  <g
     transform="translate(-197.71222,-356.02657)"
     id="g34802">
    <path
       d="m 326.93145,637.68443 c -3.61271,-2.85144 -11.93771,-9.35226 -18.5,-14.44628 -6.5623,-5.09402 -14.18145,-11.01229 -16.93145,-13.15171 -9.04173,-7.03422 -23.85243,-18.51502 -32.5,-25.193 -4.675,-3.61021 -15.025,-11.64204 -23,-17.84851 -7.975,-6.20646 -15.77637,-12.24308 -17.33637,-13.4147 -1.56,-1.17163 -3.36,-2.59271 -4,-3.15796 -0.64,-0.56526 -4.86978,-3.87907 -9.39951,-7.36403 -5.24587,-4.03592 -7.96872,-6.76441 -7.5,-7.51553 0.71808,-1.15073 6.20188,-8.40005 41.29699,-54.59271 9.40197,-12.375 26.28849,-34.65 37.52561,-49.5 11.23712,-14.85 26.78258,-35.325 34.54547,-45.5 7.7629,-10.175 15.97138,-21.07553 18.24108,-24.2234 2.2697,-3.14787 4.42846,-5.73537 4.79724,-5.75 0.36878,-0.0146 4.50451,5.0359 9.19052,11.2234 4.68601,6.1875 10.25414,13.5 12.37362,16.25 2.11949,2.75 9.44359,12.425 16.27578,21.5 6.8322,9.075 12.67052,16.725 12.97405,17 0.30354,0.275 3.91052,5 8.01552,10.5 4.105,5.5 7.69904,10.225 7.98676,10.5 0.28771,0.275 3.82103,4.92631 7.85181,10.33624 4.03078,5.40994 7.93395,10.58494 8.67371,11.5 0.73976,0.91507 5.0478,6.61376 9.57342,12.66376 4.52562,6.05 9.28951,12.35 10.58642,14 1.29692,1.65 2.70668,3.45 3.13281,4 1.39897,1.80564 18.64983,24.68351 20.63986,27.37232 1.06964,1.44522 3.65714,4.71513 5.75,7.26646 2.09287,2.55133 3.78875,5.25133 3.76862,6 -0.0201,0.74867 -2.99437,3.61122 -6.60945,6.36122 -3.61508,2.75 -12.93611,9.96624 -20.71341,16.03608 -22.24939,17.36468 -51.03554,39.72238 -54.67347,42.46392 -1.82457,1.375 -8.97609,6.90958 -15.89224,12.29906 -6.91616,5.38949 -13.92484,10.84916 -15.57484,12.1326 -1.65,1.28344 -7.40144,5.76136 -12.78097,9.95093 -5.37954,4.18958 -10.10454,7.5879 -10.5,7.55184 -0.39547,-0.0361 -3.67488,-2.39857 -7.28758,-5.25 z M 327.7579,444.4 327.5,384.64544 l -2.77917,4.19991 c -1.52854,2.30995 -3.41627,4.97723 -4.19495,5.92728 -1.98787,2.42536 -10.8671,14.03173 -25.03744,32.72737 -6.66995,8.8 -15.72112,20.725 -20.11371,26.5 -4.39259,5.775 -14.28738,18.825 -21.98843,29 -7.70104,10.175 -19.30909,25.44478 -25.79565,33.93285 -6.48657,8.48807 -11.99392,15.95449 -12.23857,16.59204 -0.24466,0.63755 3.89775,4.49276 9.20534,8.56715 5.30759,4.07438 11.74096,9.06578 14.29637,11.092 2.55542,2.02622 23.54621,18.34534 46.64621,36.26472 l 42,32.58068 0.2579,-58.93745 c 0.14184,-32.41559 0.14184,-85.82699 0,-118.69199 z M 357.5,609.46962 c 8.8,-6.86739 23.38688,-18.21995 32.41529,-25.2279 16.50097,-12.80822 49.27673,-38.3165 52.09777,-40.54596 0.83218,-0.65767 3.86968,-2.97573 6.75,-5.15125 C 451.64338,536.369 454,534.46004 454,534.30239 c 0,-0.15765 -4.18765,-5.80268 -9.3059,-12.54451 C 439.57586,515.01604 429.11508,501.175 421.44794,491 413.78079,480.825 406.9641,471.825 406.29973,471 404.28645,468.49993 359.35149,409.30893 350.12248,397 L 341.5,385.5 341.25102,428 C 340.65795,529.23355 340.53791,621.99854 341,621.97801 c 0.275,-0.0122 7.7,-5.64099 16.5,-12.50839 z"
       fill="#000000"
       id="path34800" />
  </g>
  <path
     style="fill:#0abfbe;fill-opacity:1;stroke:#7a7a7a;stroke-width:0;stroke-opacity:0"
     d="m 134.26993,285.23193 c -0.96032,-0.70112 -8.42461,-6.47998 -16.58731,-12.84192 -8.1627,-6.36194 -32.048439,-24.90422 -53.079406,-41.20508 -36.471652,-28.26874 -41.501725,-32.18 -54.825434,-42.63089 -6.3937166,-5.01512 -9.42857778,-7.7804 -9.42857778,-8.59106 0,-0.29551 1.28701188,-2.2509 2.86002638,-4.34532 C 6.2608684,171.55451 51.643026,111.70698 94.805519,54.825436 109.23383,35.811137 124.36967,15.823796 128.44071,10.409121 c 4.07105,-5.4146746 7.55263,-9.93802218 7.73687,-10.05188357 0.51916,-0.32086299 4.83736,5.08970627 20.06022,25.13484557 23.61721,31.098637 36.50275,48.027408 46.64842,61.285755 2.42505,3.16905 12.17846,16.036322 21.67426,28.593942 36.65362,48.47223 40.64945,53.73661 43.84836,57.76884 3.87129,4.87976 4.85126,6.58393 4.33777,7.5434 -0.65739,1.22834 -4.6944,4.43771 -42.44487,33.74306 -20.74287,16.10251 -48.90128,37.96478 -62.57425,48.58282 -25.94565,20.14867 -30.4243,23.51982 -31.22758,23.50545 -0.26617,-0.005 -1.26966,-0.5823 -2.22998,-1.28342 z m -4.11455,-137.86675 c 0,-47.631777 -0.0957,-93.899694 -0.21256,-102.817592 l -0.21257,-16.214358 -2.26985,3.456498 c -1.24841,1.901075 -3.90639,5.58325 -5.90662,8.182607 C 115.79907,47.450769 95.755487,73.79974 69.612104,108.25404 56.35023,125.73183 40.60491,146.4747 34.622498,154.34931 22.613211,170.15706 17.946367,176.45943 17.619587,177.311 c -0.307025,0.8001 1.989729,3.17772 6.807442,7.04712 3.424006,2.75004 36.36961,28.3635 92.207971,71.68682 l 13.09525,10.16022 0.21257,-16.11837 c 0.11691,-8.86511 0.21256,-55.08983 0.21256,-102.72161 z m 19.7052,113.94837 c 3.33309,-2.534 24.1316,-18.67227 46.21892,-35.86283 22.08731,-17.19056 44.54252,-34.6423 49.90046,-38.78165 5.35793,-4.13935 9.90495,-7.78631 10.10448,-8.10435 0.29562,-0.47121 -0.86943,-2.21664 -6.29342,-9.42858 -11.85896,-15.7681 -39.33797,-52.04169 -53.52831,-70.659881 -12.74844,-16.726381 -45.92046,-60.527754 -50.31428,-66.436553 -1.03545,-1.392461 -1.97866,-2.531748 -2.09604,-2.531748 -0.49792,0 -1.35093,227.733212 -0.87407,233.357302 0.14249,1.68055 0.38576,3.05555 0.54059,3.05555 0.15483,0 3.00858,-2.07327 6.34167,-4.60726 z"
     id="path35294" />
  <path
     style="fill:#84f1ef;stroke:#7a7a7a;stroke-width:0;stroke-opacity:0"
     d="M 117.85722,256.49991 C 24.786669,184.23415 17.7922,178.71879 17.813727,177.61252 c 0.0074,-0.37995 4.939256,-6.963 25.669152,-34.26322 C 54.639627,128.65644 69.487224,109.09214 76.477541,99.873085 99.461637,69.56092 114.59144,49.682793 119.40277,43.476222 c 2.60553,-3.361114 5.9302,-7.872584 7.38816,-10.025489 l 2.65082,-3.914375 0.23119,18.581051 c 0.28145,22.620669 0.2195,183.412581 -0.0783,203.162091 l -0.21362,14.16822 z"
     id="path35296" />
  <path
     style="fill:#84f1ef;stroke:#7a7a7a;stroke-width:0;stroke-opacity:0"
     d="m 143.32058,263.56702 c -0.26238,-2.07427 0.13802,-164.216931 0.51499,-208.545814 l 0.21215,-24.947104 5.5873,7.481247 c 7.40532,9.915519 31.60525,41.86802 50.10698,66.159011 27.48774,36.08875 55.80791,73.61946 56.07244,74.3088 0.0927,0.24149 -1.70215,1.86576 -4.11867,3.72731 -2.3556,1.81463 -20.75641,16.11316 -40.89071,31.77451 -45.02612,35.02333 -63.86706,49.63398 -65.77148,51.00402 l -1.45858,1.04931 z"
     id="path35298" />
</svg>
