<?xml version="1.0" encoding="UTF-8" standalone="no"?>
<svg
   version="1.1"
   viewBox="0 0 286.49475 286"
   x="0px"
   y="0px"
   id="svg40922"
   sodipodi:docname="d8-teal.svg"
   inkscape:version="1.2 (dc2aedaf03, 2022-05-15)"
   width="286.49475"
   height="286"
   xmlns:inkscape="http://www.inkscape.org/namespaces/inkscape"
   xmlns:sodipodi="http://sodipodi.sourceforge.net/DTD/sodipodi-0.dtd"
   xmlns="http://www.w3.org/2000/svg"
   xmlns:svg="http://www.w3.org/2000/svg">
  <defs
     id="defs40926" />
  <sodipodi:namedview
     id="namedview40924"
     pagecolor="#505050"
     bordercolor="#ffffff"
     borderopacity="1"
     inkscape:showpageshadow="0"
     inkscape:pageopacity="0"
     inkscape:pagecheckerboard="1"
     inkscape:deskcolor="#505050"
     showgrid="false"
     inkscape:zoom="2.8727273"
     inkscape:cx="119.05063"
     inkscape:cy="179.0981"
     inkscape:window-width="1350"
     inkscape:window-height="1230"
     inkscape:window-x="1992"
     inkscape:window-y="102"
     inkscape:window-maximized="0"
     inkscape:current-layer="svg40922" />
  <g
     transform="translate(-513.50524,-21)"
     id="g40916">
    <path
       d="M 585,235.5 513.50524,164 585,92.5 C 624.32212,53.175 656.94712,21 657.50002,21 659.01146,21 800,162.30024 800,163.81502 800,165.21163 658.71001,307 657.31831,307 656.86535,307 624.32212,274.825 585,235.5 Z m 66,21.69245 V 231.3849 l -3.96858,-1.75094 c -2.18272,-0.96301 -10.84522,-5.04528 -19.25,-9.07172 -17.2242,-8.2515 -28.06801,-13.35938 -44.78142,-21.09388 -6.325,-2.92703 -15.2268,-7.15484 -19.78177,-9.39512 C 558.66325,187.83296 554.61499,186 554.22209,186 553.82919,186 575.32925,207.825 602,234.5 628.67075,261.175 650.60651,283 650.74613,283 650.88576,283 651,271.3866 651,257.19245 Z m 110,-71.3786 c 0,-0.26599 -5.0625,1.96388 -11.25,4.95526 -6.1875,2.99139 -17.775,8.49339 -25.75,12.22667 -7.975,3.73328 -20.35,9.56763 -27.5,12.96524 -7.15,3.3976 -17.3875,8.25217 -22.75,10.78792 L 664,231.3594 v 25.94329 25.94329 l 48.5,-48.47426 C 739.175,208.11088 761,186.07984 761,185.81385 Z M 651,130.76443 V 44.528857 L 637.97206,57.514428 C 589.04842,106.27896 534.46173,161.15058 534.26138,161.76648 c -0.13125,0.40343 2.56875,2.03381 6,3.62306 3.43124,1.58925 10.96362,5.12493 16.73862,7.85707 5.775,2.73214 13.875,6.54263 18,8.46775 4.125,1.92513 12.225,5.75323 18,8.50689 5.775,2.75366 16.125,7.6131 23,10.79875 6.875,3.18564 17.225,8.05619 23,10.82344 5.775,2.76724 10.8375,5.05953 11.25,5.09396 0.4125,0.0344 0.75,-38.74341 0.75,-86.17297 z M 680.59859,209.5 c 8.61721,-4.125 15.79653,-7.5 15.95404,-7.5 0.15751,0 5.61011,-2.52812 12.11688,-5.61804 6.50677,-3.08993 15.88049,-7.52924 20.83049,-9.86514 4.95,-2.3359 12.825,-6.06366 17.5,-8.28391 4.675,-2.22025 14.2375,-6.74878 21.25,-10.0634 7.0125,-3.31462 12.75,-6.17268 12.75,-6.35125 C 781,161.63969 754.675,135.17147 722.5,103 L 664,44.50641 v 86.2468 C 664,178.18894 664.20946,217 664.46546,217 c 0.25601,0 7.51591,-3.375 16.13313,-7.5 z"
       fill="#000000"
       id="path40914" />
  </g>
  <path
     style="fill:#84f1ef;stroke:#7a7a7a;stroke-width:0;stroke-opacity:0"
     d="M 116.19999,258.67046 C 101.20693,243.84982 69.001232,211.77091 44.631779,187.38401 L 0.32368339,143.04418 67.258772,76.221458 C 104.07307,39.468961 136.41379,7.3166709 139.12703,4.7719271 l 4.93317,-4.6268073 9.16452,8.8578539 C 183.26504,38.03807 286.13924,141.62316 286.13924,142.83596 c 0,0.64171 -26.74566,27.84202 -72.40506,73.63587 -46.49861,46.63553 -69.2666,69.14526 -69.93856,69.14526 -0.18453,0 -12.60256,-12.12598 -27.59563,-26.94663 z m 67.60231,-29.35875 c 52.87168,-53.006 63.90773,-64.21112 63.41847,-64.39008 -0.59086,-0.21612 -2.07531,0.4317 -14.34102,6.25848 -5.64795,2.68304 -21.78244,10.31704 -35.85443,16.96444 -14.072,6.6474 -30.32398,14.32992 -36.11551,17.07226 l -10.53006,4.98608 v 26.0457 c 0,14.32514 0.11779,26.04571 0.26176,26.04571 0.14397,0 15.06632,-14.84216 33.16079,-32.98259 z M 137.5,236.07722 v -25.86899 l -4.09019,-1.86009 c -2.2496,-1.02306 -12.31408,-5.76878 -22.36551,-10.54605 -10.05142,-4.77728 -25.246041,-11.93885 -33.765819,-15.91459 -8.519778,-3.97575 -19.328323,-9.06828 -24.018987,-11.31673 -10.289254,-4.93212 -12.238785,-5.80561 -12.461135,-5.58326 -0.09382,0.0938 1.065946,1.53874 2.577245,3.21095 4.505276,4.98497 93.216726,93.75514 93.689266,93.75129 0.34417,-0.003 0.43513,-5.4113 0.43513,-25.87253 z m -0.0751,-126.94747 0.099,-85.806965 -58.492994,58.52244 C 46.859819,114.03257 20.537975,140.54286 20.537975,140.757 c 0,0.72322 2.916431,2.25861 15.838607,8.33843 7.083861,3.33292 22.670095,10.68164 34.636076,16.33049 11.965981,5.64885 25.045886,11.80118 29.066452,13.67185 4.02057,1.87067 12.87105,6.02845 19.66773,9.23952 16.66887,7.87514 16.78957,7.9255 17.2291,7.18728 0.23135,-0.38857 0.38357,-29.67759 0.44901,-86.39482 z m 28.4453,80.15051 c 7.46678,-3.53423 15.14241,-7.13097 17.05697,-7.99276 5.82671,-2.62275 66.94821,-31.55505 76.15531,-36.04867 4.74301,-2.31487 8.57845,-4.3445 8.52319,-4.51029 C 267.43533,140.2174 151.03799,23.496835 150.69865,23.496835 c -0.36758,0 -0.44645,145.246835 -0.0879,161.959705 0.22852,10.65328 0.23356,10.70849 0.95667,10.47965 0.39981,-0.12653 6.83611,-3.1217 14.30288,-6.65593 z"
     id="path42860" />
  <path
     style="fill:#84f1ef;stroke:#7a7a7a;stroke-width:0;stroke-opacity:0"
     d="m 126.01266,190.87576 c -5.26503,-2.49513 -17.01345,-8.02322 -26.107597,-12.28463 -41.399185,-19.39919 -75.505315,-35.55471 -77.017405,-36.4819 -0.909414,-0.55763 -1.653481,-1.1708 -1.653481,-1.36258 0,-0.68741 115.707833,-116.899928 116.032603,-116.538703 0.11836,0.131646 -0.30539,170.892183 -0.42475,171.163893 -0.18037,0.41058 -2.56367,-0.5789 -10.82937,-4.49608 z"
     id="path42862" />
  <path
     style="fill:#0abfbe;fill-opacity:1;stroke:#7a7a7a;stroke-width:0;stroke-opacity:0"
     d="M 115.71256,257.80312 C 100.41322,242.69689 68.265809,210.69189 44.273876,186.68091 L 0.65218433,143.02457 68.66444,75.167344 C 106.07118,37.845876 138.35677,5.7573057 140.4102,3.8594134 l 3.73351,-3.45071336 4.94555,4.84635156 C 197.85229,53.039978 285.79114,141.56419 285.79114,142.8669 c 0,1.33294 -140.64122,142.40209 -141.97011,142.40209 -0.16031,0 -12.80912,-12.35964 -28.10847,-27.46587 z m 76.89336,-37.01989 c 47.87958,-48.04738 55.35032,-55.71935 54.43033,-55.89652 -0.34959,-0.0673 -1.13233,0.0768 -1.73942,0.32037 -1.23608,0.49585 -47.2099,22.18091 -81.50462,38.44433 l -13.23841,6.27799 -0.0892,26.18245 c -0.0704,20.66835 0.002,26.18245 0.34301,26.18245 0.23773,0 19.04698,-18.67998 41.79834,-41.51107 z m -55.11256,15.1424 -0.007,-26.02057 -2.69114,-1.18625 c -1.48012,-0.65245 -10.28845,-4.78188 -19.57405,-9.17653 -9.2856,-4.39465 -24.480223,-11.55886 -33.765824,-15.92047 -9.285601,-4.3616 -21.582278,-10.15558 -27.325949,-12.8755 -11.532546,-5.46127 -12.990913,-6.09928 -13.280265,-5.80993 -0.108671,0.10867 0.164209,0.7157 0.606399,1.34896 1.787291,2.55955 94.807369,95.61409 95.608989,95.6444 0.34443,0.013 0.43374,-5.40754 0.42849,-26.00411 z m 37.12711,-50.51513 c 66.83824,-31.32321 93.0694,-43.90899 93.0694,-44.65495 0,-0.41078 -104.67178,-105.716362 -111.8473,-112.524541 -2.64339,-2.508068 -4.95869,-4.61393 -5.1451,-4.679693 -0.41711,-0.147148 -0.27956,171.523534 0.13795,172.168624 0.15489,0.23932 0.41131,0.43512 0.56983,0.43512 0.15852,0 10.60537,-4.83505 23.21522,-10.74456 z m -37.33041,1.60691 c 0.29882,-12.11642 0.43946,-163.868718 0.15188,-163.868695 -0.49063,4e-5 -116.735189,116.971145 -116.829053,117.559245 -0.118896,0.74494 1.92566,2.02887 7.235214,4.54355 29.387955,13.91852 103.365079,48.72733 106.344939,50.03898 0.57437,0.25283 1.45739,0.47246 1.96228,0.48808 l 0.91797,0.0284 0.21677,-8.78955 z"
     id="path44316" />
  <path
     style="fill:#84f1ef;fill-opacity:1;stroke:#7a7a7a;stroke-width:0;stroke-opacity:0"
     d="m 150.9575,186.63012 c -0.12553,-5.00416 -0.22625,-43.63882 -0.22384,-85.8548 l 0.004,-76.756333 58.12782,58.165052 c 31.97029,31.990781 58.12781,58.322101 58.12781,58.514051 0,0.34068 -5.7675,3.20799 -19.49367,9.6913 -3.73339,1.76339 -18.61472,8.80924 -33.06962,15.65743 -14.45491,6.84819 -27.76978,13.11589 -29.58861,13.92821 -1.81883,0.81234 -9.18117,4.25823 -16.36076,7.65754 -7.17959,3.39931 -14.00813,6.61155 -15.17454,7.1383 l -2.12075,0.95772 z"
     id="path44318" />
  <path
     style="fill:#84f1ef;fill-opacity:1;stroke:#7a7a7a;stroke-width:0;stroke-opacity:0"
     d="M 89.163466,213.74661 C 62.865557,187.39203 41.428197,165.75007 41.524889,165.65338 c 0.09669,-0.0967 5.301847,2.27007 11.567009,5.25947 6.265163,2.9894 17.128946,8.10893 24.141741,11.37674 7.012795,3.26781 20.504494,9.63071 29.981551,14.13978 9.47706,4.50908 20.05063,9.49319 23.49684,11.0758 l 6.26582,2.87749 0.17405,11.54569 c 0.0957,6.35014 0.0957,17.88845 0,25.64069 l -0.17405,14.095 z"
     id="path44320" />
  <path
     style="fill:#84f1ef;fill-opacity:1;stroke:#7a7a7a;stroke-width:0;stroke-opacity:0"
     d="m 150.82413,236.07579 0.0778,-25.69637 13.22785,-6.27052 c 7.27531,-3.44879 23.95807,-11.33493 37.07278,-17.52476 13.11472,-6.18982 26.03798,-12.304 28.71836,-13.58706 10.50875,-5.03039 15.95764,-7.49326 16.31481,-7.37421 0.20533,0.0684 -21.19578,21.73003 -47.55801,48.13686 l -47.93133,48.01242 z"
     id="path44322" />
</svg>
