<?xml version="1.0" encoding="UTF-8" standalone="no"?>
<svg
   version="1.1"
   viewBox="0 0 254.78891 292.4661"
   x="0px"
   y="0px"
   id="svg30291"
   sodipodi:docname="d6-red.svg"
   inkscape:version="1.2 (dc2aedaf03, 2022-05-15)"
   width="254.78891"
   height="292.46609"
   xmlns:inkscape="http://www.inkscape.org/namespaces/inkscape"
   xmlns:sodipodi="http://sodipodi.sourceforge.net/DTD/sodipodi-0.dtd"
   xmlns="http://www.w3.org/2000/svg"
   xmlns:svg="http://www.w3.org/2000/svg">
  <defs
     id="defs30295" />
  <sodipodi:namedview
     id="namedview30293"
     pagecolor="#505050"
     bordercolor="#ffffff"
     borderopacity="1"
     inkscape:showpageshadow="0"
     inkscape:pageopacity="0"
     inkscape:pagecheckerboard="1"
     inkscape:deskcolor="#505050"
     showgrid="false"
     inkscape:zoom="2.8092146"
     inkscape:cx="102.87573"
     inkscape:cy="183.50325"
     inkscape:window-width="1350"
     inkscape:window-height="1230"
     inkscape:window-x="1934"
     inkscape:window-y="37"
     inkscape:window-maximized="0"
     inkscape:current-layer="svg30291" />
  <g
     transform="translate(-529.98698,-686.69437)"
     id="g30285">
    <path
       d="M 646.23145,973.5653 C 635.74056,967.36866 611.03084,953.14187 577.5,933.99267 c -1.65,-0.9423 -5.3823,-3.12614 -8.29401,-4.85297 -2.9117,-1.72684 -5.44977,-3.1397 -5.64016,-3.1397 -0.19039,0 -6.58309,-3.60901 -14.20599,-8.02002 C 541.73693,913.56897 534.375,909.32236 533,908.54308 l -2.5,-1.41687 -0.25651,-72.48801 -0.25651,-72.488 7.25651,-4.44337 c 3.99108,-2.44386 16.25651,-9.7416 27.25651,-16.21722 11,-6.47562 26.66367,-15.7599 34.80814,-20.63173 8.14448,-4.87183 15.30544,-8.59197 15.75,-8.85788 0.49936,-0.29869 0.65767,-0.53758 1.10987,-0.85066 0.5787,-0.40065 0.83644,-0.5893 1.28627,-0.85065 0.46964,-0.27287 6.71396,-4.05536 14.2833,-8.64685 7.56933,-4.59149 16.4679,-9.83526 19.77459,-11.65282 l 6.01217,-3.30465 20.98783,12.29837 c 11.54331,6.7641 29.98783,17.68264 40.98783,24.26342 11,6.58078 27.2,16.23567 36,21.4553 26.89733,15.95388 27.97642,16.61927 28.73849,17.72095 0.40616,0.58717 0.63116,33.23178 0.5,72.54357 l -0.23849,71.47597 -6.29071,3.80366 c -3.4599,2.092 -23.2599,13.55106 -44,25.46457 -20.74011,11.91351 -43.03966,24.72518 -49.55457,28.47037 -6.5149,3.7452 -11.9814,6.80945 -12.14779,6.80945 -0.16639,0 -3.16101,1.72141 -6.65473,3.82535 -3.49371,2.10395 -7.0272,4.04583 -7.8522,4.3153 -0.825,0.26947 -6.12085,-2.23943 -11.76855,-5.57535 z M 651,900.04411 v -60.95589 l -7.25,-4.17787 c -3.9875,-2.29783 -12.425,-7.20236 -18.75,-10.89895 -6.325,-3.69659 -13.525,-7.85088 -16,-9.23175 -2.475,-1.38088 -11.475,-6.54124 -20,-11.46748 -8.525,-4.92624 -16.175,-9.26562 -17,-9.64308 -0.825,-0.37746 -2.85,-1.5128 -4.5,-2.52298 C 558.71572,785.76808 544.80403,778 543.95693,778 c -0.62194,0 -0.87945,22.0037 -0.71462,61.06226 l 0.25769,61.06226 6.5,3.50929 c 3.575,1.93011 7.46803,4.13333 8.65118,4.89604 2.24252,1.44564 23.8148,13.88137 33.34882,19.22453 3.025,1.69531 17.2,9.84242 31.5,18.1047 14.3,8.26228 26.3375,15.04901 26.75,15.08163 0.4125,0.0326 0.75,-27.37086 0.75,-60.8966 z m 23.75868,55.34913 c 5.35773,-3.08371 10.19132,-5.94391 10.74132,-6.35599 0.55,-0.41208 3.475,-2.1032 6.5,-3.75804 5.27857,-2.88768 27.71765,-15.74122 35,-20.04868 1.925,-1.13863 5.8064,-3.3438 8.62532,-4.90038 2.81893,-1.55658 12.14447,-6.88015 20.72343,-11.83015 l 15.59809,-9 0.0266,-61.21778 c 0.0253,-58.25517 -0.0594,-61.18304 -1.74961,-60.5 -0.97691,0.39478 -6.03941,3.24886 -11.25,6.3424 -5.2106,3.09354 -17.34881,10.11601 -26.97381,15.60549 -9.625,5.48948 -22.225,12.70315 -28,16.03038 -5.775,3.32722 -12.7867,7.32975 -15.58156,8.8945 -2.79485,1.56476 -9.42288,5.32001 -14.72895,8.34501 l -9.64739,5.5 -0.0211,61.25 c -0.0116,33.6875 0.20786,61.25 0.48763,61.25 0.27978,0 4.89228,-2.52304 10.25,-5.60676 z m -4.42739,-135.04946 c 7.24279,-4.21093 14.51871,-8.41774 16.16871,-9.34848 1.65,-0.93074 7.725,-4.39355 13.5,-7.69512 5.775,-3.30158 22.2,-12.66055 36.5,-20.79771 14.3,-8.13717 27.33936,-15.76769 28.07287,-16.44044 1.07831,-0.98899 -2.14996,-2.41908 -13.73921,-9.25292 -7.88351,-4.64868 -15.79165,-9.31996 -17.57364,-10.38063 -1.78198,-1.06066 -8.53198,-5.04222 -15,-8.8479 C 711.79201,733.7749 699.975,726.73214 692,721.93 671.35774,709.50029 658.18133,702 656.98724,702 c -0.56657,0 -2.70797,1.07437 -4.75868,2.3875 -2.05071,1.31312 -11.60356,7.00172 -21.22856,12.64133 -9.625,5.63962 -21.775,12.81953 -27,15.95537 -5.225,3.13584 -18.5,11.01439 -29.5,17.50789 -11,6.4935 -21.21701,12.53681 -22.70447,13.42957 l -2.70447,1.62322 16.20447,9.36149 c 24.17041,13.96351 35.74806,20.61499 40.20447,23.09791 2.2,1.22574 7.15,4.10015 11,6.38757 3.85,2.28743 8.125,4.73647 9.5,5.44232 1.375,0.70584 8.8,5.03544 16.5,9.62133 7.7,4.58589 14.14908,8.38444 14.33129,8.44124 0.18221,0.0568 6.25721,-3.34204 13.5,-7.55296 z"
       fill="#000000"
       id="path30283" />
  </g>
  <path
     style="fill:#bf0a0a;fill-opacity:1;stroke:#7a7a7a;stroke-width:0;stroke-opacity:0"
     d="m 125.28358,291.37798 c -2.6081,-1.11481 -6.82059,-3.41211 -14.04252,-7.65816 -6.72186,-3.95205 -22.186898,-12.86343 -44.496426,-25.64008 -10.180781,-5.83053 -21.313786,-12.233 -24.740011,-14.22772 -3.426224,-1.99472 -7.510996,-4.30741 -9.07727,-5.1393 -1.566274,-0.8319 -9.430107,-5.29912 -17.475185,-9.92716 L 0.82475458,220.37094 0.58696744,185.82939 C 0.45618452,166.83154 0.34112133,134.23286 0.33127149,113.38789 L 0.31336268,75.487936 6.831145,71.528157 C 18.431544,64.48051 67.587229,35.405324 75.465933,30.931241 79.675295,28.540868 84.080441,25.98103 85.255146,25.242711 98.332577,17.023363 126.68619,0.40277286 127.5938,0.42423726 c 0.20785,0.004916 2.54044,1.28850684 5.18353,2.85242514 2.64308,1.5639183 10.81263,6.373609 18.15454,10.6882016 27.76789,16.318253 95.34685,56.565288 99.70362,59.37906 l 3.41337,2.204484 0.23389,4.586393 c 0.12865,2.522513 0.23455,34.903789 0.23534,71.958389 l 0.001,67.37201 -1.86885,1.18878 c -1.02787,0.65384 -5.71334,3.4324 -10.41216,6.17459 -20.23483,11.80887 -92.25943,53.17701 -98.40226,56.51846 -2.4342,1.3241 -5.40577,3.00725 -6.60349,3.74033 -3.26538,1.99863 -7.92812,4.61571 -8.84408,4.96396 -0.59585,0.22655 -1.41578,0.0487 -3.10512,-0.67334 z m -4.52505,-25.49633 c 0.14421,-4.4871 0.2243,-31.92301 0.17798,-60.96868 l -0.0842,-52.81031 -16.19669,-9.41752 c -13.26737,-7.71426 -34.683424,-20.00067 -65.676723,-37.6788 -2.153627,-1.2284 -6.158305,-3.5539 -8.899285,-5.167783 -7.079113,-4.168161 -15.204296,-8.529882 -15.891825,-8.530972 -0.509129,-7.11e-4 -0.615692,0.749779 -0.821119,5.78361 -0.129835,3.181495 -0.186933,30.686565 -0.126887,61.122385 l 0.109176,55.33785 6.229499,3.39963 c 3.426225,1.86979 8.632306,4.82892 11.56907,6.57583 2.936764,1.74692 15.591547,9.04454 28.121739,16.21694 12.530193,7.1724 28.789186,16.49624 36.131096,20.71964 17.989539,10.34839 24.296519,13.84152 24.731239,13.69744 0.22447,-0.0744 0.46559,-3.25856 0.62696,-8.27926 z m 16.03531,7.45781 c 2.56149,-1.29176 6.09132,-3.30525 16.45184,-9.38445 7.9139,-4.64361 15.38066,-8.9295 48.59009,-27.89049 4.79672,-2.73869 15.76954,-9.02847 24.38404,-13.97729 l 15.66275,-8.99785 -0.0163,-59.91244 c -0.0109,-39.98541 -0.13778,-60.267629 -0.38156,-60.980352 -0.68264,-1.99576 0.82831,-2.726751 -23.09625,11.173872 -5.09039,2.95761 -26.18809,15.02905 -46.88377,26.82541 l -37.62853,21.44794 -0.0154,49.51091 c -0.0158,50.74417 0.21855,73.12123 0.7659,73.12123 0.17063,0 1.14589,-0.42142 2.16725,-0.93649 z m 4.17083,-139.85359 c 6.36299,-3.66484 19.57842,-11.23162 29.36764,-16.81508 61.50922,-35.082893 64.69072,-36.945428 64.5368,-37.781448 -0.15236,-0.827544 -2.99513,-2.587374 -26.62585,-16.482863 C 196.5941,55.556461 177.8522,44.455835 166.59461,37.73842 145.85071,25.360522 133.55583,18.206931 129.55293,16.186272 c -1.5821,-0.798642 -2.46738,-1.047138 -3.13838,-0.880935 -0.51405,0.127329 -4.21847,2.202561 -8.23205,4.611627 -4.01358,2.409066 -15.30677,9.104502 -25.095983,14.878745 -9.789213,5.774243 -27.48989,16.250153 -39.334838,23.279801 -11.844948,7.029645 -24.535867,14.539096 -28.202043,16.687672 -3.666176,2.148572 -6.664006,3.986587 -6.661845,4.084479 0.0038,0.171974 14.879997,8.779269 48.017461,27.782659 24.314362,13.9436 40.944458,23.57455 50.884578,29.46868 l 9.04058,5.36074 1.28259,-0.65527 c 0.70543,-0.36039 6.48868,-3.65376 12.85167,-7.3186 z"
     id="path32229" />
  <path
     style="fill:#0abfbe;fill-opacity:1;stroke:#7a7a7a;stroke-width:0;stroke-opacity:0"
     d="m 134.4372,263.50782 c -0.12907,-5.72669 -0.23497,-33.16041 -0.23533,-60.96382 l -6.6e-4,-50.55166 39.06786,-22.31403 c 21.48732,-12.27272 44.7545,-25.62691 51.70484,-29.67597 13.69005,-7.975406 15.51629,-8.96079 15.89865,-8.57843 0.63753,0.63753 0.82788,17.94554 0.74432,67.67755 l -0.0903,53.73392 -16.19669,9.30093 c -8.90819,5.1155 -20.12129,11.54349 -24.918,14.28441 -4.79672,2.74092 -15.52925,8.8734 -23.85008,13.62774 -8.32083,4.75433 -17.05103,9.77261 -19.40044,11.15172 -9.02688,5.29882 -22.00236,12.7198 -22.24038,12.7198 -0.13701,0 -0.35471,-4.68547 -0.48379,-10.41216 z"
     id="path33691" />
  <path
     style="fill:#f18484;fill-opacity:1;stroke:#7a7a7a;stroke-width:0;stroke-opacity:0"
     d="m 134.77989,267.60149 c -0.11814,-3.27939 -0.31626,-30.56765 -0.44026,-60.64059 l -0.22545,-54.67806 35.19569,-20.12056 c 19.35763,-11.06631 41.92355,-24.00671 50.14649,-28.75645 17.66147,-10.201629 21.01352,-12.021253 21.41446,-11.624633 0.16489,0.163103 0.34713,27.418933 0.40499,60.568513 l 0.10519,60.27196 -2.06303,1.24043 c -1.13468,0.68224 -20.24428,11.65449 -42.46579,24.38277 -22.22152,12.72828 -45.16758,25.88211 -50.99126,29.23074 -5.82368,3.34861 -10.65099,6.0884 -10.72736,6.0884 -0.0764,0 -0.23553,-2.68314 -0.35367,-5.96252 z"
     id="path33693" />
  <path
     style="fill:#f18484;fill-opacity:1;stroke:#7a7a7a;stroke-width:0;stroke-opacity:0"
     d="m 113.73286,270.47644 c -3.32834,-1.86936 -13.58031,-7.7338 -22.782171,-13.03208 -9.201861,-5.29829 -24.01917,-13.79193 -32.927353,-18.87476 -8.908184,-5.08284 -20.361564,-11.67611 -25.451954,-14.65173 -5.090391,-2.97561 -11.457205,-6.59839 -14.148476,-8.05061 l -4.893219,-2.6404 -0.0014,-56.98904 c -0.0014,-55.96469 0.107498,-64.575189 0.816406,-64.575189 0.479167,0 9.85751,5.182761 18.760633,10.367699 4.013577,2.3374 18.02995,10.38 31.147496,17.87244 13.117545,7.49245 31.181541,17.85945 40.142218,23.0378 l 16.29213,9.41518 -0.0954,60.40844 c -0.0627,39.6734 -0.21762,60.52902 -0.45141,60.75975 -0.2352,0.23213 -2.40913,-0.80183 -6.40748,-3.0475 z"
     id="path33695" />
  <path
     style="fill:#f18484;fill-opacity:1;stroke:#7a7a7a;stroke-width:0;stroke-opacity:0"
     d="m 114.06374,133.44605 c -6.83865,-4.03735 -14.436249,-8.4694 -16.883552,-9.84899 -2.447304,-1.37959 -7.653385,-4.38352 -11.56907,-6.67539 C 81.695433,114.6298 75.608322,111.11721 72.084205,109.11592 53.597301,98.617479 19.934397,79.078836 19.934397,78.847096 c 0,-0.146543 3.724351,-2.471798 8.276335,-5.167235 4.551984,-2.69544 19.40934,-11.504226 33.016346,-19.575087 13.607006,-8.070858 29.705812,-17.59879 35.775124,-21.173181 6.069308,-3.57439 14.719418,-8.706145 19.222458,-11.403898 4.50303,-2.697754 8.77126,-5.182706 9.48493,-5.522117 l 1.2976,-0.617111 4.39794,2.298962 c 5.37837,2.811459 11.3123,6.264266 31.09581,18.093877 8.41872,5.034002 25.15827,14.962123 37.19901,22.062485 27.21995,16.051486 33.44891,19.765581 34.35123,20.482351 l 0.71195,0.565539 -0.71195,0.541443 c -1.79912,1.368258 -12.6815,7.665805 -52.50577,30.384666 -15.36907,8.7677 -33.82888,19.3225 -41.0218,23.45509 -7.19293,4.13259 -13.29133,7.5138 -13.55201,7.5138 -0.26068,0 -6.06922,-3.30328 -12.90786,-7.34063 z"
     id="path33697" />
</svg>
