<?xml version="1.0" encoding="UTF-8" standalone="no"?>
<svg
   version="1.1"
   viewBox="0 0 269 260.3162"
   x="0px"
   y="0px"
   id="svg10"
   sodipodi:docname="d12-hope.svg"
   inkscape:version="1.2 (dc2aedaf03, 2022-05-15)"
   width="269"
   height="260.31619"
   xmlns:inkscape="http://www.inkscape.org/namespaces/inkscape"
   xmlns:sodipodi="http://sodipodi.sourceforge.net/DTD/sodipodi-0.dtd"
   xmlns="http://www.w3.org/2000/svg"
   xmlns:svg="http://www.w3.org/2000/svg">
  <defs
     id="defs14" />
  <sodipodi:namedview
     id="namedview12"
     pagecolor="#505050"
     bordercolor="#ffffff"
     borderopacity="1"
     inkscape:showpageshadow="0"
     inkscape:pageopacity="0"
     inkscape:pagecheckerboard="1"
     inkscape:deskcolor="#505050"
     showgrid="false"
     inkscape:zoom="1.5780809"
     inkscape:cx="74.774367"
     inkscape:cy="107.40894"
     inkscape:window-width="1350"
     inkscape:window-height="1230"
     inkscape:window-x="2026"
     inkscape:window-y="66"
     inkscape:window-maximized="0"
     inkscape:current-layer="svg10" />
  <g
     transform="translate(-200,-703)"
     id="g4"
     style="fill:#f2e3b1;fill-opacity:1">
    <path
       style="fill:#f2e3b1;fill-opacity:1"
       d="m 287.5,961.90428 c -7.03937,-3.7443 -41.12459,-24.15955 -42.66659,-25.55504 -0.92813,-0.83995 -4.03996,-5.64965 -6.91517,-10.68821 C 235.04303,920.62246 229.6754,911.325 225.99016,905 222.30493,898.675 214.94955,885.99693 209.64487,876.8265 L 200,860.153 v -25.6136 -25.6136 l 11.65318,-19.7129 C 224.32258,767.78091 236.73692,746.81141 243.74822,735 l 4.45204,-7.5 23.39552,-12.25 23.39553,-12.25 h 39.13837 39.13838 l 8.11597,4.12781 c 23.45981,11.93175 37.29147,19.2686 38.7789,20.56982 0.91462,0.80012 4.33391,6.03297 7.59842,11.62856 3.26452,5.5956 11.01845,18.72381 17.23095,29.17381 6.2125,10.45 12.08542,20.39554 13.05093,22.10121 0.9655,1.70566 3.82576,6.51168 6.35612,10.68003 L 469,808.86006 v 25.40825 25.40825 l -18.65264,32.41172 c -10.25895,17.82645 -20.27145,35.09299 -22.25,38.37009 -3.52687,5.84162 -4.03462,6.21823 -25.91239,19.2202 l -22.31503,13.26182 -44.68497,0.27981 c -39.34641,0.24637 -45.04338,0.0892 -47.68497,-1.31592 z M 375.28755,941 c 1.56691,-5.225 3.90811,-13.1 5.20266,-17.5 1.29455,-4.4 4.86384,-16.36474 7.93176,-26.58832 C 391.48989,886.6881 394,878.07251 394,877.76592 c 0,-0.30658 -2.3625,-2.02433 -5.25,-3.81721 -2.8875,-1.79288 -7.95,-4.9344 -11.25,-6.98115 -3.3,-2.04675 -14.31793,-8.78697 -24.48429,-14.97827 -17.82501,-10.85541 -18.57401,-11.20425 -21,-9.78045 -9.23861,5.42212 -50.20365,30.42409 -53.26571,32.50938 -2.0625,1.40458 -3.75,3.01711 -3.75,3.58341 0,0.56629 4.82348,17.16035 10.71885,36.87567 l 10.71885,35.84605 38.00046,-0.26168 38.00045,-0.26167 z m -95.24291,-0.38259 c -0.95203,-2.50403 -4.7806,-15.32449 -14.41039,-48.25514 C 262.06798,880.16683 260.95047,877.60557 257.5,873.71911 253.85988,869.61903 240.70004,855.611 220.65562,834.5 l -7.59581,-8 -0.0299,15.52904 -0.0299,15.52903 8.10288,13.97097 c 4.45658,7.68403 10.22446,17.57096 12.81752,21.97096 2.59306,4.4 5.01188,8.675 5.37517,9.5 0.36329,0.825 3.71313,6.66764 7.44408,12.98363 l 6.78355,11.48364 12.39382,7.22178 c 6.8166,3.97198 12.85638,7.68435 13.42173,8.2497 1.55505,1.55505 1.83263,0.64222 0.70589,-2.32134 z m 127.96462,-9.05576 c 7.6804,-4.73529 8.4079,-5.69311 20.22126,-26.62333 1.37778,-2.44108 8.18955,-14.26568 15.13727,-26.2769 L 456,856.82283 455.9754,841.66142 455.9508,826.5 l -8.22541,8.51566 c -10.71314,11.09116 -33.72288,35.56329 -37.41316,39.79095 -2.14434,2.4566 -4.13001,7.46935 -7.72442,19.5 -11.44651,38.31204 -13.76664,45.9958 -14.33885,47.48693 -0.64384,1.67782 6.14435,-1.83711 19.76028,-10.23189 z M 278.21195,860.25 c 5.17603,-3.1625 18.49581,-11.36712 29.59951,-18.23249 L 328,829.53501 v -36.11604 -36.11604 l -8.25,-2.13517 c -8.6647,-2.2425 -38.6829,-9.50289 -54.62182,-13.21118 -7.78687,-1.81167 -9.52183,-1.95009 -10.25886,-0.8185 -0.48788,0.74906 -4.09272,6.76192 -8.01076,13.36192 -3.91805,6.6 -12.68906,21.35956 -19.49114,32.79903 C 220.56534,798.73849 215,808.65099 215,809.32679 c 0,0.6758 0.7875,1.91826 1.75,2.76103 1.68954,1.47936 37.39001,39.47789 46.18896,49.16218 2.37367,2.6125 4.66367,4.75 5.08889,4.75 0.42522,0 5.00806,-2.5875 10.1841,-5.75 z m 140.82388,-13.3166 c 9.60529,-10.21164 21.44206,-22.90776 26.30392,-28.21362 l 8.83974,-9.64701 -10.21984,-17.28638 c -5.62091,-9.50752 -14.7738,-25.04411 -20.33974,-34.52576 L 413.5,740.02126 l -3.5,0.5659 c -1.925,0.31125 -17.225,3.90473 -34,7.98552 -16.775,4.0808 -31.5125,7.65493 -32.75,7.94252 l -2.25,0.5229 v 36.05238 c 0,38.43153 -0.2052,36.80966 5.03867,39.8247 3.35886,1.93122 48.96628,29.99638 51.46133,31.66744 1.1,0.73672 2.46612,1.24452 3.03583,1.12844 0.5697,-0.11608 8.8947,-8.56603 18.5,-18.77766 z M 365.30013,738.04728 C 381.1402,734.17128 394.7527,731 395.55013,731 c 3.33325,0 0.7445,-1.86113 -11.4754,-8.25 L 371.16411,716 h -36.62752 -36.62751 l -13.54104,6.88752 c -7.44758,3.78814 -13.16462,7.10163 -12.70454,7.36331 0.46007,0.26169 8.0365,2.15934 16.8365,4.217 8.8,2.05767 22.75,5.42276 31,7.47799 8.25,2.05523 15.45,3.60447 16,3.44276 0.55,-0.16171 13.96006,-3.46529 29.80013,-7.3413 z"
       fill="#000000"
       id="path2" />
  </g>
  <path
     style="fill:#f1db84;fill-opacity:1;stroke:#7a7a7a;stroke-width:0;stroke-opacity:0"
     d="m 92.517438,259.55357 c -2.34161,-0.28154 -5.212661,-1.12482 -6.653651,-1.9543 C 84.469688,256.79676 74.715999,251.00738 64.188922,244.73396 46.403177,234.13485 44.897613,233.09882 42.912419,230.09277 41.737418,228.31355 31.601441,211.00511 20.388027,191.62958 L 5.0013058e-7,156.40134 0.02428633,131.42988 0.04857222,106.45842 24.262588,65.602638 48.476603,24.74686 71.835906,12.53185 95.195216,0.31684054 h 39.001974 39.00198 l 17.16569,8.81770886 c 15.10106,7.7571426 25.92892,13.5792636 28.97353,15.5790126 1.57414,1.033916 5.29424,6.966053 19.86942,31.684054 7.60388,12.895409 17.34598,29.344496 21.64911,36.553531 l 7.82386,13.107323 v 25.23991 25.23991 l -17.16018,29.77348 c -24.43926,42.40292 -25.56783,44.25611 -28.45812,46.73008 -1.41301,1.20949 -11.69185,7.66052 -22.84186,14.33563 l -20.27276,12.13655 -41.65575,0.26738 c -22.91066,0.14706 -43.509262,0.0445 -45.774672,-0.22784 z m 80.103842,-12.00919 c 0.18415,-0.29796 5.17952,-16.76575 11.10082,-36.59508 l 10.766,-36.05332 -1.82589,-1.58421 c -1.64813,-1.42996 -30.80178,-19.48565 -48.55965,-30.07438 -3.86671,-2.30565 -8.02072,-4.35281 -9.23114,-4.54923 -1.97792,-0.32097 -3.60812,0.4949 -16.09899,8.05711 -28.876043,17.48209 -40.57133,24.82186 -42.387042,26.60139 l -1.87422,1.83689 2.071561,7.14355 c 4.477413,15.43982 19.248031,64.83554 19.521566,65.28378 0.405454,0.66441 76.105915,0.59863 76.516985,-0.0665 z m -91.510101,-7.28005 c 0,-0.46823 -0.581282,-2.53561 -1.291747,-4.59419 -0.710458,-2.05857 -4.732837,-15.43428 -8.938616,-29.72379 -4.20578,-14.28951 -8.467817,-27.69186 -9.471191,-29.78301 -1.918861,-3.99912 -4.010355,-6.35215 -32.893976,-37.00727 -8.190328,-8.69266 -15.105372,-15.82739 -15.366766,-15.85497 -0.261393,-0.0276 -0.475261,7.03937 -0.475261,15.70431 v 15.75444 l 13.554074,23.37536 c 7.454742,12.85646 16.464409,28.41736 20.021484,34.57978 3.557076,6.16242 6.939195,11.60152 7.515822,12.08688 0.576626,0.48536 5.753494,3.63073 11.50415,6.98971 5.750655,3.35897 11.453785,6.81702 12.673621,7.68457 2.559463,1.82028 3.168406,1.97176 3.168406,0.78818 z m 113.984581,-3.69782 c 7.99083,-4.3805 16.02705,-9.49182 18.65216,-11.86345 3.58646,-3.24015 5.34111,-6.06017 24.71858,-39.72697 l 17.54065,-30.47547 -0.0301,-15.78324 -0.0301,-15.78325 -7.59939,7.92101 c -20.75374,21.63209 -39.03933,41.49258 -40.09767,43.55119 -0.64996,1.26425 -1.7372,3.88771 -2.41608,5.82991 -1.6698,4.77711 -17.6305,57.62869 -17.6305,58.38088 0,1.188 2.15328,0.54737 6.89248,-2.05061 z M 76.088236,158.87099 c 3.982457,-2.36604 17.294899,-10.51862 29.583204,-18.11685 l 22.34238,-13.81497 -0.16354,-36.538139 -0.16354,-36.53814 -15.52519,-3.882486 C 84.252589,43.001025 60.593472,37.568807 57.705553,37.477112 L 54.873304,37.387183 38.825419,64.318629 C 21.554005,93.303391 14.574666,105.51242 14.574666,106.7407 c 0,0.42611 3.220755,4.10137 7.157234,8.16724 3.936478,4.06588 11.706993,12.25059 17.267809,18.18823 23.304601,24.88385 28.322848,30.07671 29.065383,30.07671 0.430276,0 4.040693,-1.93585 8.023144,-4.30189 z M 210.43003,153.1924 c 9.34869,-9.46761 16.85024,-17.40523 35.91006,-37.99749 l 8.33633,-9.0066 -13.19814,-22.360618 C 234.2193,71.529343 225.01706,55.906513 221.02885,49.110283 c -7.00989,-11.945406 -7.3131,-12.349662 -9.10744,-12.142956 -2.1093,0.242987 -20.88802,4.63577 -50.84989,11.894977 l -20.47811,4.961466 0.20834,35.5057 c 0.16832,28.68663 0.37693,35.83704 1.0862,37.23093 0.63295,1.2439 8.12911,6.19411 26.86855,17.74307 25.10416,15.47149 30.77372,18.86941 31.48434,18.86941 0.18375,0 4.76888,-4.49122 10.18919,-9.98048 z M 159.75348,36.805214 c 13.38198,-3.282541 27.25373,-6.619194 30.8261,-7.414784 3.57238,-0.795589 6.49523,-1.630133 6.49523,-1.854543 0,-0.987 -3.00685,-2.859621 -13.65907,-8.506646 l -11.37133,-6.02824 -37.55057,-0.0053 -37.550577,-0.0053 -11.559705,6.059408 c -6.357843,3.332675 -12.128637,6.480655 -12.823988,6.995513 -1.728428,1.279775 -0.815193,1.777306 6.333725,3.45062 3.136721,0.734197 15.541028,3.712018 27.565125,6.617377 21.72742,5.249957 26.9255,6.462317 28.26465,6.59223 0.38474,0.03732 11.64842,-2.617853 25.03041,-5.900396 z"
     id="path3228" />
  <path
     style="fill:#fdf2c1;fill-opacity:1;stroke:#7a7a7a;stroke-width:0;stroke-opacity:0"
     d="M 65.705612,160.53003 C 64.501423,159.36966 57.431924,151.86167 49.995615,143.8456 42.559306,135.82954 31.667643,124.20502 25.79192,118.01334 l -10.683132,-11.2576 2.642021,-4.90127 c 3.3176,-6.154545 13.301514,-23.163945 27.053508,-46.090535 l 10.642778,-17.743071 2.851565,0.146884 c 2.624491,0.135187 26.997165,5.806239 56.87288,13.233223 l 12.19836,3.032465 0.007,33.616665 c 0.004,18.489169 0.1688,34.614709 0.36659,35.834549 l 0.35962,2.21788 -23.33754,14.37344 c -25.232145,15.54031 -34.953651,21.42779 -36.123983,21.87718 -0.410584,0.15766 -1.731762,-0.66274 -2.935951,-1.82312 z"
     id="path4751" />
  <path
     style="fill:#fdf2c1;fill-opacity:1;stroke:#7a7a7a;stroke-width:0;stroke-opacity:0"
     d="M 132.75619,41.699675 C 120.98062,38.97636 73.117578,27.354132 72.919584,27.169995 72.39579,26.682859 75.204077,25.050122 86.887115,19.049279 l 11.795907,-6.058817 h 35.905008 35.90501 l 10.91458,5.792216 c 6.00303,3.185719 11.85948,6.432361 13.01435,7.214758 l 2.09975,1.422542 -4.95132,1.083961 c -2.72322,0.596179 -16.56556,3.908137 -30.76075,7.359907 -14.19518,3.45177 -26.02918,6.242867 -26.29776,6.202438 -0.26859,-0.04043 -1.05866,-0.205403 -1.7557,-0.366609 z"
     id="path4822" />
  <path
     style="fill:#fdf2c1;fill-opacity:1;stroke:#7a7a7a;stroke-width:0;stroke-opacity:0"
     d="m 185.29096,153.57713 c -7.98265,-4.92914 -20.14901,-12.40638 -27.03635,-16.6161 -6.88734,-4.20971 -13.24484,-8.23245 -14.12779,-8.93942 -2.49658,-1.999 -2.7892,-6.34396 -2.8032,-41.624117 l -0.0127,-32.100867 10.931,-2.638218 c 44.19017,-10.665385 56.25925,-13.451384 58.6487,-13.538334 l 2.72635,-0.09921 19.94615,33.846739 c 10.97038,18.615706 19.86658,34.074467 19.76933,34.352817 -0.498,1.42532 -52.21229,56.31878 -53.05706,56.31878 -0.25876,0 -7.00173,-4.03293 -14.98439,-8.96207 z"
     id="path4824" />
  <path
     style="fill:#fdf2c1;fill-opacity:1;stroke:#7a7a7a;stroke-width:0;stroke-opacity:0"
     d="m 189.08882,237.47198 c 0.18549,-0.60992 4.02911,-13.37067 8.54138,-28.35723 8.952,-29.73222 10.1346,-33.14577 12.61093,-36.40096 1.91903,-2.52262 24.6,-26.77662 36.7735,-39.32392 l 8.29983,-8.5547 0.0295,14.6674 0.0295,14.66739 -18.40538,31.90817 c -10.12297,17.54949 -19.60442,33.44198 -21.0699,35.31666 -2.77136,3.54519 -11.1824,9.29004 -21.45486,14.65396 -5.49956,2.87168 -5.82101,2.95713 -5.35451,1.42323 z"
     id="path4826" />
  <path
     style="fill:#fdf2c1;fill-opacity:1;stroke:#7a7a7a;stroke-width:0;stroke-opacity:0"
     d="M 88.245151,219.41207 C 83.650448,203.98986 78.838149,187.68739 77.551155,183.18436 l -2.33999,-8.18733 1.841065,-1.48145 c 4.433391,-3.56741 55.46143,-34.42258 56.9278,-34.42258 0.56989,0 2.47789,0.73057 4.23999,1.62349 4.81217,2.43851 51.19183,30.82646 54.09638,33.11118 l 1.38158,1.08675 -10.7791,36.26902 -10.77909,36.26902 H 134.36947 96.599158 Z"
     id="path4828" />
  <path
     style="fill:#fdf2c1;fill-opacity:1;stroke:#7a7a7a;stroke-width:0;stroke-opacity:0"
     d="m 77.447044,238.31529 c -1.143959,-0.80897 -6.989667,-4.35943 -12.99046,-7.88992 L 53.546052,224.00632 46.258719,211.32066 C 42.250687,204.34355 33.191782,188.67045 26.127821,176.49155 L 13.284256,154.34808 13.4542,139.4742 l 0.169944,-14.87388 12.039941,12.71786 c 29.156619,30.7983 33.407146,35.56026 35.238849,39.47884 0.977486,2.09115 5.498221,16.40626 10.046077,31.81135 4.547855,15.4051 8.545191,28.73617 8.882975,29.62459 0.74934,1.97093 0.307303,1.98618 -2.384942,0.0823 z"
     id="path4830" />
</svg>
