<?xml version="1.0" encoding="UTF-8" standalone="no"?>
<svg
   version="1.1"
   viewBox="0 0 269 260.3162"
   x="0px"
   y="0px"
   id="svg10"
   sodipodi:docname="d12-teal.svg"
   inkscape:version="1.2 (dc2aedaf03, 2022-05-15)"
   width="269"
   height="260.31619"
   xmlns:inkscape="http://www.inkscape.org/namespaces/inkscape"
   xmlns:sodipodi="http://sodipodi.sourceforge.net/DTD/sodipodi-0.dtd"
   xmlns="http://www.w3.org/2000/svg"
   xmlns:svg="http://www.w3.org/2000/svg">
  <defs
     id="defs14" />
  <sodipodi:namedview
     id="namedview12"
     pagecolor="#505050"
     bordercolor="#ffffff"
     borderopacity="1"
     inkscape:showpageshadow="0"
     inkscape:pageopacity="0"
     inkscape:pagecheckerboard="1"
     inkscape:deskcolor="#505050"
     showgrid="false"
     inkscape:zoom="8.9269736"
     inkscape:cx="39.991157"
     inkscape:cy="288.17157"
     inkscape:window-width="1350"
     inkscape:window-height="1230"
     inkscape:window-x="1600"
     inkscape:window-y="64"
     inkscape:window-maximized="0"
     inkscape:current-layer="svg10" />
  <g
     transform="translate(-200,-703)"
     id="g4"
     style="fill:#9152fa;fill-opacity:1">
    <path
       style="fill:#9152fa;fill-opacity:1"
       d="m 287.5,961.90428 c -7.03937,-3.7443 -41.12459,-24.15955 -42.66659,-25.55504 -0.92813,-0.83995 -4.03996,-5.64965 -6.91517,-10.68821 C 235.04303,920.62246 229.6754,911.325 225.99016,905 222.30493,898.675 214.94955,885.99693 209.64487,876.8265 L 200,860.153 v -25.6136 -25.6136 l 11.65318,-19.7129 C 224.32258,767.78091 236.73692,746.81141 243.74822,735 l 4.45204,-7.5 23.39552,-12.25 23.39553,-12.25 h 39.13837 39.13838 l 8.11597,4.12781 c 23.45981,11.93175 37.29147,19.2686 38.7789,20.56982 0.91462,0.80012 4.33391,6.03297 7.59842,11.62856 3.26452,5.5956 11.01845,18.72381 17.23095,29.17381 6.2125,10.45 12.08542,20.39554 13.05093,22.10121 0.9655,1.70566 3.82576,6.51168 6.35612,10.68003 L 469,808.86006 v 25.40825 25.40825 l -18.65264,32.41172 c -10.25895,17.82645 -20.27145,35.09299 -22.25,38.37009 -3.52687,5.84162 -4.03462,6.21823 -25.91239,19.2202 l -22.31503,13.26182 -44.68497,0.27981 c -39.34641,0.24637 -45.04338,0.0892 -47.68497,-1.31592 z M 375.28755,941 c 1.56691,-5.225 3.90811,-13.1 5.20266,-17.5 1.29455,-4.4 4.86384,-16.36474 7.93176,-26.58832 C 391.48989,886.6881 394,878.07251 394,877.76592 c 0,-0.30658 -2.3625,-2.02433 -5.25,-3.81721 -2.8875,-1.79288 -7.95,-4.9344 -11.25,-6.98115 -3.3,-2.04675 -14.31793,-8.78697 -24.48429,-14.97827 -17.82501,-10.85541 -18.57401,-11.20425 -21,-9.78045 -9.23861,5.42212 -50.20365,30.42409 -53.26571,32.50938 -2.0625,1.40458 -3.75,3.01711 -3.75,3.58341 0,0.56629 4.82348,17.16035 10.71885,36.87567 l 10.71885,35.84605 38.00046,-0.26168 38.00045,-0.26167 z m -95.24291,-0.38259 c -0.95203,-2.50403 -4.7806,-15.32449 -14.41039,-48.25514 C 262.06798,880.16683 260.95047,877.60557 257.5,873.71911 253.85988,869.61903 240.70004,855.611 220.65562,834.5 l -7.59581,-8 -0.0299,15.52904 -0.0299,15.52903 8.10288,13.97097 c 4.45658,7.68403 10.22446,17.57096 12.81752,21.97096 2.59306,4.4 5.01188,8.675 5.37517,9.5 0.36329,0.825 3.71313,6.66764 7.44408,12.98363 l 6.78355,11.48364 12.39382,7.22178 c 6.8166,3.97198 12.85638,7.68435 13.42173,8.2497 1.55505,1.55505 1.83263,0.64222 0.70589,-2.32134 z m 127.96462,-9.05576 c 7.6804,-4.73529 8.4079,-5.69311 20.22126,-26.62333 1.37778,-2.44108 8.18955,-14.26568 15.13727,-26.2769 L 456,856.82283 455.9754,841.66142 455.9508,826.5 l -8.22541,8.51566 c -10.71314,11.09116 -33.72288,35.56329 -37.41316,39.79095 -2.14434,2.4566 -4.13001,7.46935 -7.72442,19.5 -11.44651,38.31204 -13.76664,45.9958 -14.33885,47.48693 -0.64384,1.67782 6.14435,-1.83711 19.76028,-10.23189 z M 278.21195,860.25 c 5.17603,-3.1625 18.49581,-11.36712 29.59951,-18.23249 L 328,829.53501 v -36.11604 -36.11604 l -8.25,-2.13517 c -8.6647,-2.2425 -38.6829,-9.50289 -54.62182,-13.21118 -7.78687,-1.81167 -9.52183,-1.95009 -10.25886,-0.8185 -0.48788,0.74906 -4.09272,6.76192 -8.01076,13.36192 -3.91805,6.6 -12.68906,21.35956 -19.49114,32.79903 C 220.56534,798.73849 215,808.65099 215,809.32679 c 0,0.6758 0.7875,1.91826 1.75,2.76103 1.68954,1.47936 37.39001,39.47789 46.18896,49.16218 2.37367,2.6125 4.66367,4.75 5.08889,4.75 0.42522,0 5.00806,-2.5875 10.1841,-5.75 z m 140.82388,-13.3166 c 9.60529,-10.21164 21.44206,-22.90776 26.30392,-28.21362 l 8.83974,-9.64701 -10.21984,-17.28638 c -5.62091,-9.50752 -14.7738,-25.04411 -20.33974,-34.52576 L 413.5,740.02126 l -3.5,0.5659 c -1.925,0.31125 -17.225,3.90473 -34,7.98552 -16.775,4.0808 -31.5125,7.65493 -32.75,7.94252 l -2.25,0.5229 v 36.05238 c 0,38.43153 -0.2052,36.80966 5.03867,39.8247 3.35886,1.93122 48.96628,29.99638 51.46133,31.66744 1.1,0.73672 2.46612,1.24452 3.03583,1.12844 0.5697,-0.11608 8.8947,-8.56603 18.5,-18.77766 z M 365.30013,738.04728 C 381.1402,734.17128 394.7527,731 395.55013,731 c 3.33325,0 0.7445,-1.86113 -11.4754,-8.25 L 371.16411,716 h -36.62752 -36.62751 l -13.54104,6.88752 c -7.44758,3.78814 -13.16462,7.10163 -12.70454,7.36331 0.46007,0.26169 8.0365,2.15934 16.8365,4.217 8.8,2.05767 22.75,5.42276 31,7.47799 8.25,2.05523 15.45,3.60447 16,3.44276 0.55,-0.16171 13.96006,-3.46529 29.80013,-7.3413 z"
       fill="#000000"
       id="path2" />
  </g>
  <path
     style="fill:#5006cd;fill-opacity:1;stroke:#7a7a7a;stroke-width:0;stroke-opacity:0"
     d="m 195.15375,159.67679 c -33.77445,-20.42779 -51.7116,-31.8901 -52.57551,-33.59713 -0.80323,-1.58713 -0.98108,-7.3034 -1.14774,-36.889048 -0.10848,-19.255984 -0.0735,-35.01088 0.0778,-35.01088 0.15128,0 13.33337,-3.151838 29.29354,-7.004084 15.96017,-3.852246 32.05086,-7.659919 35.7571,-8.461495 l 6.73861,-1.45741 2.79966,4.817828 c 1.53981,2.649806 10.57916,18.020661 20.08743,34.157455 9.50827,16.136795 17.28776,29.507264 17.28776,29.712144 0,0.4728 -1.68912,2.32578 -22.1304,24.27729 -18.62278,19.99865 -30.46352,32.31774 -31.06284,32.31774 -0.21607,0 -2.52252,-1.28809 -5.12544,-2.86241 z"
     id="path2387" />
  <path
     style="fill:#5006cd;fill-opacity:1;stroke:#7a7a7a;stroke-width:0;stroke-opacity:0"
     d="m 132.75619,41.697768 c -0.69705,-0.162254 -13.81425,-3.307107 -29.14933,-6.988562 -15.335085,-3.681455 -28.523572,-6.828165 -29.307753,-6.99269 -0.78418,-0.164524 -1.425782,-0.500027 -1.425782,-0.745561 0,-0.573122 8.309851,-5.191739 18.208587,-10.120336 l 7.752849,-3.860157 35.971139,0.01708 35.97115,0.01708 11.47951,6.161315 c 16.2713,8.733178 15.49329,7.96495 9.41197,9.293554 -2.7772,0.606742 -16.59593,3.928525 -30.70829,7.381738 -14.11236,3.453214 -25.94635,6.245492 -26.29776,6.205063 -0.35141,-0.04043 -1.20925,-0.206262 -1.90629,-0.368516 z"
     id="path2665" />
  <path
     style="fill:#5006cd;fill-opacity:1;stroke:#7a7a7a;stroke-width:0;stroke-opacity:0"
     d="m 56.975577,151.30249 c -5.72001,-6.18018 -17.474055,-18.74392 -26.120101,-27.9194 l -15.720084,-16.6827 3.11534,-5.82412 c 3.252612,-6.080735 34.207167,-58.344794 36.422464,-61.496139 1.152057,-1.638846 1.51675,-1.771304 3.874398,-1.407189 3.253253,0.502431 32.306552,7.361662 53.297116,12.582986 l 15.84203,3.940645 0.16359,35.823615 0.16359,35.823622 -24.24347,14.97141 c -27.147997,16.7651 -34.933369,21.42398 -35.801274,21.42398 -0.32647,0 -5.27359,-5.05652 -10.993599,-11.23671 z"
     id="path2667" />
  <path
     style="fill:#5006cd;fill-opacity:1;stroke:#7a7a7a;stroke-width:0;stroke-opacity:0"
     d="m 79.540816,239.87068 c -0.236452,-0.38258 -6.182001,-4.10853 -13.212337,-8.27987 l -12.782427,-7.58427 -7.032273,-12.1985 C 42.64603,205.09886 33.587106,189.43395 26.382839,176.99711 l -13.09867,-22.61243 0.169988,-14.93369 0.169987,-14.93369 12.673622,13.41238 c 29.534435,31.25604 32.763311,34.88036 34.608283,38.84678 0.977955,2.10245 4.806082,14.08828 8.506949,26.63517 3.700866,12.54688 7.695484,25.93436 8.876919,29.74995 1.965716,6.34849 2.370803,8.52114 1.250899,6.7091 z"
     id="path2669" />
  <path
     style="fill:#5006cd;fill-opacity:1;stroke:#7a7a7a;stroke-width:0;stroke-opacity:0"
     d="M 88.250804,219.41207 C 74.566682,173.46033 75.092761,175.40573 76.04145,174.26263 c 1.669684,-2.01184 56.26778,-35.16963 57.91083,-35.16963 0.58516,0 2.55151,0.75293 4.36968,1.67319 3.36535,1.70335 34.67193,20.6919 48.06983,29.15606 l 7.3769,4.66037 -3.30986,11.2461 c -1.82042,6.18535 -6.687,22.58107 -10.81462,36.43492 l -7.50477,25.18882 h -37.7692 -37.769196 z"
     id="path2671" />
  <path
     style="fill:#fdf2c1;fill-opacity:1;stroke:#7a7a7a;stroke-width:0;stroke-opacity:0"
     d="m 189.01273,237.47198 c 3.82185,-13.09779 16.73633,-55.12614 17.92254,-58.32635 0.8881,-2.39596 2.77058,-5.75808 4.1833,-7.47138 3.1086,-3.77002 15.53254,-17.07559 31.85047,-34.11064 l 12.08759,-12.6188 0.38012,14.203 0.38012,14.20301 -18.23591,31.68405 c -10.02975,17.42623 -19.61097,33.51085 -21.2916,35.7436 -2.49255,3.31141 -4.34025,4.85921 -10.02617,8.39882 -6.79668,4.23109 -16.21458,9.40364 -17.12164,9.40364 -0.24882,0 -0.30679,-0.49903 -0.12882,-1.10895 z"
     id="path2673" />
  <path
     style="fill:#fdf2c1;fill-opacity:1;stroke:#7a7a7a;stroke-width:0;stroke-opacity:0"
     d="m 194.54009,158.91386 c -2.61393,-1.60431 -11.02605,-6.76219 -18.69359,-11.46193 -17.40894,-10.67065 -31.38986,-19.80909 -32.63458,-21.33116 -0.8144,-0.99587 -0.97741,-6.21295 -1.13831,-36.430633 l -0.18779,-35.268313 32.82237,-7.795182 c 18.0523,-4.28735 34.0452,-8.085458 35.53978,-8.44024 1.49458,-0.354781 2.81082,-0.537165 2.92499,-0.405297 0.31329,0.361894 35.9849,61.210078 38.10919,65.006195 l 1.84632,3.29937 -1.61105,1.77008 c -22.74048,24.98532 -50.47569,54.06583 -51.51277,54.0114 -0.39158,-0.0206 -2.85062,-1.34998 -5.46456,-2.95429 z"
     id="path5658" />
  <path
     style="fill:#fdf2c1;fill-opacity:1;stroke:#7a7a7a;stroke-width:0;stroke-opacity:0"
     d="M 131.75286,41.262257 C 131.60764,41.128139 118.65678,37.960991 102.97317,34.224152 87.289569,30.487314 74.219968,27.286277 73.929618,27.110736 73.206861,26.673771 75.815262,25.147599 88.643719,18.501535 l 11.017787,-5.708007 35.852944,0.452428 35.85295,0.452428 10.62839,5.716836 c 5.84561,3.14426 11.2606,6.228762 12.03328,6.854449 l 1.40489,1.137612 -2.18956,0.466745 c -1.20425,0.25671 -14.52356,3.428947 -29.59845,7.049415 -24.42375,5.86574 -30.99186,7.171165 -31.89309,6.338816 z"
     id="path5660" />
  <path
     style="fill:#fdf2c1;fill-opacity:1;stroke:#7a7a7a;stroke-width:0;stroke-opacity:0"
     d="M 41.788984,134.57568 C 27.69242,119.54427 16.059883,106.98558 15.938901,106.66749 c -0.120982,-0.31809 1.839535,-4.2023 4.356706,-8.631566 5.563957,-9.790456 30.226303,-51.442733 33.357855,-56.338137 l 2.251648,-3.519894 2.939399,0.351034 c 4.744368,0.566589 67.427961,15.609518 68.180541,16.362096 0.14339,0.143383 0.32009,16.211843 0.39268,35.707689 l 0.13197,35.446998 -15.7735,9.76398 c -24.766407,15.33069 -42.747075,26.09583 -43.58706,26.09583 -0.423522,0 -12.303593,-12.29843 -26.400156,-27.32984 z"
     id="path5662" />
  <path
     style="fill:#fdf2c1;fill-opacity:1;stroke:#7a7a7a;stroke-width:0;stroke-opacity:0"
     d="m 77.625933,238.2014 c -0.697049,-0.53509 -6.333985,-3.99963 -12.526523,-7.69897 L 53.84025,223.77635 33.702366,188.88043 13.564483,153.9845 l 0.346671,-14.18305 0.346671,-14.18304 17.487185,18.61881 c 20.802153,22.1483 24.82876,26.59481 27.160229,29.9925 2.060415,3.00269 5.151255,12.28237 13.94107,41.85553 3.522039,11.84983 6.528368,21.9016 6.680724,22.33726 0.368403,1.05344 -0.349564,0.96994 -1.9011,-0.22111 z"
     id="path5664" />
  <path
     style="fill:#fdf2c1;fill-opacity:1;stroke:#7a7a7a;stroke-width:0;stroke-opacity:0"
     d="M 95.709198,243.25996 C 91.393849,229.28849 76.507469,178.471 76.23104,176.76758 c -0.310317,-1.91226 -0.09154,-2.20701 3.383125,-4.55787 6.084122,-4.11634 30.831115,-19.26928 45.755865,-28.01697 6.60097,-3.86896 8.13442,-4.52604 9.82206,-4.20874 2.76885,0.5206 57.28042,33.43622 57.81773,34.91198 0.1269,0.34852 -4.5674,16.74502 -10.43177,36.43666 l -10.6625,35.80298 -37.45416,0.16343 -37.454164,0.16344 z"
     id="path5666" />
  <path
     style="fill:#84f1ef;fill-opacity:1;stroke:#7a7a7a;stroke-width:0;stroke-opacity:0"
     d="m 92.181245,259.56622 c -4.311718,-0.55191 -4.31732,-0.5549 -30.256143,-16.14056 C 45.354384,233.46895 44.899012,233.14065 42.48527,229.41029 40.305393,226.04137 20.396922,191.88174 5.3188007,165.63879 L 5.0004872e-7,156.3816 0.00911531,131.42001 0.01823011,106.45842 24.253952,65.591169 48.489674,24.723913 71.612496,12.567321 94.735322,0.4107292 133.96863,0.3637849 173.20194,0.31684054 190.99992,9.4495733 c 28.30156,14.5224567 28.43891,14.6066467 31.63983,19.3943077 1.51041,2.259144 9.38888,15.371216 17.5077,29.137938 8.11883,13.766721 17.86016,30.206645 21.64741,36.533158 l 6.88592,11.502753 v 25.27249 25.27248 l -16.22926,28.17707 c -28.10676,48.79866 -26.87595,46.90334 -33.19787,51.12142 -1.56836,1.04643 -11.03548,6.79693 -21.03805,12.77889 l -18.18648,10.87628 -42.01322,0.26951 c -23.10727,0.14823 -43.732862,0.0494 -45.834655,-0.21965 z m 80.418915,-11.98766 c 0.26162,-0.42331 17.78796,-58.99608 20.85272,-69.6895 l 0.95833,-3.34373 -1.99502,-1.51016 c -2.04585,-1.54863 -33.954,-21.23594 -47.68277,-29.42024 -4.21678,-2.5138 -8.63876,-4.72826 -9.82662,-4.92103 -1.92869,-0.31298 -3.75234,0.61224 -17.04668,8.64852 -27.778862,16.79199 -40.271524,24.63963 -41.780052,26.24539 l -1.504403,1.60136 2.046207,7.14074 c 3.708973,12.94336 19.18214,64.79587 19.480319,65.28097 0.394796,0.64229 76.100809,0.61029 76.497969,-0.0323 z m -91.488981,-7.08901 c 0,-0.34436 -0.840147,-3.26722 -1.866989,-6.49523 -1.026843,-3.22803 -4.459512,-14.70898 -7.628152,-25.51325 -6.382315,-21.76209 -9.240344,-30.79693 -10.582297,-33.45292 -0.491553,-0.97288 -2.352896,-3.39671 -4.13632,-5.38629 C 52.044211,164.22764 17.58338,127.70164 14.9552,125.18612 l -2.281577,-2.18376 v 15.83767 15.83767 l 7.366743,12.64386 c 4.051709,6.95413 12.32699,21.29253 18.389514,31.86311 15.889611,27.70504 13.708353,24.89789 23.965066,30.84156 4.811464,2.7882 10.777077,6.40027 13.256912,8.02683 4.775021,3.13198 5.459321,3.43739 5.459321,2.43649 z m 111.084081,-2.32157 c 6.12976,-3.16349 19.41572,-11.51583 21.76992,-13.68586 3.47744,-3.2054 4.22666,-4.4173 24.84026,-40.1809 l 17.22411,-29.88299 -0.16962,-15.65218 -0.16962,-15.65218 -15.56405,16.38584 c -22.9237,24.13407 -29.89696,31.73903 -31.48349,34.33555 -0.78238,1.28045 -2.55072,5.74996 -3.92964,9.93225 -2.96099,8.98076 -16.50985,53.99798 -16.50985,54.85537 0,0.90512 1.74118,0.70671 3.99198,-0.4549 z M 79.305467,156.90667 c 5.698225,-3.44641 18.915101,-11.55214 29.370833,-18.01273 l 19.01044,-11.74652 V 90.505151 53.862892 L 111.84471,49.91525 C 82.730963,42.660456 60.565417,37.567917 57.707057,37.477112 l -2.830746,-0.08993 -14.15151,23.76304 C 23.837964,89.506388 14.574666,105.60644 14.574666,106.60039 c 0,0.40004 3.493167,4.38646 7.762593,8.8587 4.269426,4.47225 11.900895,12.54619 16.95882,17.94209 23.122674,24.66778 28.065133,29.7717 28.829942,29.7717 0.450465,0 5.481214,-2.81979 11.179446,-6.26621 z m 131.455943,-4.03111 c 12.14108,-12.35475 41.39725,-43.75386 42.65346,-45.7777 0.8427,-1.35765 -0.24512,-3.37233 -19.32728,-35.795273 l -20.22023,-34.356651 -2.91204,0.337589 c -2.55721,0.296453 -12.95881,2.727717 -59.38521,13.880667 l -10.96907,2.635087 0.22002,35.201108 c 0.16834,26.931363 0.41291,35.678493 1.04105,37.233183 0.66341,1.64198 2.66603,3.15495 10.43221,7.88147 5.28616,3.21718 17.75005,10.88517 27.69754,17.03998 16.55175,10.24107 19.22714,11.81893 20.29243,11.96783 0.19685,0.0275 4.91155,-4.58377 10.47712,-10.24729 z M 159.6898,36.808824 c 13.417,-3.280557 27.31741,-6.617209 30.88978,-7.414784 3.57238,-0.797574 6.49523,-1.681481 6.49523,-1.964236 0,-0.799484 -5.79376,-4.282547 -15.84202,-9.523818 l -9.18838,-4.792746 -37.07317,-0.219809 -37.073159,-0.219809 -9.185555,4.669929 c -10.823039,5.502429 -17.106563,9.04768 -17.106563,9.651762 0,0.708724 0.821307,0.924416 30.957177,8.130023 32.8303,7.849856 31.24906,7.476687 32.09626,7.574629 0.34972,0.04043 11.6134,-2.610584 25.0304,-5.891141 z"
     id="path5668" />
  <path
     style="fill:#84f1ef;fill-opacity:1;stroke:#7a7a7a;stroke-width:0;stroke-opacity:0"
     d="M 105.5079,34.539288 C 71.869376,26.309263 74.238506,26.989435 75.640349,25.964381 c 0.63296,-0.462831 6.346461,-3.566157 12.696669,-6.89628 l 11.545833,-6.054769 35.763939,0.502364 35.76394,0.502365 10.20149,5.589578 c 5.61081,3.074268 10.82358,6.058829 11.58392,6.632358 1.32336,0.998212 0.53528,1.243204 -18.43933,5.732221 -32.18485,7.614298 -38.04658,8.873712 -41.0501,8.819764 -1.56836,-0.02817 -14.25783,-2.841882 -28.19881,-6.252694 z"
     id="path8794" />
  <path
     style="fill:#84f1ef;fill-opacity:1;stroke:#7a7a7a;stroke-width:0;stroke-opacity:0"
     d="M 58.884443,151.94433 C 47.849347,140.62214 17.634295,108.27385 16.906255,107.0024 c -0.656769,-1.14699 1.878472,-5.85329 16.563237,-30.747266 8.70613,-14.75884 21.723934,-36.528453 22.556088,-37.720439 0.340263,-0.487396 21.894478,4.394219 51.15079,11.58467 l 19.41154,4.770858 0.43958,28.001983 c 0.24177,15.40109 0.34642,31.392514 0.23257,35.536504 l -0.207,7.53453 -21.53026,13.25225 c -21.173695,13.03278 -34.532209,20.98563 -36.49946,21.72955 -0.70125,0.26519 -3.718984,-2.41378 -10.138897,-9.00071 z"
     id="path8796" />
  <path
     style="fill:#84f1ef;fill-opacity:1;stroke:#7a7a7a;stroke-width:0;stroke-opacity:0"
     d="M 66.453497,230.90254 54.013699,223.3492 33.977342,188.61103 13.940985,153.87286 l 0.07765,-6.91467 c 0.04271,-3.80307 0.256574,-9.89311 0.475261,-13.53342 l 0.397611,-6.61874 17.17557,18.34184 c 28.810386,30.76671 27.444955,28.87789 32.49918,44.95645 3.806829,12.11033 14.589092,48.11053 14.448186,48.24013 -0.06663,0.0613 -5.719056,-3.28757 -12.560946,-7.44191 z"
     id="path8798" />
  <path
     style="fill:#84f1ef;fill-opacity:1;stroke:#7a7a7a;stroke-width:0;stroke-opacity:0"
     d="m 91.257342,227.17467 c -9.748351,-32.74853 -14.562335,-49.65711 -14.57242,-51.18399 -0.01113,-1.68546 2.427969,-3.33363 27.872458,-18.83424 22.18503,-13.51497 27.96877,-16.79608 29.60713,-16.79608 2.36068,0 45.51811,25.45641 57.12107,33.69287 l 1.49086,1.05831 -3.53951,12.249 c -5.41775,18.74892 -17.37829,58.90476 -17.61546,59.14147 -0.11591,0.11568 -16.90834,0.30557 -37.31652,0.42197 l -37.105772,0.21164 z"
     id="path8800" />
  <path
     style="fill:#84f1ef;fill-opacity:1;stroke:#7a7a7a;stroke-width:0;stroke-opacity:0"
     d="m 184.3555,152.20959 c -17.45682,-10.65607 -28.01127,-17.33795 -35.41967,-22.42371 -4.5833,-3.14636 -5.4283,-4.00668 -5.79615,-5.90123 -0.23685,-1.21984 -0.55383,-17.26204 -0.7044,-35.649346 l -0.27376,-33.431461 2.26782,-0.600239 c 6.97157,-1.845205 66.85151,-15.865056 67.74225,-15.860672 0.58415,0.0029 1.65153,1.072212 2.37195,2.376304 0.72042,1.304093 7.5936,13.064445 15.27373,26.134118 7.68012,13.069672 15.97597,27.225544 18.4352,31.457493 l 4.47134,7.694453 -9.53926,10.36546 c -17.65584,19.18502 -42.39257,44.90107 -43.19116,44.90107 -0.43564,0 -7.47269,-4.07801 -15.63789,-9.06224 z"
     id="path8802" />
  <path
     style="fill:#84f1ef;fill-opacity:1;stroke:#7a7a7a;stroke-width:0;stroke-opacity:0"
     d="m 189.47155,237.47198 c 5e-4,-0.26139 1.72526,-6.17839 3.83281,-13.14888 8.25881,-27.31512 14.11547,-45.73152 15.26403,-47.99813 0.66139,-1.3052 2.86231,-4.29935 4.89092,-6.65365 3.81552,-4.4281 36.73466,-39.28892 39.51358,-41.84422 l 1.5702,-1.44385 0.41519,7.72173 c 0.22836,4.24694 0.41519,10.3291 0.41519,13.51591 v 5.79419 l -12.75645,22.14671 c -19.29559,33.49943 -25.73208,44.02589 -28.96978,47.37816 -2.63573,2.72901 -9.38042,7.1566 -19.81797,13.00963 -3.72162,2.08696 -4.35922,2.30971 -4.35772,1.5224 z"
     id="path8804" />
  <path
     style="fill:#0abfbe;fill-opacity:1;stroke:#7a7a7a;stroke-width:0;stroke-opacity:0"
     d="m 89.978614,258.90033 c -2.625461,-0.79863 -5.241138,-2.27132 -23.975089,-13.49861 -9.877574,-5.91964 -18.94869,-11.63174 -20.15804,-12.69356 -2.427437,-2.13132 -4.397233,-5.38068 -28.928932,-47.72089 L 5.0004872e-7,155.79033 V 131.48367 107.177 L 24.182129,66.363949 C 44.456637,32.145922 48.731724,25.322455 50.638314,24.137228 51.889045,23.359713 62.179957,17.863853 73.507006,11.924204 L 94.101641,1.1248428 133.38987,0.78150531 172.67809,0.43816784 193.64419,11.22941 c 11.53134,5.935183 22.30282,11.76131 23.9366,12.946948 3.68647,2.675272 3.65322,2.623193 29.77628,46.630526 l 21.32371,35.922256 v 24.59521 24.5952 l -18.44159,31.98389 c -21.45521,37.21055 -25.44491,43.53237 -29.18145,46.23911 -1.48292,1.07421 -11.44586,7.21738 -22.13986,13.65148 l -19.44365,11.69837 -43.95366,-0.0545 c -24.17451,-0.03 -44.668389,-0.27188 -45.541956,-0.5376 z m 86.120776,-21.74519 c 11.34941,-37.60082 18.48348,-62.17875 18.22982,-62.80442 -0.33519,-0.82681 -9.75923,-6.84862 -32.42369,-20.71823 -18.48323,-11.31089 -25.42408,-15.14792 -27.42777,-15.16259 -2.0047,-0.0146 -5.39866,1.79482 -21.06727,11.23198 -23.894124,14.39136 -37.214094,22.84699 -38.57666,24.48878 -0.6214,0.74874 7.410571,29.07513 19.650438,69.30129 l 1.3979,4.59419 h 38.458912 38.45892 z m -94.988211,2.94428 c 0,-1.2179 -13.539192,-46.71587 -17.202388,-57.808 -2.139882,-6.47955 -3.093954,-8.42616 -5.590434,-11.40626 C 55.729872,167.79522 32.936903,143.45537 17.56864,127.3699 l -4.843414,-5.06945 -0.02115,16.47571 -0.02115,16.4757 6.403159,11.08942 c 3.521737,6.09918 11.818429,20.49959 18.437094,32.0009 6.618665,11.50131 13.103609,22.33726 14.410986,24.07988 1.917168,2.55542 4.264582,4.30288 12.133368,9.03229 5.365973,3.22513 11.039523,6.69999 12.607883,7.72191 3.264744,2.12726 4.435768,2.37097 4.435768,0.92316 z m 115.923281,-4.33345 c 3.33318,-1.89675 8.75996,-5.24734 12.05951,-7.44575 7.56399,-5.03971 7.78211,-5.35863 30.0641,-43.95631 l 16.84909,-29.18661 v -15.96316 c 0,-8.77974 -0.21961,-15.96317 -0.48802,-15.96317 -0.44722,0 -30.87286,31.97266 -40.99151,43.07577 -6.22812,6.83407 -6.93943,8.1381 -10.73709,19.68419 -4.4773,13.61241 -15.58726,50.77738 -15.58726,52.14239 0,1.87458 2.55579,1.18367 8.83118,-2.38735 z M 76.277586,159.06331 c 3.789229,-2.25661 16.977717,-10.30869 29.307754,-17.89351 l 22.41824,-13.79058 V 90.505335 c 0,-34.569593 -0.0693,-36.894537 -1.10894,-37.204453 -1.03762,-0.309311 -5.26578,-1.341867 -37.862448,-9.246359 -17.377195,-4.213863 -30.275176,-6.98418 -32.516793,-6.98418 -1.792427,0 -2.47389,1.010255 -15.494927,22.970939 -24.093386,40.634798 -26.723395,45.388178 -26.070249,47.118348 1.127865,2.98769 51.709333,56.01556 53.425956,56.00993 0.556543,-0.002 4.112178,-1.84964 7.901407,-4.10625 z m 132.187554,-3.36208 c 15.69744,-16.05936 43.07082,-45.43349 44.83153,-48.1083 1.33843,-2.0333 1.67713,-1.41015 -30.82232,-56.70782 l -8.45376,-14.38404 -1.97766,0.335481 c -5.9815,1.014677 -71.33853,16.385708 -71.67734,16.857478 -0.37099,0.516568 0.82081,71.954561 1.21537,72.850541 0.74603,1.69417 3.1598,3.31073 25.394,17.00705 27.19147,16.75001 32.05264,19.62126 33.21979,19.62126 0.53192,0 4.2536,-3.36224 8.27039,-7.47165 z M 162.22236,36.537029 c 33.44992,-8.037038 34.85245,-8.408101 34.85245,-9.220765 0,-0.920023 -6.29238,-4.782927 -16.53187,-10.148948 l -7.97718,-4.180452 -37.33102,-0.389295 -37.331013,-0.389295 -11.7231,6.120463 c -13.196756,6.889838 -15.222407,8.202135 -14.21761,9.210709 0.370646,0.372034 14.058157,3.941448 30.416693,7.93203 23.009,5.612928 30.46012,7.201212 32.9112,7.01536 1.74262,-0.132134 13.86177,-2.809547 26.93145,-5.949807 z"
     id="path11773" />
</svg>
