<?xml version="1.0" encoding="UTF-8" standalone="no"?>
<!-- Created with Inkscape (http://www.inkscape.org/) -->

<svg
   id="svg3971"
   sodipodi:docname="d20.svg"
   viewBox="0 0 272.33 313.39"
   version="1.1"
   inkscape:version="1.2 (dc2aedaf03, 2022-05-15)"
   xmlns:inkscape="http://www.inkscape.org/namespaces/inkscape"
   xmlns:sodipodi="http://sodipodi.sourceforge.net/DTD/sodipodi-0.dtd"
   xmlns="http://www.w3.org/2000/svg"
   xmlns:svg="http://www.w3.org/2000/svg"
   xmlns:rdf="http://www.w3.org/1999/02/22-rdf-syntax-ns#"
   xmlns:cc="http://creativecommons.org/ns#"
   xmlns:dc="http://purl.org/dc/elements/1.1/">
  <defs
     id="defs9" />
  <title
     id="title4003">Twenty-Sided Dice</title>
  <sodipodi:namedview
     id="base"
     bordercolor="#666666"
     inkscape:pageshadow="2"
     inkscape:window-y="45"
     pagecolor="#ffffff"
     inkscape:window-height="1230"
     inkscape:window-maximized="0"
     inkscape:zoom="3.959798"
     inkscape:window-x="1665"
     showgrid="false"
     borderopacity="1.0"
     inkscape:current-layer="layer1"
     inkscape:cx="137.88582"
     inkscape:cy="77.908015"
     inkscape:window-width="1350"
     inkscape:pageopacity="0.0"
     inkscape:document-units="px"
     inkscape:showpageshadow="0"
     inkscape:pagecheckerboard="1"
     inkscape:deskcolor="#d1d1d1" />
  <g
     id="layer1"
     inkscape:label="Layer 1"
     inkscape:groupmode="layer"
     transform="translate(-246.69 -375.67)">
    <path
       id="path3922"
       style="fill:#008ee6;fill-opacity:1"
       d="m379.93 375.67c-0.57042 0.0194-1.2261 0.22811-1.5854 0.73174l-80.673 96.527c-1.3425 1.6806-1.4331 2.0557 0.3659 2.0732l161.59-0.42695c2.2208-0.18146 2.2305-0.0702 0.79265-1.9513l-79.271-96.527c-0.16389-0.25521-0.64874-0.44097-1.2196-0.42694zm15.488 8.5979 72.746 88.478c0.97444 1.1817 1.2119 1.2488 2.927 0.42695l38.355-17.562c2.5123-1.1339 2.1642-1.3661 0.48784-2.5002l-114.53-68.85zm-33.964 3.2317c-0.034-0.0722-0.6255 0.36995-1.9513 1.2806l-105.61 69.514 33.05 15c1.7241 0.56842 2.2392 0.59885 3.3536-0.79279l69.697-83.234c0.98238-1.1366 1.4962-1.6962 1.4634-1.7684zm33.416 35.245c4.6684 0.0002 8.4059 1.6096 11.159 4.8173 2.7517 3.1917 4.3047 7.7518 4.6954 13.659 0.3892 5.8913-0.59833 10.451-2.927 13.659-2.3298 3.1917-5.8196 4.7562-10.488 4.7562-4.6846 0-8.4072-1.5645-11.159-4.7562-2.7527-3.2077-4.3057-7.7676-4.6952-13.659-0.3907-5.9071 0.59706-10.467 2.9269-13.659 2.3287-3.2077 5.8034-4.8171 10.488-4.8173zm-30.672 0.36587c4.2558 0.0002 7.4467 0.93134 9.5125 2.805 2.0817 1.8738 2.8256 4.4546 2.3171 7.8051-0.29394 1.9374-1.0612 3.7439-2.3171 5.4271-1.2535 1.6674-3.683 3.9578-7.3173 6.7684l-8.5977 6.6466h15.61l-0.97563 6.7075h-25.854l1.0366-6.7075 14.696-11.464c1.3181-1.048 2.3411-2.0485 3.0488-3.0489 0.70753-1.0004 1.1165-2.091 1.2804-3.1708 0.25311-1.6674-0.0642-3.0083-1.0364-4.0245-0.95756-1.0162-2.4107-1.5243-4.2686-1.5245-1.4292 0.00019-3.0242 0.35649-4.8173 0.97563-1.7907 0.60354-3.7333 1.4763-5.8539 2.683l1.1587-7.8051c2.1679-0.68277 4.272-1.1751 6.3417-1.5243 2.072-0.36527 4.0994-0.5487 6.0366-0.5489zm31.099 5.9149c-1.9691 0-3.3036 0.91787-4.0246 2.7439-0.72196 1.8104-0.9647 4.9443-0.67069 9.3905 0.29703 4.494 0.92682 7.6096 1.8902 9.4516 0.96343 1.842 2.4214 2.805 4.3905 2.805 1.9532 0 3.3047-0.96294 4.0245-2.805 0.71981-1.842 0.96786-4.9576 0.67083-9.4516-0.29409-4.4462-0.92926-7.5801-1.8904-9.3905-0.94639-1.826-2.4214-2.7439-4.3903-2.7439zm-87.686 4.9391c0.84542 0 1.4391 0.2117 1.7073 0.67083 0.5305 0.91321-0.14034 2.6937-1.9512 5.4269-1.8165 2.7429-3.9027 5.0749-6.2807 6.9514-2.3843 1.8715-5.0217 3.2797-7.8661 4.2075-1.8448 0.60178-3.1177 0.75963-3.8414 0.42674-0.73034-0.33796-0.89867-1.1819-0.48785-2.4391-1.3742 1.4533-2.8096 2.714-4.3295 3.7197-1.5197 1.0055-3.068 1.7864-4.6952 2.3171-2.4218 0.78989-3.8802 0.73232-4.2684-0.18341-0.38855-0.91514 0.30804-2.6709 2.0121-5.2441 1.6916-2.5542 3.5833-4.7209 5.732-6.4636 2.1357-1.7386 4.4561-2.9866 6.8905-3.7806 1.6271-0.53074 2.7625-0.67044 3.4147-0.36586 0.6584 0.29504 0.81134 1.0236 0.48777 2.1341 1.4869-1.6081 3.0585-2.9626 4.7563-4.0854 1.6912-1.128 3.4599-2.0202 5.3049-2.6221 1.4223-0.46382 2.5694-0.6683 3.4147-0.67065zm162.75 1.4634c1.4516 1.2147 2.7929 2.4709 4.0245 3.6586 1.2409 1.1877 2.3675 2.3335 3.3536 3.4758 2.1663 2.5094 3.3182 4.4606 3.4148 5.8538 0.10532 1.4026-0.83845 2.1208-2.8051 2.1341-1.1369 0-2.4662-0.33132-3.9634-0.91457-1.488-0.58323-3.852-1.7784-7.1344-3.6586l-7.8051-4.4515 7.9882 9.2077-3.9636 0.0605-13.171-15.244 3.9635-0.0605 13.354 7.6223c1.2054 0.67924 2.2397 1.2006 3.1099 1.5243 0.87015 0.32392 1.6224 0.49211 2.256 0.48782 0.97856 0 1.4409-0.36782 1.4636-1.0365 0.031-0.65954-0.39577-1.5265-1.3415-2.6221-0.7275-0.84257-1.6986-1.8055-2.927-2.805-1.2191-0.99944-2.6959-2.0332-4.3904-3.1708l4.5735-0.0605zm-168.18 4.0856c-0.4525 0.0429-1.0636 0.13658-1.7685 0.36586-1.422 0.46383-2.6816 1.1107-3.7806 1.8902-1.1116 0.78381-2.015 1.6746-2.683 2.683-0.67418 1.018-0.82079 1.7122-0.42675 2.0123 0.39377 0.30011 1.3345 0.2158 2.7439-0.24392s2.6627-1.097 3.7806-1.8904c1.1053-0.78889 2.0089-1.7259 2.683-2.7439 0.66799-1.0084 0.81421-1.6565 0.42692-1.9513-0.20018-0.14441-0.52328-0.16392-0.97555-0.12101zm-13.232 4.6343c-0.36241 0.0274-0.83235 0.11897-1.4025 0.3048-1.1403 0.37209-2.1409 0.92723-3.0488 1.5854-0.92102 0.66246-1.6946 1.4081-2.2564 2.2563-0.57423 0.86714-0.72974 1.4367-0.42677 1.7074 0.30907 0.26128 1.0676 0.18537 2.1953-0.18342 1.1403-0.37192 2.1278-0.86207 3.0488-1.5245 0.92705-0.67184 1.6818-1.45 2.256-2.3171 0.56186-0.84823 0.73614-1.385 0.42699-1.6463-0.15414-0.13069-0.43048-0.21055-0.79272-0.18343zm226.1 15.61c-0.32817 0.0235-0.84598 0.21231-1.6463 0.5487l-39.391 17.988c-1.3986 0.63494-1.3106 1.4906-0.79271 2.5611l45.794 116.16-3.2927-135.31c-0.1015-1.4797-0.12292-1.9905-0.67092-1.9513zm-264.15 3.5976-4.2074 131.65 38.782-113.91c0.57289-1.6822 0.55941-1.7673-0.60982-2.3171l-33.964-15.427zm210.86 17.074-165.25 0.42695c-2.3616-0.0351-2.2638-0.0331-1.0975 1.8902l83.905 141.53c1.417 2.1597 1.2654 2.0918 2.744-0.121l80.612-141.77c0.70556-1.1261 1.2108-1.914-0.91475-1.9513zm6.5856 3.7197c-0.15225 0.0645-0.31859 0.63826-0.79265 1.5244l-81.161 142.81c-0.88551 1.5076-1.0961 2.0479 1.0366 1.7074l128.85-17.744c2.0434-0.46654 1.9814-1.1973 1.2807-3.2319l-48.62-123.48c-0.3215-1.1829-0.45694-1.6494-0.60972-1.5854zm-178.18 1.3415c-0.15801 0.11311-0.30011 0.71495-0.60981 1.5854l-41.16 121.16c-0.70087 2.5741-0.78013 3.5412 1.8293 4.0245l123.11 17.805c2.328 0.34987 2.0303-0.82265 1.4634-1.9513l-83.79-141.34c-0.52732-1.0678-0.69637-1.394-0.85367-1.2804zm224.03 1.5854 0.24391 5.061-4.1464 2.683 0.97555 18.354 4.1464-4.0856 0.30503 5.0002-4.2075 4.0245-4.4513 2.866-1.2196-23.354-1.9512 1.2195 0.0602 1.4635c-0.91317-0.12686-1.8031-0.0703-2.683 0.12101-0.88743 0.21015-1.724 0.56568-2.5611 1.0976-1.2436 0.79027-2.1813 1.7144-2.8049 2.805-0.63176 1.0958-0.91849 2.281-0.85375 3.5367 0.0658 1.2939 0.44182 2.0305 1.1586 2.2563 0.70919 0.24352 1.7242-0.0194 3.0488-0.85369l1.8905-1.2196 0.24384 4.7563-1.9512 1.2195c-1.1785 0.74872-2.0744 1.6235-2.6221 2.5611-0.54699 0.95007-0.79243 1.9911-0.73179 3.1708 0.0562 1.0908 0.3842 1.7723 0.97555 2.0122 0.59166 0.23979 1.4151 0.0409 2.4391-0.60978 0.75595-0.4802 1.4979-1.1331 2.2564-1.8902 0.75843-0.75709 1.5188-1.6166 2.2561-2.6221l0.24385 5.366c-0.9055 0.99476-1.7829 1.8406-2.683 2.6221-0.89994 0.7813-1.805 1.4545-2.683 2.0122-2.3651 1.5029-4.1328 2.0594-5.366 1.5854-1.2406-0.45601-1.9478-1.8939-2.0732-4.3293-0.0854-1.6617 0.10353-3.2126 0.60975-4.6343 0.50655-1.4092 1.3032-2.7133 2.3782-3.8417-1.2528 0.28527-2.2296 0.0352-2.9268-0.79261-0.70485-0.80978-1.0614-2.1345-1.1587-4.0245-0.14439-2.8159 0.40147-5.3949 1.7073-7.7442 1.3066-2.3367 3.3262-4.3531 5.9758-6.0367 0.93466-0.59397 1.8498-1.1054 2.8049-1.4634 0.19534-0.076 0.41248-0.11706 0.60981-0.18342l0.0602-0.0605 12.683-8.049zm-259.82 9.8783c0.6217-0.0409 1.2735 0.16196 2.0122 0.60977 1.6284 0.98637 2.8197 2.836 3.5366 5.5488 0.0451 0.17173 0.0817 0.3725 0.12099 0.5489l0.24385-3.2319 8.7808 5.3052-0.36589 4.4512-2.8658-1.7074-1.2807 15.976 2.988 0.60977-0.30494 4.3295-3.049-0.54889-3.0489-1.8902 1.6466-20.366-2.5002-1.4635c0.37493 2.3359 0.49744 5.0261 0.24393 8.1099-0.33681 4.0977-1.1451 6.9526-2.378 8.6588-1.2394 1.714-2.7548 2.0163-4.5734 0.91477-0.57615-0.34909-1.118-0.77466-1.6462-1.2806-0.52827-0.50597-1.083-1.0919-1.5855-1.7682l0.36598-4.5734c0.49047 0.82051 1.0125 1.4951 1.4634 2.0124 0.44989 0.52841 0.89392 0.94832 1.3415 1.2196 0.96238 0.58284 1.7534 0.49385 2.3781-0.24391 0.62368-0.72666 1.0198-2.1187 1.2806-4.1465-0.41408 0.31882-0.828 0.48294-1.2806 0.48781-0.45377 0.0195-0.95423-0.1191-1.4635-0.42694-1.2814-0.77604-2.2046-2.1269-2.8658-4.0854-0.6672-1.962-0.92951-4.1824-0.73179-6.5856 0.21841-2.6578 0.8188-4.5363 1.8293-5.6099 0.50488-0.53134 1.0855-0.81174 1.7074-0.8537zm0.91444 4.4513c-0.22727 0.0506-0.44006 0.21267-0.60957 0.48781-0.34553 0.55805-0.55148 1.5372-0.67076 2.988-0.1191 1.4508-0.1033 2.644 0.12101 3.5367 0.21967 0.90032 0.6488 1.5446 1.2196 1.8902 0.56497 0.34246 0.99584 0.19319 1.3414-0.36585 0.33901-0.55027 0.55149-1.537 0.67067-2.9878 0.1191-1.4508 0.0976-2.6364-0.12101-3.5367-0.22617-0.89271-0.59341-1.4871-1.1585-1.8293-0.28544-0.17369-0.56527-0.23417-0.79287-0.18344zm96.832 9.0246h8.6588v6.4636h15.793v7.8662l-14.269 21.22h-10.183v-22.44h-5.061v-6.6466h5.061v-6.4636zm30.001 0h24.818v6.3417h-8.049v22.989l8.2928-1.7074v6.2197l-8.2928 1.7074h-8.72v-29.208h-8.049v-6.3417zm-21.342 13.11v14.939l10.061-14.939h-10.061zm-61.282 26.891 5.7319 7.8051-2.683 1.7684c0.4139 0.0937 0.79707 0.16391 1.2195 0.30478 3.3674 1.1358 6.4656 3.6471 9.2686 7.4392 3.0894 4.18 4.3354 8.1296 3.7195 11.952-0.63811 3.8155-3.1154 7.1327-7.3782 9.9394-4.369 2.8766-8.7658 3.8362-13.232 2.805-4.4888-1.0379-8.4402-3.9295-11.891-8.5979-1.0935-1.4795-2.0861-2.9336-2.9269-4.4513-0.84098-1.5177-1.5645-3.0819-2.1952-4.6954l4.8782-3.2317c0.47722 1.7144 1.0633 3.2645 1.7073 4.6343 0.63193 1.3776 1.3458 2.6315 2.1952 3.7806 1.8261 2.4705 3.8229 4.0017 5.9758 4.6343 2.141 0.64041 4.3787 0.37797 6.7684-0.85366-1.2792-0.56706-2.4357-1.3368-3.5366-2.2563-1.1127-0.91164-2.1437-2.0465-3.1097-3.3537-2.4314-3.2895-3.6328-6.4597-3.5368-9.5125 0.0856-3.0672 1.4011-5.4474 3.9635-7.1345 0.70856-0.46635 1.4526-0.81816 2.1951-1.0976l-3.9634-5.366 6.8295-4.5123zm155.61 11.281 6.6464 5.1221 10.61 24.879-5.305 7.866-19.147-14.635-2.6221 3.9026-5.6709-4.3293 2.683-3.9636-5.549-4.2074 4.5734-6.7075 5.4879 4.2684 8.293-12.195zm-151.04 6.1586c-1.033 0.0683-2.1326 0.5167-3.2928 1.2806-1.5468 1.0184-2.396 2.1158-2.6219 3.3537-0.24861 1.2314 0.13655 2.6204 1.2195 4.0856 1.0723 1.4508 2.2768 2.2806 3.5976 2.5 1.2983 0.21288 2.7216-0.20098 4.2684-1.2196 1.547-1.0184 2.4346-2.1224 2.683-3.3536 0.22617-1.2379-0.14829-2.6348-1.2195-4.0856-1.083-1.465-2.2993-2.2871-3.5976-2.5-0.3304-0.0547-0.69232-0.0839-1.0367-0.0604zm153.66 2.6222-5.244 7.744 12.683 9.7564-7.4393-17.5zm-199.58 48.843 120.8 68.539c1.5641 0.94791 1.9296 0.60252 1.7073-1.0366l-2.5611-48.05c-0.0697-1.5507-0.27982-2.1821-1.8901-2.4391l-118.05-17.013zm249.76 0.121-122.63 16.952c-1.618 0.23844-1.3259 1.0328-1.3415 2.1952l2.6221 48.904c0.13476 1.4838 0.0914 2.0158 1.8902 1.0976l119.46-69.149zm-76.771 21.098 8.9637 9.9394 7.0123-4.1464 1.9513 2.1952-18.415 10.915-2.9877 1.7684-18.415 10.915-1.9513-2.1343 7.0124-4.1464-7.1344-7.8051-6.5855 4.8172-1.9513-2.1342 6.5857-4.7562 7.5001-4.4514 9.0247 9.9394 3.9635-2.3782 2.9878-1.7684 3.9636-2.3781-7.0734-7.8051-6.6466 4.8172-1.8901-2.1343 6.5855-4.8171 7.5002-4.4515zm-80.612 1.4635c2.3727 0.10779 4.5151 0.9278 6.5247 2.439 2.2312 1.678 3.1759 3.4877 2.8051 5.488-0.3712 2.0004-2.0271 4.0005-4.9393 5.9759-1.7322 1.1749-3.522 1.9776-5.305 2.5l2.0732 1.5854-4.6954 3.1708-4.1464-3.1098 1.5244-1.0366c-2.597-0.17033-4.9427-1.0198-7.0733-2.6221-0.80232-0.6033-1.5301-1.1899-2.1343-1.8293-0.61204-0.63396-1.1331-1.3134-1.5854-2.0122l3.3539-2.2561c0.35511 0.76466 0.75556 1.4088 1.2195 2.0122 0.47184 0.59791 1.0198 1.1752 1.6463 1.6464 1.3142 0.98833 2.7663 1.4941 4.2684 1.5244 1.5101 0.0247 3.0446-0.46856 4.6954-1.4024-0.92419-0.11621-1.7706-0.30451-2.5612-0.60981-0.79057-0.3053-1.5075-0.70234-2.195-1.2195-1.75-1.3159-2.6206-2.7894-2.6221-4.3295 0.0191-1.5396 0.91928-2.8892 2.6829-4.0855 1.9496-1.3224 4.0987-1.93 6.4636-1.8293zm1.0367 3.6587c-0.92364 0.0685-1.8754 0.4452-2.9269 1.1586-1.0598 0.71884-1.6851 1.418-1.8293 2.0732-0.13663 0.64979 0.20375 1.2489 0.97556 1.8293 0.77179 0.58039 1.5844 0.85639 2.5 0.79272 0.92348-0.0696 1.9283-0.50067 2.9879-1.2195 1.0516-0.71334 1.6241-1.3571 1.7684-2.0122 0.1444-0.65529-0.14241-1.3099-0.9146-1.8904-0.77197-0.58028-1.6374-0.80081-2.5611-0.73164z" />
    <path
       style="fill:#ffffff;stroke:#7a7a7a;stroke-width:0;stroke-opacity:0;fill-opacity:1"
       d="m 100.71429,80.793417 c 0,-3.019673 0.80298,-3.923346 9.64285,-10.851971 8.91486,-6.9874 9.58952,-7.791248 9.6191,-11.461128 0.0415,-5.152613 -4.14459,-6.524273 -11.20626,-3.67194 l -4.31699,1.743712 0.35718,-2.918902 c 0.19645,-1.605396 0.81171,-3.283108 1.36725,-3.728249 1.66871,-1.337104 10.93575,-2.389234 14.70453,-1.669473 4.63217,0.884648 6.81601,2.496069 7.79045,5.748437 1.65895,5.537081 -1.69054,10.361209 -13.10408,18.87324 -2.63386,1.964286 -4.8035,3.8125 -4.82143,4.107143 -0.0179,0.294643 3.5375,0.535714 7.90096,0.535714 6.94091,0 7.87932,0.141367 7.5,1.129848 -0.23846,0.621417 -0.43356,1.907131 -0.43356,2.857143 v 1.727295 h -12.5 -12.5 z"
       id="path1642"
       transform="translate(246.69,375.67)" />
    <path
       style="fill:#ffffff;fill-opacity:1;stroke:#7a7a7a;stroke-width:0;stroke-opacity:0"
       d="m 146.83164,83.115069 c -6.46648,-1.490245 -10.85035,-7.867395 -11.60622,-16.883378 -1.03429,-12.337035 4.26832,-19.301679 14.15129,-18.58681 8.55744,0.618989 13.47104,6.939815 14.05582,18.081309 0.32791,6.247514 -0.46998,9.965749 -2.8737,13.391731 -2.51948,3.590956 -8.24964,5.25949 -13.72719,3.997148 z m 6.68795,-6.782825 c 1.25262,-1.592453 1.4798,-2.883861 1.47643,-8.392858 -0.006,-10.529685 -1.75216,-14.7251 -6.12713,-14.7251 -2.64516,0 -4.36693,1.389699 -5.03891,4.067081 -0.76815,3.060545 0.23451,14.861774 1.46483,17.240944 2.09655,4.054288 5.8156,4.872698 8.22478,1.809933 z"
       id="path1782"
       transform="translate(246.69,375.67)" />
    <path
       style="fill:#ffffff;fill-opacity:1;stroke:#7a7a7a;stroke-width:0;stroke-opacity:0"
       d="m 210.83482,67.661042 c -7.47202,-8.722432 -6.53246,-9.237514 4.91817,-2.696214 8.71974,4.981245 12.10415,5.853846 12.10415,3.120806 0,-0.932863 -1.32851,-2.794392 -3.31345,-4.642857 -2.61602,-2.436152 -3.01572,-3.085634 -1.89894,-3.085634 1.4724,0 9.28151,7.622407 10.87915,10.619046 0.75281,1.412015 0.71837,1.87338 -0.20911,2.800855 -1.52694,1.526938 -4.63681,0.513532 -13.49336,-4.397048 -3.83036,-2.123769 -6.96429,-3.637443 -6.96429,-3.363719 0,0.273723 1.44643,2.192213 3.21429,4.263311 1.76786,2.071098 3.21428,3.900101 3.21428,4.064451 0,0.16435 -0.5625,0.29093 -1.25,0.281289 -0.6875,-0.0096 -3.9279,-3.143569 -7.20089,-6.964286 z"
       id="path1786"
       transform="translate(246.69,375.67)" />
    <path
       style="fill:#ffffff;fill-opacity:1;stroke:#7a7a7a;stroke-width:0;stroke-opacity:0"
       d="m 247.12673,152.57223 c -0.83073,-0.185 -1.56944,-0.98618 -1.91683,-2.07892 -0.34955,-1.09954 -0.47593,-3.5421 -0.25434,-4.91572 0.30088,-1.8651 1.08756,-3.64783 2.22709,-5.04686 0.30649,-0.37629 0.55726,-0.71838 0.55726,-0.76019 0,-0.0418 -0.21736,-0.0393 -0.48302,0.006 -0.66054,0.1116 -1.54253,-0.13335 -2.08235,-0.57832 -1.88741,-1.55577 -1.95974,-7.4233 -0.13757,-11.16016 1.29902,-2.66399 3.55346,-5.06705 6.42788,-6.85161 1.101,-0.68355 2.81835,-1.54611 3.07831,-1.54611 0.0701,0 2.98595,-1.81548 6.47956,-4.0344 l 6.35203,-4.03441 0.0799,0.65671 c 0.044,0.36119 0.11481,1.4522 0.15741,2.42447 l 0.0775,1.76777 -2.02167,1.30922 c -1.11192,0.72007 -2.04541,1.34763 -2.07443,1.39458 -0.0575,0.093 0.89796,18.32243 0.96337,18.38113 0.022,0.0197 0.94913,-0.84176 2.0603,-1.91446 l 2.0203,-1.95036 0.077,0.86012 c 0.0423,0.47307 0.1153,1.54198 0.16212,2.37536 l 0.0851,1.51523 -2.06497,1.9764 c -1.8048,1.72738 -2.3398,2.15408 -4.24631,3.38673 -1.19973,0.77569 -2.1951,1.39207 -2.21192,1.36973 -0.0168,-0.0223 -0.29952,-5.23899 -0.62821,-11.59257 -0.32869,-6.35358 -0.61967,-11.57401 -0.64661,-11.60096 -0.0269,-0.0269 -0.49173,0.23195 -1.03285,0.57533 l -0.98386,0.62431 0.0422,0.70063 0.0421,0.70062 -1.36797,0.0655 c -1.56022,0.0747 -2.41594,0.32846 -3.70275,1.09794 -2.80322,1.67628 -4.24363,4.38365 -3.78353,7.11146 0.1261,0.74757 0.22591,0.98042 0.56612,1.32062 0.37242,0.37243 0.48565,0.41302 1.1517,0.41293 0.85391,-1.1e-4 1.65267,-0.33408 3.26406,-1.36472 l 1.01015,-0.64609 0.0804,1.16329 c 0.0443,0.63981 0.0986,1.67023 0.12087,2.28983 l 0.0404,1.12653 -1.32043,0.82439 c -1.70806,1.06642 -2.89381,2.23422 -3.4337,3.38175 -0.36241,0.77031 -0.4113,1.00871 -0.44915,2.19023 -0.038,1.18664 -0.0118,1.38542 0.24982,1.8936 0.35817,0.69574 0.74674,0.91641 1.45951,0.82889 1.38459,-0.17002 3.55045,-1.85909 5.66732,-4.41974 l 0.51582,-0.62396 0.0939,2.58113 0.0939,2.58113 -1.56404,1.51523 c -3.36631,3.26126 -6.87346,5.13949 -8.79698,4.71115 z"
       id="path1788"
       transform="translate(246.69,375.67)" />
    <path
       style="fill:#ffffff;fill-opacity:1;stroke:#7a7a7a;stroke-width:0;stroke-opacity:0"
       d="m 210.74837,216.40091 c -5.13623,-3.94518 -9.40616,-7.17306 -9.48873,-7.17306 -0.0826,0 -0.69367,0.79549 -1.35799,1.76776 -0.66433,0.97227 -1.29652,1.76777 -1.40489,1.76777 -0.16693,0 -4.49881,-3.19402 -5.14063,-3.79033 -0.11789,-0.10954 0.36509,-1.05784 1.07329,-2.10735 0.7082,-1.04951 1.28764,-1.95923 1.28764,-2.02161 0,-0.0624 -1.19325,-1.00095 -2.65165,-2.08572 -1.45841,-1.08477 -2.65166,-2.05642 -2.65166,-2.15922 0,-0.25957 4.02068,-6.1291 4.25553,-6.21237 0.10484,-0.0372 1.36782,0.84789 2.80663,1.96682 1.4388,1.11893 2.70733,1.94309 2.81894,1.83147 0.11162,-0.11161 1.9578,-2.79368 4.10262,-5.96015 2.14483,-3.16647 3.99545,-5.7566 4.11249,-5.75585 0.11705,7.4e-4 1.60222,1.05906 3.30039,2.35183 l 3.08759,2.35047 5.31389,12.43923 5.31389,12.43923 -2.54296,3.72321 c -1.39863,2.04777 -2.62234,3.7407 -2.71937,3.76208 -0.097,0.0214 -4.37878,-3.18902 -9.51502,-7.13421 z m 4.12103,-12.97768 c -1.99169,-4.71534 -3.728,-8.54152 -3.85847,-8.50262 -0.3819,0.11384 -5.216,7.31192 -5.1375,7.64985 0.0976,0.42009 12.42411,9.89808 12.5315,9.6356 0.0471,-0.11522 -1.54385,-4.0675 -3.53553,-8.78283 z"
       id="path1792"
       transform="translate(246.69,375.67)" />
    <path
       style="fill:#ffffff;fill-opacity:1;stroke:#7a7a7a;stroke-width:0;stroke-opacity:0"
       d="m 143.6942,155.56349 v -14.52094 h -4.04061 -4.04061 v -3.03046 -3.03046 h 12.2481 12.2481 v 3.03046 3.03046 h -4.04061 -4.04061 v 11.62156 11.62157 l 0.56821,-0.1305 c 0.31251,-0.0718 1.98874,-0.42076 3.72494,-0.77553 1.7362,-0.35477 3.3556,-0.70361 3.59866,-0.77521 0.40347,-0.11885 0.44195,0.13193 0.44195,2.88005 v 3.01024 l -3.85121,0.79877 c -3.48883,0.72362 -4.27299,0.79841 -8.33376,0.79486 l -4.48255,-0.004 z"
       id="path1794"
       transform="translate(246.69,375.67)" />
    <path
       style="fill:#ffffff;fill-opacity:1;stroke:#7a7a7a;stroke-width:0;stroke-opacity:0"
       d="m 105.56094,158.97276 v -11.11168 h -2.52538 -2.52538 v -3.283 -3.28299 h 2.52538 2.52538 v -3.15673 -3.15673 h 4.16688 4.16688 v 3.15673 3.15673 h 7.95495 7.95495 l -0.009,3.8512 -0.009,3.85121 -7.09936,10.54347 -7.09936,10.54346 h -5.01325 -5.01325 z m 13.32932,-3.03046 c 2.48357,-3.68074 4.71831,-7.00478 4.96609,-7.38674 l 0.4505,-0.69448 h -5.20607 -5.20608 v 7.47092 c 0,4.61077 0.0919,7.43869 0.23998,7.38674 0.132,-0.0463 2.272,-3.0957 4.75558,-6.77644 z"
       id="path1796"
       transform="translate(246.69,375.67)" />
    <path
       style="fill:#ffffff;fill-opacity:1;stroke:#7a7a7a;stroke-width:0;stroke-opacity:0"
       d="m 49.371206,216.59585 c -2.272409,-0.58814 -3.746558,-1.25537 -5.691195,-2.57595 -3.70104,-2.51333 -7.848168,-7.7802 -10.21416,-12.97203 l -0.874126,-1.91814 2.286963,-1.53775 c 1.257829,-0.84576 2.31889,-1.49997 2.357912,-1.4538 0.03902,0.0462 0.271111,0.70898 0.515752,1.47291 0.244641,0.76393 1.023485,2.52538 1.730765,3.91434 1.010643,1.98471 1.693164,2.93464 3.187914,4.43693 2.556976,2.56987 3.738087,3.12193 6.700175,3.13171 2.168444,0.007 4.671955,-0.58391 4.671955,-1.10303 0,-0.10168 -0.426158,-0.38756 -0.947018,-0.63528 -3.15557,-1.50081 -7.264194,-6.51492 -8.55033,-10.43471 -0.733911,-2.23676 -0.659824,-5.85745 0.153824,-7.51745 0.786634,-1.60488 2.373118,-3.19582 4.018125,-4.02941 0.706634,-0.35808 1.284789,-0.70721 1.284789,-0.77585 0,-0.0686 -0.794733,-1.20087 -1.766074,-2.51605 -0.971341,-1.31519 -1.795247,-2.49893 -1.830902,-2.63055 -0.07465,-0.27555 6.07506,-4.3761 6.395319,-4.26431 0.116662,0.0407 1.408293,1.7126 2.87029,3.71529 l 2.658176,3.64126 -1.300628,0.87589 -1.300628,0.8759 1.583768,0.59538 c 4.211413,1.58321 8.540162,5.82173 11.069831,10.83911 2.281556,4.52527 2.173568,9.02556 -0.308051,12.8376 -1.507132,2.31511 -4.862543,5.16579 -7.845014,6.66495 -3.321379,1.66951 -7.598624,2.20647 -10.857432,1.36304 z m 10.135161,-13.67032 c 1.455819,-0.64398 3.287493,-2.38815 3.644744,-3.47063 0.460897,-1.39653 0.160957,-2.94681 -0.870764,-4.5007 -1.783478,-2.68611 -4.206993,-3.50928 -6.815638,-2.31501 -2.767985,1.26723 -4.202735,2.97255 -4.197,4.9885 0.0035,1.21568 1.01667,3.217 2.206218,4.35776 1.793827,1.72027 3.623952,2.00547 6.03244,0.94008 z"
       id="path1798"
       transform="translate(246.69,375.67)" />
    <path
       style="fill:#ffffff;fill-opacity:1;stroke:#7a7a7a;stroke-width:0;stroke-opacity:0"
       d="m 98.285916,285.81533 -1.845455,-1.41521 0.676108,-0.53911 0.676108,-0.53911 -1.608573,-0.2975 c -2.964234,-0.54823 -6.870441,-2.99526 -8.552746,-5.35784 l -0.519851,-0.73006 1.515929,-1.02945 1.515928,-1.02945 0.626074,0.99177 c 0.8863,1.40399 2.286526,2.69653 3.647681,3.36715 1.642475,0.80922 4.429321,0.79529 6.282461,-0.0314 0.72921,-0.3253 1.32583,-0.67659 1.32583,-0.78063 0,-0.10404 -0.46396,-0.26335 -1.03103,-0.35403 -2.151012,-0.34396 -4.734897,-2.14896 -5.672903,-3.96286 -0.461041,-0.89155 -0.529162,-2.33453 -0.155538,-3.29467 0.404636,-1.03983 1.996139,-2.42744 3.806085,-3.31847 1.559836,-0.76791 1.811936,-0.81417 4.437036,-0.81417 2.60464,0 2.89217,0.0516 4.48112,0.80433 2.9636,1.40392 5.23073,4.00657 5.23889,6.0142 0.01,2.34513 -3.08229,5.75313 -7.06717,7.7899 -1.26459,0.64636 -2.45615,1.17521 -2.6479,1.17521 -0.74085,0 -0.57995,0.47174 0.39021,1.14406 l 1.01233,0.70155 -2.21632,1.47577 c -1.21897,0.81168 -2.27313,1.4689 -2.34258,1.46051 -0.0694,-0.008 -0.956724,-0.65211 -1.971724,-1.43047 z M 105.7149,275.2684 c 1.47534,-0.7352 2.52167,-1.75377 2.74956,-2.67663 0.21112,-0.85494 -0.80821,-2.10243 -2.0538,-2.51351 -1.74171,-0.57481 -4.3123,0.34026 -5.7476,2.04601 -2.135254,2.5376 1.60171,4.8634 5.05184,3.14413 z"
       id="path1800"
       transform="translate(246.69,375.67)" />
    <path
       style="fill:#ffffff;fill-opacity:1;stroke:#7a7a7a;stroke-width:0;stroke-opacity:0"
       d="m 161.64649,295.23987 -0.83461,-0.8611 3.31205,-1.94351 c 1.82162,-1.06894 3.37373,-2.04333 3.44912,-2.16531 0.0995,-0.161 -6.83524,-8.05858 -7.0761,-8.05858 -0.0195,0 -1.5014,1.0778 -3.29316,2.39512 l -3.25774,2.39512 -0.60343,-0.56422 c -1.3148,-1.22937 -1.30711,-1.24322 2.03039,-3.65831 2.70908,-1.96034 9.29911,-6.10784 10.33875,-6.50679 0.24828,-0.0953 1.83486,1.47138 4.84332,4.78245 l 4.4741,4.92413 1.82947,-1.08162 c 7.40191,-4.37613 9.2382,-5.55101 9.08135,-5.81037 -0.23625,-0.39065 -6.94172,-7.73465 -7.06216,-7.73465 -0.0532,0 -1.56614,1.07478 -3.36219,2.3884 l -3.26553,2.3884 -0.76717,-0.93071 c -0.42194,-0.51189 -0.76139,-0.99005 -0.75432,-1.06258 0.0501,-0.51388 12.12496,-8.45028 13.52943,-8.89241 0.13679,-0.0431 2.219,2.10932 4.62715,4.78307 2.40814,2.67375 4.44747,4.86079 4.53185,4.86009 0.0844,-7e-4 1.68759,-0.90925 3.56269,-2.01901 l 3.40926,-2.01774 0.81111,0.94573 c 0.62535,0.72912 0.74102,1.01057 0.50508,1.22889 -0.44684,0.41345 -38.75893,23.0766 -39.01103,23.0766 -0.11719,0 -0.58864,-0.38749 -1.04768,-0.86109 z"
       id="path1802"
       transform="translate(246.69,375.67)" />
    <path
       style="fill:#ffffff;fill-opacity:1;stroke:#7a7a7a;stroke-width:0;stroke-opacity:0"
       d="m 18.929942,153.28539 c -1.808373,-0.36464 -4.283466,-1.81938 -4.280729,-2.51599 0.0011,-0.28006 0.341127,-4.65715 0.755613,-9.72685 0.414487,-5.0697 0.754513,-9.44575 0.755614,-9.72456 0.0013,-0.33252 -0.392498,-0.7452 -1.144714,-1.19955 -0.630693,-0.38096 -1.234079,-0.69265 -1.340857,-0.69265 -0.106779,0 -0.09345,0.88073 0.02962,1.95718 0.438689,3.83702 -0.189036,9.70851 -1.377556,12.88512 -0.675888,1.80647 -2.183074,3.34045 -3.2820988,3.34045 -1.2082452,0 -2.795923,-0.88306 -4.1061922,-2.28384 l -1.1715613,-1.25249 0.1707792,-1.95677 c 0.093929,-1.07623 0.1903087,-1.98214 0.214178,-2.01314 0.023869,-0.031 0.4515731,0.49036 0.9504528,1.15859 1.1522256,1.54336 2.4679945,2.22273 3.4872271,1.80055 0.818042,-0.33885 1.375556,-1.35872 1.7841012,-3.2637 0.321995,-1.50141 0.24361,-1.69183 -0.5267262,-1.27956 -1.7095067,0.9149 -4.1976398,-1.71845 -5.1772434,-5.4794 -0.791253,-3.03782 -0.3322501,-8.08156 0.919825,-10.10746 1.9063535,-3.08454 5.7622316,-1.02739 7.2821926,3.88513 0.482801,1.56042 0.76519,1.35079 0.76519,-0.56804 0,-0.61367 0.07127,-1.11576 0.15839,-1.11576 0.248359,0 8.16547,4.83044 8.315812,5.07369 0.07385,0.1195 0.05662,1.07426 -0.0383,2.1217 l -0.172576,1.90444 -1.379269,-0.77841 c -0.758597,-0.42812 -1.409462,-0.74254 -1.446367,-0.69871 -0.0369,0.0438 -0.351234,3.65943 -0.698511,8.03465 -0.442057,5.56933 -0.550436,8.00675 -0.361395,8.12768 0.148509,0.095 0.815252,0.24772 1.481651,0.33937 1.357251,0.18667 1.3626,0.20295 0.997254,3.03563 l -0.164428,1.27488 z M 9.9340093,134.52213 c 0.5043737,-0.55732 0.9256337,-2.63808 0.9237217,-4.56259 -0.0026,-2.61317 -0.826679,-4.32182 -2.084418,-4.32182 -0.7615515,0 -1.128701,0.65594 -1.4396247,2.572 -0.4959266,3.05614 -0.2058307,5.08389 0.8830986,6.17282 0.718473,0.71848 1.1608014,0.75443 1.7172224,0.13959 z"
       id="path1804"
       transform="translate(246.69,375.67)" />
    <path
       style="fill:#ffffff;fill-opacity:1;stroke:#7a7a7a;stroke-width:0;stroke-opacity:0"
       d="m 29.357558,79.64902 c -0.998838,-1.034019 0.677301,-4.512039 4.214612,-8.745399 3.54587,-4.243603 10.946921,-8.243822 13.28306,-7.179406 0.580375,0.264436 0.661174,0.431458 0.573214,1.184898 -0.05632,0.48239 -0.03571,0.877072 0.04579,0.877072 0.0815,0 0.712126,-0.576876 1.401385,-1.281946 2.806709,-2.871095 8.110911,-5.688433 11.249742,-5.975323 2.781458,-0.254227 3.185373,0.817351 1.484356,3.937976 -3.57799,6.564066 -9.649504,11.537297 -16.09894,13.186784 -2.479239,0.634083 -3.172838,0.374656 -3.288795,-1.230109 l -0.07815,-1.081564 -1.184539,1.177218 c -1.748356,1.73755 -4.367413,3.499953 -6.553792,4.410145 -2.165336,0.901431 -4.544684,1.24064 -5.047946,0.719654 z m 9.683006,-6.147388 c 3.758795,-1.857698 5.771875,-5.645683 2.694131,-5.069509 -3.168719,0.593204 -7.39844,4.236619 -6.782325,5.842188 0.239929,0.625246 1.891143,0.313162 4.088194,-0.772679 z m 10.990454,-3.012308 c 2.20394,-0.778006 4.344443,-2.226575 5.557144,-3.760757 1.756786,-2.222503 1.637611,-3.079734 -0.404609,-2.910377 -1.838156,0.152434 -4.872655,1.647778 -6.535818,3.220728 -1.404165,1.328002 -2.352929,2.984996 -2.094605,3.65818 0.216398,0.563924 1.51089,0.486589 3.477888,-0.207774 z"
       id="path1806"
       transform="translate(246.69,375.67)" />
  </g>
  <metadata
     id="metadata6">
    <rdf:RDF>
      <cc:Work>
        <dc:format>image/svg+xml</dc:format>
        <dc:type
           rdf:resource="http://purl.org/dc/dcmitype/StillImage" />
        <cc:license
           rdf:resource="http://creativecommons.org/licenses/publicdomain/" />
        <dc:publisher>
          <cc:Agent
             rdf:about="http://openclipart.org/">
            <dc:title>Openclipart</dc:title>
          </cc:Agent>
        </dc:publisher>
        <dc:title>Twenty-Sided Dice</dc:title>
        <dc:date>2010-11-06T04:15:17</dc:date>
        <dc:description>A twenty-sided die (d20) as used in wargaming and roleplaying, most famously in Dungeons &amp; Dragons.</dc:description>
        <dc:source>https://openclipart.org/detail/94501/twenty-sided-dice-by-wirelizard</dc:source>
        <dc:creator>
          <cc:Agent>
            <dc:title>wirelizard</dc:title>
          </cc:Agent>
        </dc:creator>
        <dc:subject>
          <rdf:Bag>
            <rdf:li>RPG</rdf:li>
            <rdf:li>d20</rdf:li>
            <rdf:li>dice</rdf:li>
            <rdf:li>die</rdf:li>
            <rdf:li>game</rdf:li>
            <rdf:li>gamer</rdf:li>
            <rdf:li>gaming</rdf:li>
            <rdf:li>roleplay</rdf:li>
            <rdf:li>twenty</rdf:li>
          </rdf:Bag>
        </dc:subject>
      </cc:Work>
      <cc:License
         rdf:about="http://creativecommons.org/licenses/publicdomain/">
        <cc:permits
           rdf:resource="http://creativecommons.org/ns#Reproduction" />
        <cc:permits
           rdf:resource="http://creativecommons.org/ns#Distribution" />
        <cc:permits
           rdf:resource="http://creativecommons.org/ns#DerivativeWorks" />
      </cc:License>
    </rdf:RDF>
  </metadata>
</svg>
