<?xml version="1.0" encoding="UTF-8" standalone="no"?>
<svg
   version="1.1"
   viewBox="0 0 286.49475 286"
   x="0px"
   y="0px"
   id="svg40922"
   sodipodi:docname="roll-symbol.svg"
   inkscape:version="1.2 (dc2aedaf03, 2022-05-15)"
   width="286.49475"
   height="286"
   xmlns:inkscape="http://www.inkscape.org/namespaces/inkscape"
   xmlns:sodipodi="http://sodipodi.sourceforge.net/DTD/sodipodi-0.dtd"
   xmlns="http://www.w3.org/2000/svg"
   xmlns:svg="http://www.w3.org/2000/svg">
  <defs
     id="defs40926" />
  <sodipodi:namedview
     id="namedview40924"
     pagecolor="#505050"
     bordercolor="#ffffff"
     borderopacity="1"
     inkscape:showpageshadow="0"
     inkscape:pageopacity="0"
     inkscape:pagecheckerboard="1"
     inkscape:deskcolor="#505050"
     showgrid="false"
     inkscape:zoom="5.7454546"
     inkscape:cx="150.11867"
     inkscape:cy="132.88766"
     inkscape:window-width="1752"
     inkscape:window-height="1238"
     inkscape:window-x="1590"
     inkscape:window-y="94"
     inkscape:window-maximized="0"
     inkscape:current-layer="svg40922" />
  <g
     inkscape:groupmode="layer"
     id="layer1"
     inkscape:label="Layer 1">
    <path
       style="fill:#f9c4a9;fill-opacity:1;stroke:#7a7a7a;stroke-width:0;stroke-opacity:0"
       d="m 118.52848,113.65506 c 0.49869,-1.04821 15.53077,-19.573984 18.10127,-19.145567 4.26514,1.542529 10.38667,1.599941 9.22468,7.484177 -5.04067,2.28668 -11.60337,12.18355 -17.40506,18.27532 z"
       id="path3438"
       sodipodi:nodetypes="ccccc" />
  </g>
  <path
     id="path1703"
     style="fill:#f9f4a9;fill-opacity:1;stroke:#7a7a7a;stroke-width:0;stroke-opacity:0"
     d="m 24.810773,153.67882 c 18.096987,-0.89509 2.605522,-10.10862 20.548435,-4.94252 4.525175,-3.95217 2.435556,-16.58771 10.253193,-25.699 26.508433,-30.895001 84.635379,-38.815131 84.918419,22.65003 -10.05611,19.89676 -21.73321,-17.74975 -11.80267,-25.71223 -4.22914,-3.43889 9.83595,-8.16214 -10.02531,-6.67047 -3.89734,7.51332 -7.19036,48.55947 27.45907,52.64325 10.44108,-2.46105 -1.23145,-53.9038 -3.96137,-57.78364 -15.37029,-21.84463 -41.47049,-29.823283 -80.02729,-4.06622 -21.779054,14.54904 -20.926912,23.47745 -37.362477,49.5808 z"
     sodipodi:nodetypes="ccsccccssc" />
  <path
     style="fill:#f9f4a9;fill-opacity:1;stroke:#7a7a7a;stroke-width:0;stroke-opacity:0"
     d="m 135.62576,94.765734 c 18.37383,-11.355434 64.71409,16.791516 59.77701,-1.812911 13.39363,0.641828 9.44875,12.871627 17.65576,22.105987 -13.57755,1.7625 -17.14327,7.65673 -25.56738,5.36602 13.95228,-18.44743 -25.31684,-25.457902 -43.49644,-17.1671 -0.76639,-8.888843 -7.10255,-2.51226 -8.36892,-8.491996 z"
     id="path3318"
     sodipodi:nodetypes="ccccccc" />
</svg>
